<?xml version="1.0" encoding="UTF-8" standalone="no"?>
<!DOCTYPE svg PUBLIC "-//W3C//DTD SVG 1.1//EN"
 "http://www.w3.org/Graphics/SVG/1.1/DTD/svg11.dtd">
<!-- Generated by graphviz version 2.43.0 (0)
 -->
<!-- Title: G Pages: 1 -->
<svg width="4932pt" height="620pt"
 viewBox="0.00 0.00 4932.15 620.00" xmlns="http://www.w3.org/2000/svg" xmlns:xlink="http://www.w3.org/1999/xlink">
<g id="graph0" class="graph" transform="scale(1 1) rotate(0) translate(4 616)">
<title>G</title>
<polygon fill="white" stroke="transparent" points="-4,4 -4,-616 4928.15,-616 4928.15,4 -4,4"/>
<!-- :mifospay&#45;android -->
<g id="node1" class="node">
<title>:mifospay&#45;android</title>
<ellipse fill="none" stroke="black" cx="2673.46" cy="-594" rx="94.48" ry="18"/>
<text text-anchor="middle" x="2673.46" y="-590.3" font-family="Times,serif" font-size="14.00">:mifospay&#45;android</text>
</g>
<!-- :mifospay&#45;shared -->
<g id="node2" class="node">
<title>:mifospay&#45;shared</title>
<ellipse fill="none" stroke="black" cx="2554.46" cy="-522" rx="90.18" ry="18"/>
<text text-anchor="middle" x="2554.46" y="-518.3" font-family="Times,serif" font-size="14.00">:mifospay&#45;shared</text>
</g>
<!-- :mifospay&#45;android&#45;&gt;:mifospay&#45;shared -->
<g id="edge1" class="edge">
<title>:mifospay&#45;android&#45;&gt;:mifospay&#45;shared</title>
<path fill="none" stroke="red" stroke-width="2" d="M2645.86,-576.76C2629.6,-567.2 2608.84,-554.99 2591.21,-544.62"/>
<polygon fill="red" stroke="red" stroke-width="2" points="2592.71,-541.44 2582.32,-539.39 2589.16,-547.48 2592.71,-541.44"/>
</g>
<!-- :core:data -->
<g id="node3" class="node">
<title>:core:data</title>
<ellipse fill="none" stroke="black" cx="2991.46" cy="-306" rx="57.39" ry="18"/>
<text text-anchor="middle" x="2991.46" y="-302.3" font-family="Times,serif" font-size="14.00">:core:data</text>
</g>
<!-- :mifospay&#45;android&#45;&gt;:core:data -->
<g id="edge2" class="edge">
<title>:mifospay&#45;android&#45;&gt;:core:data</title>
<path fill="none" stroke="black" d="M2766.97,-591.33C3182.03,-583.49 4840.49,-547.26 4915.46,-468 4933.23,-449.21 4918.4,-373.7 4902.46,-360 4866.76,-329.32 3393.11,-311.39 3058.54,-307.71"/>
<polygon fill="black" stroke="black" points="3058.55,-304.21 3048.51,-307.6 3058.47,-311.21 3058.55,-304.21"/>
</g>
<!-- :core:ui -->
<g id="node4" class="node">
<title>:core:ui</title>
<ellipse fill="none" stroke="black" cx="2513.46" cy="-378" rx="45.49" ry="18"/>
<text text-anchor="middle" x="2513.46" y="-374.3" font-family="Times,serif" font-size="14.00">:core:ui</text>
</g>
<!-- :mifospay&#45;android&#45;&gt;:core:ui -->
<g id="edge3" class="edge">
<title>:mifospay&#45;android&#45;&gt;:core:ui</title>
<path fill="none" stroke="black" d="M2676.73,-575.82C2681.8,-543.84 2687.77,-474.55 2654.46,-432 2651.22,-427.86 2596.45,-408.02 2556.15,-393.83"/>
<polygon fill="black" stroke="black" points="2557.1,-390.46 2546.51,-390.45 2554.79,-397.07 2557.1,-390.46"/>
</g>
<!-- :mifospay&#45;shared&#45;&gt;:core:data -->
<g id="edge4" class="edge">
<title>:mifospay&#45;shared&#45;&gt;:core:data</title>
<path fill="none" stroke="black" d="M2644.73,-520.64C3066.59,-518.73 4824.98,-508.39 4864.46,-468 4875.64,-456.56 4874.04,-444.82 4864.46,-432 4830.61,-386.72 4796.66,-412.06 4742.46,-396 4688.66,-380.06 4676.88,-368.72 4621.46,-360 4279.13,-306.11 3406.11,-368.6 3062.46,-324 3056.1,-323.18 3049.49,-322.01 3042.97,-320.68"/>
<polygon fill="black" stroke="black" points="3043.37,-317.19 3032.85,-318.47 3041.88,-324.02 3043.37,-317.19"/>
</g>
<!-- :mifospay&#45;shared&#45;&gt;:core:ui -->
<g id="edge6" class="edge">
<title>:mifospay&#45;shared&#45;&gt;:core:ui</title>
<path fill="none" stroke="black" d="M2504.59,-506.91C2485.45,-498.8 2465.55,-486.43 2454.46,-468 2446.21,-454.29 2447.94,-446.61 2454.46,-432 2460.18,-419.17 2470.7,-408.15 2481.3,-399.54"/>
<polygon fill="black" stroke="black" points="2483.5,-402.27 2489.34,-393.43 2479.26,-396.69 2483.5,-402.27"/>
</g>
<!-- :core:network -->
<g id="node5" class="node">
<title>:core:network</title>
<ellipse fill="none" stroke="black" cx="3313.46" cy="-234" rx="74.99" ry="18"/>
<text text-anchor="middle" x="3313.46" y="-230.3" font-family="Times,serif" font-size="14.00">:core:network</text>
</g>
<!-- :mifospay&#45;shared&#45;&gt;:core:network -->
<g id="edge5" class="edge">
<title>:mifospay&#45;shared&#45;&gt;:core:network</title>
<path fill="none" stroke="black" d="M2644.58,-520.68C3071.9,-518.98 4875.04,-509.34 4915.46,-468 4933.36,-449.69 4918.68,-374.67 4902.46,-360 4790.35,-258.59 3711.87,-239.23 3398.46,-235.73"/>
<polygon fill="black" stroke="black" points="3398.12,-232.23 3388.08,-235.62 3398.04,-239.23 3398.12,-232.23"/>
</g>
<!-- :core:designsystem -->
<g id="node6" class="node">
<title>:core:designsystem</title>
<ellipse fill="none" stroke="black" cx="2364.46" cy="-306" rx="100.98" ry="18"/>
<text text-anchor="middle" x="2364.46" y="-302.3" font-family="Times,serif" font-size="14.00">:core:designsystem</text>
</g>
<!-- :mifospay&#45;shared&#45;&gt;:core:designsystem -->
<g id="edge7" class="edge">
<title>:mifospay&#45;shared&#45;&gt;:core:designsystem</title>
<path fill="none" stroke="black" d="M2464.23,-520.75C2027.97,-519.34 156.34,-510.8 114.46,-468 22.86,-374.4 -213.43,-437.73 476.46,-360 824.13,-320.83 1904.05,-310.13 2253.87,-307.66"/>
<polygon fill="black" stroke="black" points="2254.03,-311.16 2264.01,-307.59 2253.99,-304.16 2254.03,-311.16"/>
</g>
<!-- :core:domain -->
<g id="node7" class="node">
<title>:core:domain</title>
<ellipse fill="none" stroke="black" cx="4822.46" cy="-378" rx="70.69" ry="18"/>
<text text-anchor="middle" x="4822.46" y="-374.3" font-family="Times,serif" font-size="14.00">:core:domain</text>
</g>
<!-- :mifospay&#45;shared&#45;&gt;:core:domain -->
<g id="edge8" class="edge">
<title>:mifospay&#45;shared&#45;&gt;:core:domain</title>
<path fill="none" stroke="black" d="M2644.6,-520.67C3069.94,-518.89 4857.37,-509 4897.46,-468 4908.64,-456.56 4904.81,-446.21 4897.46,-432 4890.37,-418.31 4877.93,-407.4 4865.21,-399.13"/>
<polygon fill="black" stroke="black" points="4866.78,-395.99 4856.41,-393.81 4863.16,-401.98 4866.78,-395.99"/>
</g>
<!-- :feature:auth -->
<g id="node8" class="node">
<title>:feature:auth</title>
<ellipse fill="none" stroke="black" cx="4784.46" cy="-450" rx="71.49" ry="18"/>
<text text-anchor="middle" x="4784.46" y="-446.3" font-family="Times,serif" font-size="14.00">:feature:auth</text>
</g>
<!-- :mifospay&#45;shared&#45;&gt;:feature:auth -->
<g id="edge9" class="edge">
<title>:mifospay&#45;shared&#45;&gt;:feature:auth</title>
<path fill="none" stroke="red" stroke-width="2" d="M2644.94,-521C2999.7,-520.64 4296.2,-515.99 4704.46,-468 4711.09,-467.22 4717.98,-466.15 4724.82,-464.93"/>
<polygon fill="red" stroke="red" stroke-width="2" points="4725.59,-468.35 4734.76,-463.04 4724.29,-461.47 4725.59,-468.35"/>
</g>
<!-- :libs:mifos&#45;passcode -->
<g id="node9" class="node">
<title>:libs:mifos&#45;passcode</title>
<ellipse fill="none" stroke="black" cx="1038.46" cy="-450" rx="103.98" ry="18"/>
<text text-anchor="middle" x="1038.46" y="-446.3" font-family="Times,serif" font-size="14.00">:libs:mifos&#45;passcode</text>
</g>
<!-- :mifospay&#45;shared&#45;&gt;:libs:mifos&#45;passcode -->
<g id="edge10" class="edge">
<title>:mifospay&#45;shared&#45;&gt;:libs:mifos&#45;passcode</title>
<path fill="none" stroke="black" d="M2463.95,-521.07C2240.57,-520.49 1645.32,-514.33 1151.46,-468 1141.35,-467.05 1130.77,-465.8 1120.32,-464.41"/>
<polygon fill="black" stroke="black" points="1120.73,-460.94 1110.34,-463.04 1119.77,-467.87 1120.73,-460.94"/>
</g>
<!-- :feature:home -->
<g id="node10" class="node">
<title>:feature:home</title>
<ellipse fill="none" stroke="black" cx="1235.46" cy="-450" rx="75.29" ry="18"/>
<text text-anchor="middle" x="1235.46" y="-446.3" font-family="Times,serif" font-size="14.00">:feature:home</text>
</g>
<!-- :mifospay&#45;shared&#45;&gt;:feature:home -->
<g id="edge11" class="edge">
<title>:mifospay&#45;shared&#45;&gt;:feature:home</title>
<path fill="none" stroke="black" d="M2465.18,-518.99C2220.27,-513.18 1541.41,-495.05 1319.46,-468 1312.61,-467.17 1305.49,-466.08 1298.41,-464.85"/>
<polygon fill="black" stroke="black" points="1298.59,-461.32 1288.13,-462.97 1297.33,-468.21 1298.59,-461.32"/>
</g>
<!-- :feature:settings -->
<g id="node11" class="node">
<title>:feature:settings</title>
<ellipse fill="none" stroke="black" cx="1416.46" cy="-450" rx="87.99" ry="18"/>
<text text-anchor="middle" x="1416.46" y="-446.3" font-family="Times,serif" font-size="14.00">:feature:settings</text>
</g>
<!-- :mifospay&#45;shared&#45;&gt;:feature:settings -->
<g id="edge12" class="edge">
<title>:mifospay&#45;shared&#45;&gt;:feature:settings</title>
<path fill="none" stroke="black" d="M2464.34,-520.13C2283.49,-517.55 1863.67,-507.45 1513.46,-468 1505.15,-467.06 1496.48,-465.87 1487.89,-464.54"/>
<polygon fill="black" stroke="black" points="1488.3,-461.06 1477.87,-462.93 1487.19,-467.97 1488.3,-461.06"/>
</g>
<!-- :feature:faq -->
<g id="node12" class="node">
<title>:feature:faq</title>
<ellipse fill="none" stroke="black" cx="1587.46" cy="-450" rx="64.99" ry="18"/>
<text text-anchor="middle" x="1587.46" y="-446.3" font-family="Times,serif" font-size="14.00">:feature:faq</text>
</g>
<!-- :mifospay&#45;shared&#45;&gt;:feature:faq -->
<g id="edge13" class="edge">
<title>:mifospay&#45;shared&#45;&gt;:feature:faq</title>
<path fill="none" stroke="black" d="M2464.28,-520.6C2302.58,-518.77 1952.97,-509.84 1661.46,-468 1655.6,-467.16 1649.53,-466.09 1643.5,-464.9"/>
<polygon fill="black" stroke="black" points="1643.92,-461.42 1633.42,-462.81 1642.5,-468.27 1643.92,-461.42"/>
</g>
<!-- :feature:editpassword -->
<g id="node13" class="node">
<title>:feature:editpassword</title>
<ellipse fill="none" stroke="black" cx="3007.46" cy="-450" rx="112.38" ry="18"/>
<text text-anchor="middle" x="3007.46" y="-446.3" font-family="Times,serif" font-size="14.00">:feature:editpassword</text>
</g>
<!-- :mifospay&#45;shared&#45;&gt;:feature:editpassword -->
<g id="edge14" class="edge">
<title>:mifospay&#45;shared&#45;&gt;:feature:editpassword</title>
<path fill="none" stroke="black" d="M2623.75,-510.29C2703.02,-498.04 2832.99,-477.96 2919.38,-464.61"/>
<polygon fill="black" stroke="black" points="2920.08,-468.04 2929.43,-463.06 2919.01,-461.13 2920.08,-468.04"/>
</g>
<!-- :feature:profile -->
<g id="node14" class="node">
<title>:feature:profile</title>
<ellipse fill="none" stroke="black" cx="1750.46" cy="-450" rx="79.89" ry="18"/>
<text text-anchor="middle" x="1750.46" y="-446.3" font-family="Times,serif" font-size="14.00">:feature:profile</text>
</g>
<!-- :mifospay&#45;shared&#45;&gt;:feature:profile -->
<g id="edge15" class="edge">
<title>:mifospay&#45;shared&#45;&gt;:feature:profile</title>
<path fill="none" stroke="black" d="M2466.49,-517.8C2331.08,-512.14 2063.64,-497.98 1838.46,-468 1831.35,-467.05 1823.95,-465.9 1816.6,-464.64"/>
<polygon fill="black" stroke="black" points="1817.09,-461.17 1806.63,-462.87 1815.86,-468.06 1817.09,-461.17"/>
</g>
<!-- :feature:history -->
<g id="node15" class="node">
<title>:feature:history</title>
<ellipse fill="none" stroke="black" cx="2140.46" cy="-450" rx="83.39" ry="18"/>
<text text-anchor="middle" x="2140.46" y="-446.3" font-family="Times,serif" font-size="14.00">:feature:history</text>
</g>
<!-- :mifospay&#45;shared&#45;&gt;:feature:history -->
<g id="edge16" class="edge">
<title>:mifospay&#45;shared&#45;&gt;:feature:history</title>
<path fill="none" stroke="black" d="M2486.23,-510.17C2421.01,-499.72 2319.94,-483.28 2232.46,-468 2225.68,-466.82 2218.64,-465.56 2211.59,-464.29"/>
<polygon fill="black" stroke="black" points="2211.76,-460.76 2201.3,-462.42 2210.51,-467.65 2211.76,-460.76"/>
</g>
<!-- :feature:payments -->
<g id="node16" class="node">
<title>:feature:payments</title>
<ellipse fill="none" stroke="black" cx="1943.46" cy="-450" rx="95.58" ry="18"/>
<text text-anchor="middle" x="1943.46" y="-446.3" font-family="Times,serif" font-size="14.00">:feature:payments</text>
</g>
<!-- :mifospay&#45;shared&#45;&gt;:feature:payments -->
<g id="edge17" class="edge">
<title>:mifospay&#45;shared&#45;&gt;:feature:payments</title>
<path fill="none" stroke="black" d="M2473.23,-513.91C2373.13,-504.84 2197.96,-487.92 2048.46,-468 2039.81,-466.85 2030.78,-465.54 2021.81,-464.18"/>
<polygon fill="black" stroke="black" points="2022.13,-460.69 2011.72,-462.62 2021.07,-467.61 2022.13,-460.69"/>
</g>
<!-- :feature:finance -->
<g id="node17" class="node">
<title>:feature:finance</title>
<ellipse fill="none" stroke="black" cx="2324.46" cy="-450" rx="83.39" ry="18"/>
<text text-anchor="middle" x="2324.46" y="-446.3" font-family="Times,serif" font-size="14.00">:feature:finance</text>
</g>
<!-- :mifospay&#45;shared&#45;&gt;:feature:finance -->
<g id="edge18" class="edge">
<title>:mifospay&#45;shared&#45;&gt;:feature:finance</title>
<path fill="none" stroke="black" d="M2507.08,-506.58C2470.23,-495.36 2419,-479.77 2380.18,-467.96"/>
<polygon fill="black" stroke="black" points="2381.18,-464.61 2370.59,-465.04 2379.14,-471.3 2381.18,-464.61"/>
</g>
<!-- :feature:accounts -->
<g id="node18" class="node">
<title>:feature:accounts</title>
<ellipse fill="none" stroke="black" cx="2554.46" cy="-450" rx="90.98" ry="18"/>
<text text-anchor="middle" x="2554.46" y="-446.3" font-family="Times,serif" font-size="14.00">:feature:accounts</text>
</g>
<!-- :mifospay&#45;shared&#45;&gt;:feature:accounts -->
<g id="edge19" class="edge">
<title>:mifospay&#45;shared&#45;&gt;:feature:accounts</title>
<path fill="none" stroke="black" d="M2554.46,-503.7C2554.46,-495.98 2554.46,-486.71 2554.46,-478.11"/>
<polygon fill="black" stroke="black" points="2557.96,-478.1 2554.46,-468.1 2550.96,-478.1 2557.96,-478.1"/>
</g>
<!-- :feature:invoices -->
<g id="node19" class="node">
<title>:feature:invoices</title>
<ellipse fill="none" stroke="black" cx="2789.46" cy="-450" rx="87.99" ry="18"/>
<text text-anchor="middle" x="2789.46" y="-446.3" font-family="Times,serif" font-size="14.00">:feature:invoices</text>
</g>
<!-- :mifospay&#45;shared&#45;&gt;:feature:invoices -->
<g id="edge20" class="edge">
<title>:mifospay&#45;shared&#45;&gt;:feature:invoices</title>
<path fill="none" stroke="black" d="M2602.58,-506.67C2640.09,-495.49 2692.29,-479.94 2731.99,-468.12"/>
<polygon fill="black" stroke="black" points="2733.22,-471.4 2741.8,-465.2 2731.22,-464.7 2733.22,-471.4"/>
</g>
<!-- :feature:kyc -->
<g id="node20" class="node">
<title>:feature:kyc</title>
<ellipse fill="none" stroke="black" cx="4629.46" cy="-450" rx="65.79" ry="18"/>
<text text-anchor="middle" x="4629.46" y="-446.3" font-family="Times,serif" font-size="14.00">:feature:kyc</text>
</g>
<!-- :mifospay&#45;shared&#45;&gt;:feature:kyc -->
<g id="edge21" class="edge">
<title>:mifospay&#45;shared&#45;&gt;:feature:kyc</title>
<path fill="none" stroke="black" d="M2644.93,-520.96C2983.76,-520.45 4177.39,-515.26 4554.46,-468 4560.63,-467.23 4567.04,-466.17 4573.4,-464.96"/>
<polygon fill="black" stroke="black" points="4574.19,-468.37 4583.3,-462.96 4572.8,-461.51 4574.19,-468.37"/>
</g>
<!-- :feature:notification -->
<g id="node21" class="node">
<title>:feature:notification</title>
<ellipse fill="none" stroke="black" cx="3240.46" cy="-450" rx="102.88" ry="18"/>
<text text-anchor="middle" x="3240.46" y="-446.3" font-family="Times,serif" font-size="14.00">:feature:notification</text>
</g>
<!-- :mifospay&#45;shared&#45;&gt;:feature:notification -->
<g id="edge22" class="edge">
<title>:mifospay&#45;shared&#45;&gt;:feature:notification</title>
<path fill="none" stroke="black" d="M2637.79,-514.84C2749.63,-506.23 2954.36,-489.23 3128.46,-468 3137.8,-466.86 3147.57,-465.55 3157.27,-464.18"/>
<polygon fill="black" stroke="black" points="3157.94,-467.62 3167.34,-462.73 3156.94,-460.69 3157.94,-467.62"/>
</g>
<!-- :feature:savedcards -->
<g id="node22" class="node">
<title>:feature:savedcards</title>
<ellipse fill="none" stroke="black" cx="3648.46" cy="-450" rx="102.88" ry="18"/>
<text text-anchor="middle" x="3648.46" y="-446.3" font-family="Times,serif" font-size="14.00">:feature:savedcards</text>
</g>
<!-- :mifospay&#45;shared&#45;&gt;:feature:savedcards -->
<g id="edge23" class="edge">
<title>:mifospay&#45;shared&#45;&gt;:feature:savedcards</title>
<path fill="none" stroke="black" d="M2643.71,-519.07C2816.47,-514.7 3208.45,-501.67 3536.46,-468 3546.29,-466.99 3556.57,-465.72 3566.76,-464.34"/>
<polygon fill="black" stroke="black" points="3567.47,-467.77 3576.89,-462.92 3566.5,-460.84 3567.47,-467.77"/>
</g>
<!-- :feature:receipt -->
<g id="node23" class="node">
<title>:feature:receipt</title>
<ellipse fill="none" stroke="black" cx="3444.46" cy="-450" rx="83.39" ry="18"/>
<text text-anchor="middle" x="3444.46" y="-446.3" font-family="Times,serif" font-size="14.00">:feature:receipt</text>
</g>
<!-- :mifospay&#45;shared&#45;&gt;:feature:receipt -->
<g id="edge24" class="edge">
<title>:mifospay&#45;shared&#45;&gt;:feature:receipt</title>
<path fill="none" stroke="black" d="M2643.34,-518.47C2791.06,-513.52 3096.2,-500.07 3352.46,-468 3360.05,-467.05 3367.96,-465.87 3375.82,-464.59"/>
<polygon fill="black" stroke="black" points="3376.45,-468.03 3385.72,-462.91 3375.28,-461.13 3376.45,-468.03"/>
</g>
<!-- :feature:standing&#45;instruction -->
<g id="node24" class="node">
<title>:feature:standing&#45;instruction</title>
<ellipse fill="none" stroke="black" cx="3913.46" cy="-450" rx="144.07" ry="18"/>
<text text-anchor="middle" x="3913.46" y="-446.3" font-family="Times,serif" font-size="14.00">:feature:standing&#45;instruction</text>
</g>
<!-- :mifospay&#45;shared&#45;&gt;:feature:standing&#45;instruction -->
<g id="edge25" class="edge">
<title>:mifospay&#45;shared&#45;&gt;:feature:standing&#45;instruction</title>
<path fill="none" stroke="black" d="M2643.84,-519.11C2844.04,-514.44 3343.6,-500.28 3760.46,-468 3774.42,-466.92 3789.08,-465.57 3803.56,-464.1"/>
<polygon fill="black" stroke="black" points="3803.96,-467.58 3813.55,-463.07 3803.24,-460.62 3803.96,-467.58"/>
</g>
<!-- :feature:request&#45;money -->
<g id="node25" class="node">
<title>:feature:request&#45;money</title>
<ellipse fill="none" stroke="black" cx="4195.46" cy="-450" rx="119.68" ry="18"/>
<text text-anchor="middle" x="4195.46" y="-446.3" font-family="Times,serif" font-size="14.00">:feature:request&#45;money</text>
</g>
<!-- :mifospay&#45;shared&#45;&gt;:feature:request&#45;money -->
<g id="edge26" class="edge">
<title>:mifospay&#45;shared&#45;&gt;:feature:request&#45;money</title>
<path fill="none" stroke="black" d="M2644.96,-520.85C2879.93,-519.81 3528.55,-512.77 4066.46,-468 4078.24,-467.02 4090.6,-465.73 4102.8,-464.3"/>
<polygon fill="black" stroke="black" points="4103.49,-467.74 4113,-463.06 4102.65,-460.79 4103.49,-467.74"/>
</g>
<!-- :feature:send&#45;money -->
<g id="node26" class="node">
<title>:feature:send&#45;money</title>
<ellipse fill="none" stroke="black" cx="4439.46" cy="-450" rx="105.88" ry="18"/>
<text text-anchor="middle" x="4439.46" y="-446.3" font-family="Times,serif" font-size="14.00">:feature:send&#45;money</text>
</g>
<!-- :mifospay&#45;shared&#45;&gt;:feature:send&#45;money -->
<g id="edge27" class="edge">
<title>:mifospay&#45;shared&#45;&gt;:feature:send&#45;money</title>
<path fill="none" stroke="black" d="M2644.19,-519.7C2956.23,-514.97 3992.96,-497.36 4324.46,-468 4334.82,-467.08 4345.66,-465.85 4356.39,-464.45"/>
<polygon fill="black" stroke="black" points="4357.16,-467.88 4366.61,-463.08 4356.23,-460.94 4357.16,-467.88"/>
</g>
<!-- :feature:make&#45;transfer -->
<g id="node27" class="node">
<title>:feature:make&#45;transfer</title>
<ellipse fill="none" stroke="black" cx="239.46" cy="-450" rx="115.88" ry="18"/>
<text text-anchor="middle" x="239.46" y="-446.3" font-family="Times,serif" font-size="14.00">:feature:make&#45;transfer</text>
</g>
<!-- :mifospay&#45;shared&#45;&gt;:feature:make&#45;transfer -->
<g id="edge28" class="edge">
<title>:mifospay&#45;shared&#45;&gt;:feature:make&#45;transfer</title>
<path fill="none" stroke="black" d="M2464.52,-520.16C2106.61,-516.59 782.67,-501.4 364.46,-468 352.86,-467.07 340.69,-465.8 328.69,-464.36"/>
<polygon fill="black" stroke="black" points="329.02,-460.88 318.66,-463.12 328.16,-467.82 329.02,-460.88"/>
</g>
<!-- :feature:qr -->
<g id="node28" class="node">
<title>:feature:qr</title>
<ellipse fill="none" stroke="black" cx="433.46" cy="-450" rx="60.39" ry="18"/>
<text text-anchor="middle" x="433.46" y="-446.3" font-family="Times,serif" font-size="14.00">:feature:qr</text>
</g>
<!-- :mifospay&#45;shared&#45;&gt;:feature:qr -->
<g id="edge29" class="edge">
<title>:mifospay&#45;shared&#45;&gt;:feature:qr</title>
<path fill="none" stroke="black" d="M2464.02,-521.21C2119.7,-521.64 890.65,-519.42 503.46,-468 497.74,-467.24 491.81,-466.2 485.93,-465.01"/>
<polygon fill="black" stroke="black" points="486.64,-461.59 476.13,-462.88 485.16,-468.43 486.64,-461.59"/>
</g>
<!-- :feature:merchants -->
<g id="node29" class="node">
<title>:feature:merchants</title>
<ellipse fill="none" stroke="black" cx="611.46" cy="-450" rx="99.38" ry="18"/>
<text text-anchor="middle" x="611.46" y="-446.3" font-family="Times,serif" font-size="14.00">:feature:merchants</text>
</g>
<!-- :mifospay&#45;shared&#45;&gt;:feature:merchants -->
<g id="edge30" class="edge">
<title>:mifospay&#45;shared&#45;&gt;:feature:merchants</title>
<path fill="none" stroke="black" d="M2464.47,-519.92C2144.72,-515.84 1064.07,-499.97 719.46,-468 709.82,-467.11 699.73,-465.89 689.76,-464.52"/>
<polygon fill="black" stroke="black" points="690.25,-461.06 679.85,-463.11 689.26,-467.99 690.25,-461.06"/>
</g>
<!-- :feature:upi&#45;setup -->
<g id="node30" class="node">
<title>:feature:upi&#45;setup</title>
<ellipse fill="none" stroke="black" cx="822.46" cy="-450" rx="93.68" ry="18"/>
<text text-anchor="middle" x="822.46" y="-446.3" font-family="Times,serif" font-size="14.00">:feature:upi&#45;setup</text>
</g>
<!-- :mifospay&#45;shared&#45;&gt;:feature:upi&#45;setup -->
<g id="edge31" class="edge">
<title>:mifospay&#45;shared&#45;&gt;:feature:upi&#45;setup</title>
<path fill="none" stroke="black" d="M2464.75,-519.63C2169.22,-514.88 1227.83,-497.74 925.46,-468 916.38,-467.11 906.9,-465.91 897.51,-464.56"/>
<polygon fill="black" stroke="black" points="897.8,-461.06 887.4,-463.04 896.77,-467.99 897.8,-461.06"/>
</g>
<!-- :core:data&#45;&gt;:core:network -->
<g id="edge35" class="edge">
<title>:core:data&#45;&gt;:core:network</title>
<path fill="none" stroke="red" stroke-width="2" d="M3037.25,-295.05C3093.04,-282.92 3187.58,-262.36 3250.27,-248.74"/>
<polygon fill="red" stroke="red" stroke-width="2" points="3251.02,-252.16 3260.05,-246.61 3249.53,-245.31 3251.02,-252.16"/>
</g>
<!-- :core:common -->
<g id="node31" class="node">
<title>:core:common</title>
<ellipse fill="none" stroke="black" cx="3056.46" cy="-18" rx="75.29" ry="18"/>
<text text-anchor="middle" x="3056.46" y="-14.3" font-family="Times,serif" font-size="14.00">:core:common</text>
</g>
<!-- :core:data&#45;&gt;:core:common -->
<g id="edge32" class="edge">
<title>:core:data&#45;&gt;:core:common</title>
<path fill="none" stroke="black" d="M2987.37,-287.87C2978.75,-247.84 2962.15,-145.96 2996.46,-72 3002.04,-59.96 3011.81,-49.53 3021.86,-41.18"/>
<polygon fill="black" stroke="black" points="3024.14,-43.84 3029.9,-34.94 3019.85,-38.31 3024.14,-43.84"/>
</g>
<!-- :core:datastore -->
<g id="node32" class="node">
<title>:core:datastore</title>
<ellipse fill="none" stroke="black" cx="3204.46" cy="-162" rx="81.49" ry="18"/>
<text text-anchor="middle" x="3204.46" y="-158.3" font-family="Times,serif" font-size="14.00">:core:datastore</text>
</g>
<!-- :core:data&#45;&gt;:core:datastore -->
<g id="edge33" class="edge">
<title>:core:data&#45;&gt;:core:datastore</title>
<path fill="none" stroke="black" d="M3014.66,-289.53C3052.58,-264.25 3127.99,-213.98 3171.47,-184.99"/>
<polygon fill="black" stroke="black" points="3173.6,-187.78 3179.98,-179.32 3169.71,-181.95 3173.6,-187.78"/>
</g>
<!-- :core:model -->
<g id="node33" class="node">
<title>:core:model</title>
<ellipse fill="none" stroke="black" cx="3103.46" cy="-90" rx="64.99" ry="18"/>
<text text-anchor="middle" x="3103.46" y="-86.3" font-family="Times,serif" font-size="14.00">:core:model</text>
</g>
<!-- :core:data&#45;&gt;:core:model -->
<g id="edge34" class="edge">
<title>:core:data&#45;&gt;:core:model</title>
<path fill="none" stroke="black" d="M3000.24,-288.21C3019.7,-251.03 3066.53,-161.55 3089.83,-117.04"/>
<polygon fill="black" stroke="black" points="3093.02,-118.49 3094.55,-108.01 3086.82,-115.25 3093.02,-118.49"/>
</g>
<!-- :core:analytics -->
<g id="node34" class="node">
<title>:core:analytics</title>
<ellipse fill="none" stroke="black" cx="2830.46" cy="-234" rx="77.99" ry="18"/>
<text text-anchor="middle" x="2830.46" y="-230.3" font-family="Times,serif" font-size="14.00">:core:analytics</text>
</g>
<!-- :core:data&#45;&gt;:core:analytics -->
<g id="edge36" class="edge">
<title>:core:data&#45;&gt;:core:analytics</title>
<path fill="none" stroke="black" d="M2959.26,-291C2935.07,-280.48 2901.64,-265.95 2874.9,-254.33"/>
<polygon fill="black" stroke="black" points="2875.95,-250.96 2865.38,-250.19 2873.16,-257.38 2875.95,-250.96"/>
</g>
<!-- :core:ui&#45;&gt;:core:designsystem -->
<g id="edge44" class="edge">
<title>:core:ui&#45;&gt;:core:designsystem</title>
<path fill="none" stroke="black" d="M2485.08,-363.67C2463.22,-353.4 2432.62,-339.02 2407.71,-327.32"/>
<polygon fill="black" stroke="black" points="2409.01,-324.07 2398.47,-322.98 2406.04,-330.4 2409.01,-324.07"/>
</g>
<!-- :core:ui&#45;&gt;:core:common -->
<g id="edge46" class="edge">
<title>:core:ui&#45;&gt;:core:common</title>
<path fill="none" stroke="black" d="M2516.22,-360C2520.3,-333.42 2527.46,-280.33 2527.46,-235 2527.46,-235 2527.46,-235 2527.46,-161 2527.46,-69.61 2825.67,-35.41 2974.28,-24.03"/>
<polygon fill="black" stroke="black" points="2974.58,-27.52 2984.29,-23.29 2974.05,-20.54 2974.58,-27.52"/>
</g>
<!-- :core:ui&#45;&gt;:core:model -->
<g id="edge45" class="edge">
<title>:core:ui&#45;&gt;:core:model</title>
<path fill="none" stroke="black" d="M2531.99,-361.3C2569.67,-330.03 2658.82,-259.25 2743.46,-216 2845.58,-163.81 2974.46,-124.98 3047.04,-105.35"/>
<polygon fill="black" stroke="black" points="3048.15,-108.68 3056.9,-102.71 3046.34,-101.92 3048.15,-108.68"/>
</g>
<!-- :core:ui&#45;&gt;:core:analytics -->
<g id="edge43" class="edge">
<title>:core:ui&#45;&gt;:core:analytics</title>
<path fill="none" stroke="black" d="M2551.7,-368.17C2587.23,-359.27 2641.18,-344.02 2685.46,-324 2726.92,-305.25 2770.99,-276.83 2799.52,-257.18"/>
<polygon fill="black" stroke="black" points="2801.64,-259.96 2807.85,-251.38 2797.64,-254.22 2801.64,-259.96"/>
</g>
<!-- :core:network&#45;&gt;:core:common -->
<g id="edge40" class="edge">
<title>:core:network&#45;&gt;:core:common</title>
<path fill="none" stroke="black" d="M3319.32,-215.71C3324.61,-196.83 3329.86,-166.3 3317.46,-144 3279.67,-76.07 3192.22,-44.59 3128.94,-30.32"/>
<polygon fill="black" stroke="black" points="3129.52,-26.86 3119,-28.17 3128.04,-33.7 3129.52,-26.86"/>
</g>
<!-- :core:network&#45;&gt;:core:datastore -->
<g id="edge42" class="edge">
<title>:core:network&#45;&gt;:core:datastore</title>
<path fill="none" stroke="red" stroke-width="2" d="M3288.45,-216.94C3273.6,-207.4 3254.57,-195.18 3238.38,-184.79"/>
<polygon fill="red" stroke="red" stroke-width="2" points="3240.03,-181.69 3229.72,-179.23 3236.25,-187.58 3240.03,-181.69"/>
</g>
<!-- :core:network&#45;&gt;:core:model -->
<g id="edge41" class="edge">
<title>:core:network&#45;&gt;:core:model</title>
<path fill="none" stroke="black" d="M3314.71,-215.89C3315.18,-196 3312.76,-163.44 3294.46,-144 3264.67,-112.35 3217.78,-99.03 3177.92,-93.66"/>
<polygon fill="black" stroke="black" points="3178.3,-90.18 3167.95,-92.46 3177.46,-97.13 3178.3,-90.18"/>
</g>
<!-- :core:domain&#45;&gt;:core:data -->
<g id="edge48" class="edge">
<title>:core:domain&#45;&gt;:core:data</title>
<path fill="none" stroke="red" stroke-width="2" d="M4771.89,-365.37C4760.62,-363.2 4748.68,-361.23 4737.46,-360 3997.29,-278.67 3800.96,-419.24 3062.46,-324 3056.1,-323.18 3049.49,-322.02 3042.97,-320.69"/>
<polygon fill="red" stroke="red" stroke-width="2" points="3043.37,-317.2 3032.85,-318.48 3041.88,-324.03 3043.37,-317.2"/>
</g>
<!-- :core:domain&#45;&gt;:core:common -->
<g id="edge47" class="edge">
<title>:core:domain&#45;&gt;:core:common</title>
<path fill="none" stroke="black" d="M4763.94,-367.78C4742.74,-364.79 4718.57,-361.79 4696.46,-360 4401.09,-336.15 3655.5,-374.22 3363.46,-324 3261.23,-306.42 3226.37,-311.56 3141.46,-252 3075.08,-205.44 3055.77,-184.69 3029.46,-108 3022.25,-87 3030.58,-62.87 3039.83,-45.04"/>
<polygon fill="black" stroke="black" points="3043.15,-46.28 3044.97,-35.85 3037.04,-42.87 3043.15,-46.28"/>
</g>
<!-- :core:domain&#45;&gt;:core:model -->
<g id="edge49" class="edge">
<title>:core:domain&#45;&gt;:core:model</title>
<path fill="none" stroke="black" d="M4762.94,-368.22C4741.96,-365.32 4718.19,-362.26 4696.46,-360 4046.21,-292.26 3850.76,-455.44 3229.46,-252 3172.15,-233.24 3146.85,-230.86 3114.46,-180 3102.79,-161.69 3100.57,-136.93 3100.97,-118.17"/>
<polygon fill="black" stroke="black" points="3104.46,-118.34 3101.43,-108.18 3097.47,-118.01 3104.46,-118.34"/>
</g>
<!-- :feature:auth&#45;&gt;:core:data -->
<g id="edge52" class="edge">
<title>:feature:auth&#45;&gt;:core:data</title>
<path fill="none" stroke="black" d="M4753.62,-433.58C4709.31,-412.32 4624.47,-374.95 4547.46,-360 4223.41,-297.1 3389.78,-366.67 3062.46,-324 3056.11,-323.17 3049.5,-322.01 3042.98,-320.67"/>
<polygon fill="black" stroke="black" points="3043.37,-317.18 3032.86,-318.46 3041.88,-324.02 3043.37,-317.18"/>
</g>
<!-- :feature:auth&#45;&gt;:core:ui -->
<g id="edge50" class="edge">
<title>:feature:auth&#45;&gt;:core:ui</title>
<path fill="none" stroke="black" d="M4734.76,-436.95C4724.78,-434.95 4714.33,-433.16 4704.46,-432 4272.86,-381.37 2867.16,-378.89 2569.25,-378.95"/>
<polygon fill="black" stroke="black" points="2569.12,-375.45 2559.13,-378.95 2569.13,-382.45 2569.12,-375.45"/>
</g>
<!-- :feature:auth&#45;&gt;:core:designsystem -->
<g id="edge51" class="edge">
<title>:feature:auth&#45;&gt;:core:designsystem</title>
<path fill="none" stroke="black" d="M4734.3,-437.16C4724.45,-435.17 4714.16,-433.33 4704.46,-432 4264.35,-371.89 2872.46,-323.38 2472.75,-310.41"/>
<polygon fill="black" stroke="black" points="2472.75,-306.91 2462.64,-310.09 2472.52,-313.91 2472.75,-306.91"/>
</g>
<!-- :feature:auth&#45;&gt;:core:domain -->
<g id="edge53" class="edge">
<title>:feature:auth&#45;&gt;:core:domain</title>
<path fill="none" stroke="red" stroke-width="2" d="M4793.65,-432.05C4798.02,-424.01 4803.35,-414.2 4808.22,-405.23"/>
<polygon fill="red" stroke="red" stroke-width="2" points="4811.38,-406.73 4813.08,-396.28 4805.23,-403.39 4811.38,-406.73"/>
</g>
<!-- :libs:mifos&#45;passcode&#45;&gt;:core:data -->
<g id="edge56" class="edge">
<title>:libs:mifos&#45;passcode&#45;&gt;:core:data</title>
<path fill="none" stroke="black" d="M1110.34,-436.95C1123.97,-435.02 1138.12,-433.25 1151.46,-432 1257.84,-422.04 2013.95,-437.4 2112.46,-396 2133.9,-386.99 2129.13,-369.29 2150.46,-360 2220.6,-329.46 2737.58,-313.44 2924.37,-308.61"/>
<polygon fill="black" stroke="black" points="2924.7,-312.1 2934.6,-308.34 2924.52,-305.1 2924.7,-312.1"/>
</g>
<!-- :libs:mifos&#45;passcode&#45;&gt;:core:ui -->
<g id="edge54" class="edge">
<title>:libs:mifos&#45;passcode&#45;&gt;:core:ui</title>
<path fill="none" stroke="black" d="M1110.34,-436.94C1123.96,-435.01 1138.12,-433.24 1151.46,-432 1593.84,-390.89 1706.55,-414.39 2150.46,-396 2259.65,-391.48 2387.28,-385.29 2458.4,-381.76"/>
<polygon fill="black" stroke="black" points="2458.66,-385.25 2468.47,-381.26 2458.31,-378.26 2458.66,-385.25"/>
</g>
<!-- :libs:mifos&#45;passcode&#45;&gt;:core:designsystem -->
<g id="edge55" class="edge">
<title>:libs:mifos&#45;passcode&#45;&gt;:core:designsystem</title>
<path fill="none" stroke="black" d="M1113.17,-437.39C1125.93,-435.52 1139.07,-433.65 1151.46,-432 1289.39,-413.65 1326.7,-426.55 1462.46,-396 1511,-385.08 1519.66,-369.74 1568.46,-360 1696.91,-334.37 2070.08,-317.68 2256.23,-310.71"/>
<polygon fill="black" stroke="black" points="2256.45,-314.21 2266.31,-310.34 2256.19,-307.21 2256.45,-314.21"/>
</g>
<!-- :feature:home&#45;&gt;:core:data -->
<g id="edge59" class="edge">
<title>:feature:home&#45;&gt;:core:data</title>
<path fill="none" stroke="black" d="M1288.13,-437.03C1298.47,-435.05 1309.27,-433.24 1319.46,-432 1411.19,-420.8 2065.36,-432.06 2150.46,-396 2171.88,-386.92 2167.14,-369.32 2188.46,-360 2255.05,-330.89 2743.93,-314.08 2924.59,-308.82"/>
<polygon fill="black" stroke="black" points="2924.87,-312.31 2934.76,-308.52 2924.67,-305.31 2924.87,-312.31"/>
</g>
<!-- :feature:home&#45;&gt;:core:ui -->
<g id="edge57" class="edge">
<title>:feature:home&#45;&gt;:core:ui</title>
<path fill="none" stroke="black" d="M1288.12,-437.02C1298.46,-435.04 1309.26,-433.23 1319.46,-432 1703.2,-385.52 1802.33,-414.1 2188.46,-396 2283.35,-391.55 2393.79,-385.61 2458.42,-382.06"/>
<polygon fill="black" stroke="black" points="2458.99,-385.54 2468.78,-381.49 2458.6,-378.55 2458.99,-385.54"/>
</g>
<!-- :feature:home&#45;&gt;:core:designsystem -->
<g id="edge58" class="edge">
<title>:feature:home&#45;&gt;:core:designsystem</title>
<path fill="none" stroke="black" d="M1290.05,-437.49C1299.82,-435.56 1309.93,-433.65 1319.46,-432 1429.63,-412.9 1461.75,-429.43 1568.46,-396 1602.6,-385.3 1605.96,-369.49 1640.46,-360 1753.12,-329.02 2082.43,-315.11 2255.43,-309.8"/>
<polygon fill="black" stroke="black" points="2255.68,-313.29 2265.57,-309.49 2255.47,-306.3 2255.68,-313.29"/>
</g>
<!-- :feature:settings&#45;&gt;:core:data -->
<g id="edge62" class="edge">
<title>:feature:settings&#45;&gt;:core:data</title>
<path fill="none" stroke="black" d="M1477.87,-437.09C1489.65,-435.13 1501.9,-433.32 1513.46,-432 1662.7,-415 2050.44,-455.3 2188.46,-396 2209.83,-386.82 2205.16,-369.35 2226.46,-360 2289.5,-332.32 2750.24,-314.76 2924.73,-309.05"/>
<polygon fill="black" stroke="black" points="2924.93,-312.54 2934.81,-308.72 2924.71,-305.55 2924.93,-312.54"/>
</g>
<!-- :feature:settings&#45;&gt;:core:ui -->
<g id="edge60" class="edge">
<title>:feature:settings&#45;&gt;:core:ui</title>
<path fill="none" stroke="black" d="M1477.87,-437.06C1489.64,-435.11 1501.9,-433.3 1513.46,-432 1828.76,-396.55 1909.64,-413.38 2226.46,-396 2307.32,-391.56 2400.98,-385.92 2458.72,-382.38"/>
<polygon fill="black" stroke="black" points="2458.96,-385.88 2468.72,-381.77 2458.53,-378.89 2458.96,-385.88"/>
</g>
<!-- :feature:settings&#45;&gt;:core:designsystem -->
<g id="edge61" class="edge">
<title>:feature:settings&#45;&gt;:core:designsystem</title>
<path fill="none" stroke="black" d="M1472.18,-435.94C1517.52,-425.29 1583.15,-409.8 1640.46,-396 1705.85,-380.26 1721.12,-371.11 1787.46,-360 1950.46,-332.71 2141.89,-318.62 2258.12,-312.03"/>
<polygon fill="black" stroke="black" points="2258.65,-315.5 2268.44,-311.45 2258.26,-308.51 2258.65,-315.5"/>
</g>
<!-- :feature:faq&#45;&gt;:core:data -->
<g id="edge65" class="edge">
<title>:feature:faq&#45;&gt;:core:data</title>
<path fill="none" stroke="black" d="M1633.42,-437.23C1642.66,-435.2 1652.33,-433.33 1661.46,-432 1785.95,-413.86 2111.12,-446.26 2226.46,-396 2247.78,-386.71 2243.17,-369.39 2264.46,-360 2323.92,-333.76 2756.17,-315.5 2924.56,-309.31"/>
<polygon fill="black" stroke="black" points="2924.92,-312.8 2934.79,-308.94 2924.67,-305.81 2924.92,-312.8"/>
</g>
<!-- :feature:faq&#45;&gt;:core:ui -->
<g id="edge63" class="edge">
<title>:feature:faq&#45;&gt;:core:ui</title>
<path fill="none" stroke="black" d="M1633.42,-437.2C1642.65,-435.18 1652.32,-433.31 1661.46,-432 1927.2,-393.81 1996.53,-413.14 2264.46,-396 2331.41,-391.72 2408.46,-386.4 2458.9,-382.86"/>
<polygon fill="black" stroke="black" points="2459.2,-386.35 2468.93,-382.15 2458.71,-379.36 2459.2,-386.35"/>
</g>
<!-- :feature:faq&#45;&gt;:core:designsystem -->
<g id="edge64" class="edge">
<title>:feature:faq&#45;&gt;:core:designsystem</title>
<path fill="none" stroke="black" d="M1631.22,-436.65C1699.38,-417.81 1835.26,-381.76 1952.46,-360 2059.77,-340.08 2184.2,-325.19 2268,-316.34"/>
<polygon fill="black" stroke="black" points="2268.43,-319.82 2278.01,-315.29 2267.7,-312.85 2268.43,-319.82"/>
</g>
<!-- :feature:editpassword&#45;&gt;:core:data -->
<g id="edge68" class="edge">
<title>:feature:editpassword&#45;&gt;:core:data</title>
<path fill="none" stroke="black" d="M3013.2,-431.73C3018.37,-413.65 3024.34,-384.53 3018.46,-360 3016.21,-350.66 3012.04,-341.11 3007.63,-332.74"/>
<polygon fill="black" stroke="black" points="3010.59,-330.87 3002.64,-323.86 3004.49,-334.29 3010.59,-330.87"/>
</g>
<!-- :feature:editpassword&#45;&gt;:core:ui -->
<g id="edge66" class="edge">
<title>:feature:editpassword&#45;&gt;:core:ui</title>
<path fill="none" stroke="black" d="M2926.44,-437.5C2913.08,-435.64 2899.38,-433.75 2886.46,-432 2763.87,-415.39 2732.74,-414.68 2610.46,-396 2595.35,-393.69 2578.97,-390.92 2564.05,-388.3"/>
<polygon fill="black" stroke="black" points="2564.44,-384.81 2553.98,-386.51 2563.21,-391.7 2564.44,-384.81"/>
</g>
<!-- :feature:editpassword&#45;&gt;:core:designsystem -->
<g id="edge67" class="edge">
<title>:feature:editpassword&#45;&gt;:core:designsystem</title>
<path fill="none" stroke="black" d="M2926.05,-437.52C2822.11,-422.78 2654.81,-398.77 2648.46,-396 2624.97,-385.78 2626.56,-371.06 2603.46,-360 2558.19,-338.33 2503.84,-325.38 2458.42,-317.71"/>
<polygon fill="black" stroke="black" points="2458.7,-314.21 2448.27,-316.06 2457.58,-321.12 2458.7,-314.21"/>
</g>
<!-- :feature:profile&#45;&gt;:core:data -->
<g id="edge71" class="edge">
<title>:feature:profile&#45;&gt;:core:data</title>
<path fill="none" stroke="black" d="M1807.11,-437.13C1817.51,-435.22 1828.28,-433.41 1838.46,-432 1932.56,-418.97 2177.76,-434.86 2264.46,-396 2285.69,-386.49 2281.19,-369.43 2302.46,-360 2412.47,-311.19 2773.26,-306.33 2924.16,-306.52"/>
<polygon fill="black" stroke="black" points="2924.22,-310.02 2934.23,-306.54 2924.23,-303.02 2924.22,-310.02"/>
</g>
<!-- :feature:profile&#45;&gt;:core:ui -->
<g id="edge69" class="edge">
<title>:feature:profile&#45;&gt;:core:ui</title>
<path fill="none" stroke="black" d="M1806.63,-437.16C1817.17,-435.22 1828.12,-433.39 1838.46,-432 2043.44,-404.34 2096.26,-412.31 2302.46,-396 2355.76,-391.78 2416.64,-386.87 2459.25,-383.41"/>
<polygon fill="black" stroke="black" points="2459.73,-386.88 2469.41,-382.59 2459.16,-379.91 2459.73,-386.88"/>
</g>
<!-- :feature:profile&#45;&gt;:core:designsystem -->
<g id="edge70" class="edge">
<title>:feature:profile&#45;&gt;:core:designsystem</title>
<path fill="none" stroke="black" d="M1799.53,-435.68C1867.06,-417.54 1992.55,-384.53 2100.46,-360 2163.19,-345.74 2234.78,-331.49 2287.56,-321.37"/>
<polygon fill="black" stroke="black" points="2288.36,-324.78 2297.53,-319.46 2287.05,-317.9 2288.36,-324.78"/>
</g>
<!-- :feature:history&#45;&gt;:core:data -->
<g id="edge74" class="edge">
<title>:feature:history&#45;&gt;:core:data</title>
<path fill="none" stroke="black" d="M2192.39,-435.77C2232.84,-425.33 2290.35,-410.21 2340.46,-396 2393.61,-380.92 2405.26,-370.79 2459.46,-360 2624.91,-327.06 2823.6,-314.18 2924.92,-309.48"/>
<polygon fill="black" stroke="black" points="2925.18,-312.97 2935.01,-309.02 2924.87,-305.97 2925.18,-312.97"/>
</g>
<!-- :feature:history&#45;&gt;:core:ui -->
<g id="edge72" class="edge">
<title>:feature:history&#45;&gt;:core:ui</title>
<path fill="none" stroke="black" d="M2201.22,-437.6C2274.16,-423.91 2395.14,-401.2 2463.11,-388.45"/>
<polygon fill="black" stroke="black" points="2463.96,-391.85 2473.15,-386.56 2462.67,-384.97 2463.96,-391.85"/>
</g>
<!-- :feature:history&#45;&gt;:core:designsystem -->
<g id="edge73" class="edge">
<title>:feature:history&#45;&gt;:core:designsystem</title>
<path fill="none" stroke="black" d="M2166.15,-432.71C2206.44,-407.17 2284.55,-357.65 2329.78,-328.98"/>
<polygon fill="black" stroke="black" points="2331.8,-331.85 2338.37,-323.54 2328.05,-325.93 2331.8,-331.85"/>
</g>
<!-- :feature:payments&#45;&gt;:core:data -->
<g id="edge77" class="edge">
<title>:feature:payments&#45;&gt;:core:data</title>
<path fill="none" stroke="black" d="M2012.9,-437.56C2024.75,-435.66 2036.95,-433.75 2048.46,-432 2161.18,-414.89 2199.77,-445.55 2302.46,-396 2323.41,-385.89 2319.21,-369.48 2340.46,-360 2443.41,-314.05 2779.21,-307.51 2924.01,-306.87"/>
<polygon fill="black" stroke="black" points="2924.11,-310.37 2934.1,-306.84 2924.09,-303.37 2924.11,-310.37"/>
</g>
<!-- :feature:payments&#45;&gt;:core:ui -->
<g id="edge75" class="edge">
<title>:feature:payments&#45;&gt;:core:ui</title>
<path fill="none" stroke="black" d="M2012.01,-437.42C2024.14,-435.51 2036.66,-433.63 2048.46,-432 2196.96,-411.53 2372.94,-393.03 2459.65,-384.3"/>
<polygon fill="black" stroke="black" points="2460.18,-387.77 2469.78,-383.29 2459.48,-380.8 2460.18,-387.77"/>
</g>
<!-- :feature:payments&#45;&gt;:core:designsystem -->
<g id="edge76" class="edge">
<title>:feature:payments&#45;&gt;:core:designsystem</title>
<path fill="none" stroke="black" d="M1988.11,-433.94C2065.87,-407.71 2225.86,-353.75 2310,-325.37"/>
<polygon fill="black" stroke="black" points="2311.27,-328.63 2319.62,-322.12 2309.03,-322 2311.27,-328.63"/>
</g>
<!-- :feature:finance&#45;&gt;:core:data -->
<g id="edge80" class="edge">
<title>:feature:finance&#45;&gt;:core:data</title>
<path fill="none" stroke="black" d="M2381.61,-436.83C2508.02,-409.92 2810.03,-345.63 2935.41,-318.93"/>
<polygon fill="black" stroke="black" points="2936.15,-322.35 2945.2,-316.85 2934.69,-315.51 2936.15,-322.35"/>
</g>
<!-- :feature:finance&#45;&gt;:core:ui -->
<g id="edge78" class="edge">
<title>:feature:finance&#45;&gt;:core:ui</title>
<path fill="none" stroke="black" d="M2364.54,-434.15C2396.06,-422.48 2439.84,-406.27 2471.77,-394.44"/>
<polygon fill="black" stroke="black" points="2473.11,-397.68 2481.27,-390.92 2470.67,-391.11 2473.11,-397.68"/>
</g>
<!-- :feature:finance&#45;&gt;:core:designsystem -->
<g id="edge79" class="edge">
<title>:feature:finance&#45;&gt;:core:designsystem</title>
<path fill="none" stroke="black" d="M2329.28,-431.87C2336.13,-407.56 2348.73,-362.82 2356.85,-334.01"/>
<polygon fill="black" stroke="black" points="2360.27,-334.76 2359.61,-324.19 2353.53,-332.87 2360.27,-334.76"/>
</g>
<!-- :feature:accounts&#45;&gt;:core:data -->
<g id="edge83" class="edge">
<title>:feature:accounts&#45;&gt;:core:data</title>
<path fill="none" stroke="black" d="M2629.09,-439.66C2740,-425.66 2936.04,-400.41 2942.46,-396 2963.73,-381.4 2976.69,-354.42 2983.89,-333.98"/>
<polygon fill="black" stroke="black" points="2987.28,-334.87 2987.06,-324.27 2980.63,-332.69 2987.28,-334.87"/>
</g>
<!-- :feature:accounts&#45;&gt;:core:ui -->
<g id="edge81" class="edge">
<title>:feature:accounts&#45;&gt;:core:ui</title>
<path fill="none" stroke="black" d="M2544.53,-432.05C2539.7,-423.8 2533.78,-413.7 2528.41,-404.54"/>
<polygon fill="black" stroke="black" points="2531.36,-402.65 2523.29,-395.79 2525.32,-406.19 2531.36,-402.65"/>
</g>
<!-- :feature:accounts&#45;&gt;:core:designsystem -->
<g id="edge82" class="edge">
<title>:feature:accounts&#45;&gt;:core:designsystem</title>
<path fill="none" stroke="black" d="M2521.6,-433.19C2502.73,-423.51 2478.98,-410.26 2459.46,-396 2432.83,-376.55 2405.7,-350.36 2387.28,-331.43"/>
<polygon fill="black" stroke="black" points="2389.65,-328.84 2380.19,-324.06 2384.6,-333.7 2389.65,-328.84"/>
</g>
<!-- :feature:invoices&#45;&gt;:core:data -->
<g id="edge86" class="edge">
<title>:feature:invoices&#45;&gt;:core:data</title>
<path fill="none" stroke="black" d="M2847.09,-436.4C2900.01,-424.3 2971.52,-406.36 2980.46,-396 2994.87,-379.29 2996.69,-353.79 2995.45,-334.37"/>
<polygon fill="black" stroke="black" points="2998.92,-333.93 2994.51,-324.3 2991.95,-334.58 2998.92,-333.93"/>
</g>
<!-- :feature:invoices&#45;&gt;:core:ui -->
<g id="edge84" class="edge">
<title>:feature:invoices&#45;&gt;:core:ui</title>
<path fill="none" stroke="black" d="M2733.55,-436.01C2689.63,-425.65 2626.99,-410.51 2572.46,-396 2568.05,-394.83 2563.47,-393.57 2558.89,-392.29"/>
<polygon fill="black" stroke="black" points="2559.53,-388.84 2548.96,-389.48 2557.63,-395.57 2559.53,-388.84"/>
</g>
<!-- :feature:invoices&#45;&gt;:core:designsystem -->
<g id="edge85" class="edge">
<title>:feature:invoices&#45;&gt;:core:designsystem</title>
<path fill="none" stroke="black" d="M2727.37,-437.21C2691.76,-428.86 2647.01,-415.61 2610.46,-396 2588.49,-384.22 2589.61,-371.43 2567.46,-360 2530.61,-340.99 2486.39,-328.41 2448.65,-320.3"/>
<polygon fill="black" stroke="black" points="2449.2,-316.84 2438.7,-318.23 2447.77,-323.69 2449.2,-316.84"/>
</g>
<!-- :feature:kyc&#45;&gt;:core:data -->
<g id="edge89" class="edge">
<title>:feature:kyc&#45;&gt;:core:data</title>
<path fill="none" stroke="black" d="M4582.42,-437.41C4573.19,-435.4 4563.55,-433.48 4554.46,-432 4238.79,-380.55 4157.42,-383.42 3838.46,-360 3494.12,-334.72 3404.3,-372.41 3062.46,-324 3056.2,-323.11 3049.68,-321.93 3043.25,-320.59"/>
<polygon fill="black" stroke="black" points="3043.77,-317.12 3033.25,-318.39 3042.27,-323.96 3043.77,-317.12"/>
</g>
<!-- :feature:kyc&#45;&gt;:core:ui -->
<g id="edge87" class="edge">
<title>:feature:kyc&#45;&gt;:core:ui</title>
<path fill="none" stroke="black" d="M4583.3,-437.01C4573.82,-434.98 4563.86,-433.16 4554.46,-432 4184.26,-386.54 3249.21,-408.73 2876.46,-396 2767.08,-392.27 2639.26,-385.79 2568.21,-382"/>
<polygon fill="black" stroke="black" points="2568.32,-378.5 2558.15,-381.46 2567.95,-385.49 2568.32,-378.5"/>
</g>
<!-- :feature:kyc&#45;&gt;:core:designsystem -->
<g id="edge88" class="edge">
<title>:feature:kyc&#45;&gt;:core:designsystem</title>
<path fill="none" stroke="black" d="M4582.88,-437.13C4573.52,-435.12 4563.72,-433.27 4554.46,-432 4237.03,-388.42 4154.37,-413.68 3834.46,-396 3321.36,-367.64 2707.83,-328.95 2467.85,-313.63"/>
<polygon fill="black" stroke="black" points="2467.94,-310.13 2457.74,-312.99 2467.49,-317.12 2467.94,-310.13"/>
</g>
<!-- :feature:notification&#45;&gt;:core:data -->
<g id="edge92" class="edge">
<title>:feature:notification&#45;&gt;:core:data</title>
<path fill="none" stroke="black" d="M3211.41,-432.43C3165.51,-406.26 3076.38,-355.43 3026.83,-327.17"/>
<polygon fill="black" stroke="black" points="3028.48,-324.08 3018.06,-322.17 3025.01,-330.16 3028.48,-324.08"/>
</g>
<!-- :feature:notification&#45;&gt;:core:ui -->
<g id="edge90" class="edge">
<title>:feature:notification&#45;&gt;:core:ui</title>
<path fill="none" stroke="black" d="M3167.96,-437.18C3154.84,-435.27 3141.26,-433.45 3128.46,-432 2915.88,-407.93 2861.32,-417.37 2648.46,-396 2621.08,-393.25 2590.68,-389.49 2565.66,-386.2"/>
<polygon fill="black" stroke="black" points="2566.03,-382.71 2555.65,-384.87 2565.11,-389.65 2566.03,-382.71"/>
</g>
<!-- :feature:notification&#45;&gt;:core:designsystem -->
<g id="edge91" class="edge">
<title>:feature:notification&#45;&gt;:core:designsystem</title>
<path fill="none" stroke="black" d="M3167.96,-437.25C3154.83,-435.33 3141.25,-433.49 3128.46,-432 3030.57,-420.6 2778.24,-431.88 2686.46,-396 2662.28,-386.55 2664.09,-370.75 2640.46,-360 2585.8,-335.14 2519.91,-321.93 2466.21,-314.92"/>
<polygon fill="black" stroke="black" points="2466.35,-311.41 2455.99,-313.64 2465.48,-318.36 2466.35,-311.41"/>
</g>
<!-- :feature:savedcards&#45;&gt;:core:data -->
<g id="edge95" class="edge">
<title>:feature:savedcards&#45;&gt;:core:data</title>
<path fill="none" stroke="black" d="M3586.09,-435.62C3504.74,-418.16 3357.97,-386.72 3232.46,-360 3156.92,-343.92 3137.79,-340.99 3062.46,-324 3056.83,-322.73 3050.97,-321.38 3045.12,-320.01"/>
<polygon fill="black" stroke="black" points="3045.88,-316.59 3035.35,-317.7 3044.28,-323.4 3045.88,-316.59"/>
</g>
<!-- :feature:savedcards&#45;&gt;:core:ui -->
<g id="edge93" class="edge">
<title>:feature:savedcards&#45;&gt;:core:ui</title>
<path fill="none" stroke="black" d="M3577.2,-437.02C3563.7,-435.08 3549.67,-433.29 3536.46,-432 3176.93,-396.84 3085,-418.51 2724.46,-396 2671.09,-392.67 2610.22,-387.63 2567.62,-383.91"/>
<polygon fill="black" stroke="black" points="2567.74,-380.4 2557.47,-383.01 2567.13,-387.38 2567.74,-380.4"/>
</g>
<!-- :feature:savedcards&#45;&gt;:core:designsystem -->
<g id="edge94" class="edge">
<title>:feature:savedcards&#45;&gt;:core:designsystem</title>
<path fill="none" stroke="black" d="M3576.9,-437C3563.49,-435.08 3549.57,-433.3 3536.46,-432 3365.11,-415.06 2924.2,-455.05 2762.46,-396 2737.74,-386.98 2739.67,-370.29 2715.46,-360 2638.96,-327.5 2545.64,-314.53 2474.46,-309.54"/>
<polygon fill="black" stroke="black" points="2474.34,-306.02 2464.13,-308.86 2473.88,-313.01 2474.34,-306.02"/>
</g>
<!-- :feature:receipt&#45;&gt;:core:data -->
<g id="edge98" class="edge">
<title>:feature:receipt&#45;&gt;:core:data</title>
<path fill="none" stroke="black" d="M3399.36,-434.87C3313.82,-408.05 3128.63,-350 3040.27,-322.3"/>
<polygon fill="black" stroke="black" points="3041.09,-318.89 3030.5,-319.24 3039,-325.57 3041.09,-318.89"/>
</g>
<!-- :feature:receipt&#45;&gt;:core:ui -->
<g id="edge96" class="edge">
<title>:feature:receipt&#45;&gt;:core:ui</title>
<path fill="none" stroke="black" d="M3386.23,-437.07C3375.06,-435.12 3363.42,-433.3 3352.46,-432 3058.1,-397 2982.03,-418.5 2686.46,-396 2646.37,-392.95 2601.15,-388.47 2567,-384.87"/>
<polygon fill="black" stroke="black" points="2567.09,-381.36 2556.78,-383.79 2566.35,-388.33 2567.09,-381.36"/>
</g>
<!-- :feature:receipt&#45;&gt;:core:designsystem -->
<g id="edge97" class="edge">
<title>:feature:receipt&#45;&gt;:core:designsystem</title>
<path fill="none" stroke="black" d="M3386.22,-437.1C3375.05,-435.14 3363.42,-433.32 3352.46,-432 3213.68,-415.27 2855.5,-444.65 2724.46,-396 2699.79,-386.84 2701.58,-370.5 2677.46,-360 2612.36,-331.65 2533.51,-318.41 2471.24,-312.26"/>
<polygon fill="black" stroke="black" points="2471.29,-308.75 2461,-311.29 2470.63,-315.71 2471.29,-308.75"/>
</g>
<!-- :feature:standing&#45;instruction&#45;&gt;:core:data -->
<g id="edge101" class="edge">
<title>:feature:standing&#45;instruction&#45;&gt;:core:data</title>
<path fill="none" stroke="black" d="M3827.14,-435.46C3712.9,-417.63 3505.19,-385.57 3327.46,-360 3209.81,-343.08 3179.29,-345.87 3062.46,-324 3056.63,-322.91 3050.56,-321.65 3044.54,-320.32"/>
<polygon fill="black" stroke="black" points="3045.01,-316.84 3034.49,-318.03 3043.46,-323.66 3045.01,-316.84"/>
</g>
<!-- :feature:standing&#45;instruction&#45;&gt;:core:ui -->
<g id="edge99" class="edge">
<title>:feature:standing&#45;instruction&#45;&gt;:core:ui</title>
<path fill="none" stroke="black" d="M3814.38,-436.9C3796.46,-435.02 3777.91,-433.28 3760.46,-432 3317.81,-399.47 3205.7,-419.12 2762.46,-396 2695.46,-392.51 2618.42,-387.02 2567.99,-383.23"/>
<polygon fill="black" stroke="black" points="2568.2,-379.73 2557.96,-382.47 2567.67,-386.71 2568.2,-379.73"/>
</g>
<!-- :feature:standing&#45;instruction&#45;&gt;:core:designsystem -->
<g id="edge100" class="edge">
<title>:feature:standing&#45;instruction&#45;&gt;:core:designsystem</title>
<path fill="none" stroke="black" d="M3813.97,-436.88C3796.17,-435.01 3777.78,-433.29 3760.46,-432 3654.01,-424.1 2900.89,-432.16 2800.46,-396 2775.7,-387.09 2777.75,-370.11 2753.46,-360 2702.94,-338.97 2562.76,-323.47 2465.27,-314.84"/>
<polygon fill="black" stroke="black" points="2465.35,-311.33 2455.08,-313.95 2464.74,-318.3 2465.35,-311.33"/>
</g>
<!-- :feature:request&#45;money&#45;&gt;:core:data -->
<g id="edge104" class="edge">
<title>:feature:request&#45;money&#45;&gt;:core:data</title>
<path fill="none" stroke="black" d="M4109.08,-437.47C4094.85,-435.61 4080.24,-433.73 4066.46,-432 3798.21,-398.34 3731.33,-388.12 3462.46,-360 3284.93,-341.43 3238.6,-352.86 3062.46,-324 3056.3,-322.99 3049.89,-321.74 3043.54,-320.38"/>
<polygon fill="black" stroke="black" points="3044.2,-316.94 3033.68,-318.17 3042.67,-323.77 3044.2,-316.94"/>
</g>
<!-- :feature:request&#45;money&#45;&gt;:core:ui -->
<g id="edge102" class="edge">
<title>:feature:request&#45;money&#45;&gt;:core:ui</title>
<path fill="none" stroke="black" d="M4113.35,-436.9C4097.81,-434.97 4081.66,-433.21 4066.46,-432 3505.35,-387.17 3362.81,-420.64 2800.46,-396 2719.54,-392.45 2625.9,-386.57 2568.17,-382.74"/>
<polygon fill="black" stroke="black" points="2568.39,-379.25 2558.18,-382.08 2567.92,-386.23 2568.39,-379.25"/>
</g>
<!-- :feature:request&#45;money&#45;&gt;:core:designsystem -->
<g id="edge103" class="edge">
<title>:feature:request&#45;money&#45;&gt;:core:designsystem</title>
<path fill="none" stroke="black" d="M4113.35,-436.91C4097.81,-434.98 4081.66,-433.22 4066.46,-432 3930.39,-421.07 2967.08,-441.71 2838.46,-396 2813.66,-387.19 2815.81,-369.97 2791.46,-360 2734.7,-336.76 2575.08,-321.53 2467.9,-313.59"/>
<polygon fill="black" stroke="black" points="2467.92,-310.09 2457.7,-312.85 2467.41,-317.07 2467.92,-310.09"/>
</g>
<!-- :feature:send&#45;money&#45;&gt;:core:data -->
<g id="edge107" class="edge">
<title>:feature:send&#45;money&#45;&gt;:core:data</title>
<path fill="none" stroke="black" d="M4363.74,-437.34C4350.65,-435.45 4337.17,-433.6 4324.46,-432 4018.1,-393.41 3941.16,-385.72 3633.46,-360 3380.06,-338.82 3313.92,-361.74 3062.46,-324 3056.29,-323.07 3049.87,-321.88 3043.52,-320.54"/>
<polygon fill="black" stroke="black" points="3044.17,-317.1 3033.65,-318.36 3042.66,-323.94 3044.17,-317.1"/>
</g>
<!-- :feature:send&#45;money&#45;&gt;:core:ui -->
<g id="edge105" class="edge">
<title>:feature:send&#45;money&#45;&gt;:core:ui</title>
<path fill="none" stroke="black" d="M4366.61,-436.86C4352.65,-434.92 4338.13,-433.17 4324.46,-432 3666.23,-375.59 3498.61,-421.26 2838.46,-396 2743.53,-392.37 2633.1,-386.17 2568.48,-382.35"/>
<polygon fill="black" stroke="black" points="2568.31,-378.83 2558.12,-381.73 2567.9,-385.82 2568.31,-378.83"/>
</g>
<!-- :feature:send&#45;money&#45;&gt;:core:designsystem -->
<g id="edge106" class="edge">
<title>:feature:send&#45;money&#45;&gt;:core:designsystem</title>
<path fill="none" stroke="black" d="M4366.61,-436.86C4352.65,-434.93 4338.13,-433.18 4324.46,-432 4164.11,-418.21 3028.22,-449.56 2876.46,-396 2851.64,-387.24 2853.86,-369.85 2829.46,-360 2766.31,-334.52 2586.51,-319.68 2469.89,-312.48"/>
<polygon fill="black" stroke="black" points="2470.05,-308.98 2459.85,-311.87 2469.62,-315.97 2470.05,-308.98"/>
</g>
<!-- :feature:make&#45;transfer&#45;&gt;:core:data -->
<g id="edge110" class="edge">
<title>:feature:make&#45;transfer&#45;&gt;:core:data</title>
<path fill="none" stroke="black" d="M319.69,-437.03C334.55,-435.11 349.95,-433.33 364.46,-432 883.79,-384.42 2568.02,-322.22 2924.7,-309.38"/>
<polygon fill="black" stroke="black" points="2925,-312.87 2934.87,-309.02 2924.75,-305.88 2925,-312.87"/>
</g>
<!-- :feature:make&#45;transfer&#45;&gt;:core:ui -->
<g id="edge108" class="edge">
<title>:feature:make&#45;transfer&#45;&gt;:core:ui</title>
<path fill="none" stroke="black" d="M318.66,-436.85C333.83,-434.92 349.61,-433.17 364.46,-432 1088.61,-374.96 1272.33,-415.98 1998.46,-396 2165.89,-391.39 2363.89,-384.43 2458.18,-381.02"/>
<polygon fill="black" stroke="black" points="2458.47,-384.52 2468.34,-380.66 2458.22,-377.52 2458.47,-384.52"/>
</g>
<!-- :feature:make&#45;transfer&#45;&gt;:core:designsystem -->
<g id="edge109" class="edge">
<title>:feature:make&#45;transfer&#45;&gt;:core:designsystem</title>
<path fill="none" stroke="black" d="M297.49,-434.42C383.06,-413.64 548.41,-376.24 691.46,-360 995.48,-325.48 1931.42,-311.89 2253.9,-308.15"/>
<polygon fill="black" stroke="black" points="2254.23,-311.65 2264.19,-308.04 2254.15,-304.65 2254.23,-311.65"/>
</g>
<!-- :feature:qr&#45;&gt;:core:data -->
<g id="edge113" class="edge">
<title>:feature:qr&#45;&gt;:core:data</title>
<path fill="none" stroke="black" d="M476.12,-437.1C485.09,-435.04 494.53,-433.18 503.46,-432 668.19,-410.27 1844.85,-459.36 1998.46,-396 2019.96,-387.13 2015.09,-369.21 2036.46,-360 2077.16,-342.46 2714.32,-317.31 2924.66,-309.44"/>
<polygon fill="black" stroke="black" points="2925.08,-312.93 2934.94,-309.06 2924.82,-305.94 2925.08,-312.93"/>
</g>
<!-- :feature:qr&#45;&gt;:core:ui -->
<g id="edge111" class="edge">
<title>:feature:qr&#45;&gt;:core:ui</title>
<path fill="none" stroke="black" d="M476.12,-437.1C485.09,-435.03 494.53,-433.17 503.46,-432 841.3,-387.53 1695.84,-406.07 2036.46,-396 2189.23,-391.48 2369.48,-384.65 2458.3,-381.18"/>
<polygon fill="black" stroke="black" points="2458.56,-384.68 2468.41,-380.79 2458.28,-377.68 2458.56,-384.68"/>
</g>
<!-- :feature:qr&#45;&gt;:core:designsystem -->
<g id="edge112" class="edge">
<title>:feature:qr&#45;&gt;:core:designsystem</title>
<path fill="none" stroke="black" d="M477.76,-437.6C486.26,-435.59 495.11,-433.63 503.46,-432 716.9,-390.3 770.92,-380.21 987.46,-360 1456.59,-316.21 2018.88,-308.43 2253.33,-307.17"/>
<polygon fill="black" stroke="black" points="2253.59,-310.67 2263.57,-307.12 2253.55,-303.67 2253.59,-310.67"/>
</g>
<!-- :feature:merchants&#45;&gt;:core:data -->
<g id="edge116" class="edge">
<title>:feature:merchants&#45;&gt;:core:data</title>
<path fill="none" stroke="black" d="M679.85,-436.87C692.96,-434.94 706.6,-433.18 719.46,-432 865.23,-418.59 1901.22,-452.04 2036.46,-396 2057.95,-387.09 2053.1,-369.23 2074.46,-360 2113.37,-343.18 2720.42,-317.73 2924.85,-309.6"/>
<polygon fill="black" stroke="black" points="2925,-313.09 2934.86,-309.2 2924.73,-306.1 2925,-313.09"/>
</g>
<!-- :feature:merchants&#45;&gt;:core:ui -->
<g id="edge114" class="edge">
<title>:feature:merchants&#45;&gt;:core:ui</title>
<path fill="none" stroke="black" d="M679.85,-436.87C692.96,-434.93 706.6,-433.18 719.46,-432 1319.38,-377.05 1472.34,-415.66 2074.46,-396 2212.44,-391.5 2374.77,-384.86 2458.04,-381.36"/>
<polygon fill="black" stroke="black" points="2458.43,-384.85 2468.28,-380.93 2458.14,-377.85 2458.43,-384.85"/>
</g>
<!-- :feature:merchants&#45;&gt;:core:designsystem -->
<g id="edge115" class="edge">
<title>:feature:merchants&#45;&gt;:core:designsystem</title>
<path fill="none" stroke="black" d="M682.87,-437.45C695.06,-435.56 707.62,-433.68 719.46,-432 845.86,-414.07 1162.27,-371.15 1289.46,-360 1641.71,-329.11 2060.6,-314.93 2255.13,-309.63"/>
<polygon fill="black" stroke="black" points="2255.45,-313.12 2265.35,-309.36 2255.26,-306.13 2255.45,-313.12"/>
</g>
<!-- :feature:upi&#45;setup&#45;&gt;:core:data -->
<g id="edge119" class="edge">
<title>:feature:upi&#45;setup&#45;&gt;:core:data</title>
<path fill="none" stroke="black" d="M887.39,-436.94C899.98,-434.99 913.1,-433.21 925.46,-432 1052.58,-419.57 1956.56,-445.13 2074.46,-396 2095.93,-387.05 2091.11,-369.26 2112.46,-360 2149.57,-343.9 2726.38,-318.19 2924.92,-309.77"/>
<polygon fill="black" stroke="black" points="2925.08,-313.26 2934.93,-309.34 2924.79,-306.27 2925.08,-313.26"/>
</g>
<!-- :feature:upi&#45;setup&#45;&gt;:core:ui -->
<g id="edge117" class="edge">
<title>:feature:upi&#45;setup&#45;&gt;:core:ui</title>
<path fill="none" stroke="black" d="M887.12,-436.98C899.79,-435 913.01,-433.21 925.46,-432 1450.78,-380.91 1585.01,-415.18 2112.46,-396 2236.08,-391.51 2381.09,-385.07 2458.37,-381.55"/>
<polygon fill="black" stroke="black" points="2458.53,-385.04 2468.36,-381.09 2458.21,-378.05 2458.53,-385.04"/>
</g>
<!-- :feature:upi&#45;setup&#45;&gt;:core:designsystem -->
<g id="edge118" class="edge">
<title>:feature:upi&#45;setup&#45;&gt;:core:designsystem</title>
<path fill="none" stroke="black" d="M889.13,-437.35C901.2,-435.42 913.69,-433.55 925.46,-432 1086.63,-410.75 1128.76,-420.59 1289.46,-396 1367.09,-384.12 1384.6,-370.33 1462.46,-360 1746.09,-322.36 2083.45,-311.45 2253.99,-308.29"/>
<polygon fill="black" stroke="black" points="2254.29,-311.79 2264.23,-308.11 2254.17,-304.79 2254.29,-311.79"/>
</g>
<!-- :core:datastore&#45;&gt;:core:common -->
<g id="edge38" class="edge">
<title>:core:datastore&#45;&gt;:core:common</title>
<path fill="none" stroke="black" d="M3203.46,-143.87C3201.47,-124.27 3195.47,-92.28 3177.46,-72 3161.94,-54.53 3139.6,-42.57 3118.34,-34.5"/>
<polygon fill="black" stroke="black" points="3119.27,-31.12 3108.67,-31.06 3116.92,-37.71 3119.27,-31.12"/>
</g>
<!-- :core:datastore&#45;&gt;:core:model -->
<g id="edge37" class="edge">
<title>:core:datastore&#45;&gt;:core:model</title>
<path fill="none" stroke="red" stroke-width="2" d="M3180.78,-144.59C3167.13,-135.13 3149.8,-123.12 3135.01,-112.87"/>
<polygon fill="red" stroke="red" stroke-width="2" points="3136.85,-109.89 3126.64,-107.07 3132.86,-115.64 3136.85,-109.89"/>
</g>
<!-- :core:model&#45;&gt;:core:common -->
<g id="edge39" class="edge">
<title>:core:model&#45;&gt;:core:common</title>
<path fill="none" stroke="red" stroke-width="2" d="M3092.08,-72.05C3086.56,-63.84 3079.82,-53.79 3073.68,-44.66"/>
<polygon fill="red" stroke="red" stroke-width="2" points="3076.54,-42.63 3068.06,-36.28 3070.72,-46.53 3076.54,-42.63"/>
</g>
</g>
</svg>
