<?xml version="1.0" encoding="UTF-8" standalone="no"?>
<!DOCTYPE svg PUBLIC "-//W3C//DTD SVG 1.1//EN"
 "http://www.w3.org/Graphics/SVG/1.1/DTD/svg11.dtd">
<!-- Generated by graphviz version 2.43.0 (0)
 -->
<!-- Title: G Pages: 1 -->
<svg width="858pt" height="476pt"
 viewBox="0.00 0.00 857.74 476.00" xmlns="http://www.w3.org/2000/svg" xmlns:xlink="http://www.w3.org/1999/xlink">
<g id="graph0" class="graph" transform="scale(1 1) rotate(0) translate(4 472)">
<title>G</title>
<polygon fill="white" stroke="transparent" points="-4,4 -4,-472 853.74,-472 853.74,4 -4,4"/>
<!-- :feature:auth -->
<g id="node1" class="node">
<title>:feature:auth</title>
<ellipse fill="none" stroke="black" cx="426.74" cy="-450" rx="71.49" ry="18"/>
<text text-anchor="middle" x="426.74" y="-446.3" font-family="Times,serif" font-size="14.00">:feature:auth</text>
</g>
<!-- :core:ui -->
<g id="node2" class="node">
<title>:core:ui</title>
<ellipse fill="none" stroke="black" cx="267.74" cy="-306" rx="45.49" ry="18"/>
<text text-anchor="middle" x="267.74" y="-302.3" font-family="Times,serif" font-size="14.00">:core:ui</text>
</g>
<!-- :feature:auth&#45;&gt;:core:ui -->
<g id="edge1" class="edge">
<title>:feature:auth&#45;&gt;:core:ui</title>
<path fill="none" stroke="black" d="M408.19,-432.43C379.8,-407.07 325.47,-358.56 293.35,-329.87"/>
<polygon fill="black" stroke="black" points="295.48,-327.08 285.69,-323.03 290.81,-332.3 295.48,-327.08"/>
</g>
<!-- :core:designsystem -->
<g id="node3" class="node">
<title>:core:designsystem</title>
<ellipse fill="none" stroke="black" cx="100.74" cy="-234" rx="100.98" ry="18"/>
<text text-anchor="middle" x="100.74" y="-230.3" font-family="Times,serif" font-size="14.00">:core:designsystem</text>
</g>
<!-- :feature:auth&#45;&gt;:core:designsystem -->
<g id="edge2" class="edge">
<title>:feature:auth&#45;&gt;:core:designsystem</title>
<path fill="none" stroke="black" d="M395.52,-433.76C375.11,-423.55 348.02,-409.56 324.74,-396 273.93,-366.41 261.56,-358.23 213.74,-324 183.9,-302.64 151.08,-276.48 128.54,-258.06"/>
<polygon fill="black" stroke="black" points="130.68,-255.29 120.72,-251.65 126.24,-260.7 130.68,-255.29"/>
</g>
<!-- :core:data -->
<g id="node4" class="node">
<title>:core:data</title>
<ellipse fill="none" stroke="black" cx="578.74" cy="-306" rx="57.39" ry="18"/>
<text text-anchor="middle" x="578.74" y="-302.3" font-family="Times,serif" font-size="14.00">:core:data</text>
</g>
<!-- :feature:auth&#45;&gt;:core:data -->
<g id="edge3" class="edge">
<title>:feature:auth&#45;&gt;:core:data</title>
<path fill="none" stroke="black" d="M483.85,-439.13C510.58,-431.65 540.66,-418.6 559.74,-396 574.19,-378.88 578.46,-353.44 579.4,-334.13"/>
<polygon fill="black" stroke="black" points="582.9,-334.2 579.62,-324.13 575.9,-334.05 582.9,-334.2"/>
</g>
<!-- :core:domain -->
<g id="node5" class="node">
<title>:core:domain</title>
<ellipse fill="none" stroke="black" cx="479.74" cy="-378" rx="70.69" ry="18"/>
<text text-anchor="middle" x="479.74" y="-374.3" font-family="Times,serif" font-size="14.00">:core:domain</text>
</g>
<!-- :feature:auth&#45;&gt;:core:domain -->
<g id="edge4" class="edge">
<title>:feature:auth&#45;&gt;:core:domain</title>
<path fill="none" stroke="red" stroke-width="2" d="M439.57,-432.05C445.95,-423.63 453.79,-413.28 460.84,-403.97"/>
<polygon fill="red" stroke="red" stroke-width="2" points="463.78,-405.87 467.03,-395.79 458.2,-401.65 463.78,-405.87"/>
</g>
<!-- :core:ui&#45;&gt;:core:designsystem -->
<g id="edge6" class="edge">
<title>:core:ui&#45;&gt;:core:designsystem</title>
<path fill="none" stroke="black" d="M237.5,-292.32C212.5,-281.85 176.58,-266.79 147.82,-254.73"/>
<polygon fill="black" stroke="black" points="148.94,-251.41 138.37,-250.77 146.24,-257.87 148.94,-251.41"/>
</g>
<!-- :core:analytics -->
<g id="node6" class="node">
<title>:core:analytics</title>
<ellipse fill="none" stroke="black" cx="373.74" cy="-234" rx="77.99" ry="18"/>
<text text-anchor="middle" x="373.74" y="-230.3" font-family="Times,serif" font-size="14.00">:core:analytics</text>
</g>
<!-- :core:ui&#45;&gt;:core:analytics -->
<g id="edge5" class="edge">
<title>:core:ui&#45;&gt;:core:analytics</title>
<path fill="none" stroke="black" d="M290.22,-290.15C304.78,-280.54 324.01,-267.84 340.34,-257.05"/>
<polygon fill="black" stroke="black" points="342.66,-259.72 349.07,-251.29 338.8,-253.88 342.66,-259.72"/>
</g>
<!-- :core:model -->
<g id="node7" class="node">
<title>:core:model</title>
<ellipse fill="none" stroke="black" cx="500.74" cy="-90" rx="64.99" ry="18"/>
<text text-anchor="middle" x="500.74" y="-86.3" font-family="Times,serif" font-size="14.00">:core:model</text>
</g>
<!-- :core:ui&#45;&gt;:core:model -->
<g id="edge7" class="edge">
<title>:core:ui&#45;&gt;:core:model</title>
<path fill="none" stroke="black" d="M267.43,-287.96C267.9,-268.74 271.28,-237.38 286.74,-216 326.81,-160.6 399.59,-125.82 449.03,-107.4"/>
<polygon fill="black" stroke="black" points="450.39,-110.63 458.6,-103.93 448,-104.05 450.39,-110.63"/>
</g>
<!-- :core:common -->
<g id="node8" class="node">
<title>:core:common</title>
<ellipse fill="none" stroke="black" cx="647.74" cy="-18" rx="75.29" ry="18"/>
<text text-anchor="middle" x="647.74" y="-14.3" font-family="Times,serif" font-size="14.00">:core:common</text>
</g>
<!-- :core:ui&#45;&gt;:core:common -->
<g id="edge8" class="edge">
<title>:core:ui&#45;&gt;:core:common</title>
<path fill="none" stroke="black" d="M265.01,-287.8C262.77,-269.51 261.08,-239.99 268.74,-216 280.59,-178.89 290.93,-171.29 318.74,-144 359.92,-103.6 373.87,-95.08 426.74,-72 474.04,-51.35 530.71,-37.96 574.81,-29.81"/>
<polygon fill="black" stroke="black" points="575.66,-33.21 584.88,-28 574.42,-26.32 575.66,-33.21"/>
</g>
<!-- :core:data&#45;&gt;:core:analytics -->
<g id="edge14" class="edge">
<title>:core:data&#45;&gt;:core:analytics</title>
<path fill="none" stroke="black" d="M541.14,-292.16C508.7,-281.09 461.54,-264.98 425.53,-252.68"/>
<polygon fill="black" stroke="black" points="426.29,-249.24 415.69,-249.33 424.03,-255.87 426.29,-249.24"/>
</g>
<!-- :core:data&#45;&gt;:core:model -->
<g id="edge12" class="edge">
<title>:core:data&#45;&gt;:core:model</title>
<path fill="none" stroke="black" d="M562.59,-288.67C553.71,-278.81 543.21,-265.56 536.74,-252 515.8,-208.1 506.8,-151.61 503.12,-118.54"/>
<polygon fill="black" stroke="black" points="506.56,-117.86 502.06,-108.27 499.6,-118.58 506.56,-117.86"/>
</g>
<!-- :core:data&#45;&gt;:core:common -->
<g id="edge10" class="edge">
<title>:core:data&#45;&gt;:core:common</title>
<path fill="none" stroke="black" d="M625.17,-295.23C679.38,-280.85 765.15,-247.97 792.74,-180 817.5,-119.01 740.66,-66.17 689.55,-38.84"/>
<polygon fill="black" stroke="black" points="691.13,-35.72 680.65,-34.2 687.89,-41.92 691.13,-35.72"/>
</g>
<!-- :core:datastore -->
<g id="node9" class="node">
<title>:core:datastore</title>
<ellipse fill="none" stroke="black" cx="702.74" cy="-162" rx="81.49" ry="18"/>
<text text-anchor="middle" x="702.74" y="-158.3" font-family="Times,serif" font-size="14.00">:core:datastore</text>
</g>
<!-- :core:data&#45;&gt;:core:datastore -->
<g id="edge11" class="edge">
<title>:core:data&#45;&gt;:core:datastore</title>
<path fill="none" stroke="black" d="M629.14,-297.48C656.43,-290.55 687.93,-277.3 704.74,-252 716.79,-233.86 714.97,-208.73 710.9,-189.79"/>
<polygon fill="black" stroke="black" points="714.27,-188.86 708.48,-180 707.48,-190.54 714.27,-188.86"/>
</g>
<!-- :core:network -->
<g id="node10" class="node">
<title>:core:network</title>
<ellipse fill="none" stroke="black" cx="620.74" cy="-234" rx="74.99" ry="18"/>
<text text-anchor="middle" x="620.74" y="-230.3" font-family="Times,serif" font-size="14.00">:core:network</text>
</g>
<!-- :core:data&#45;&gt;:core:network -->
<g id="edge13" class="edge">
<title>:core:data&#45;&gt;:core:network</title>
<path fill="none" stroke="red" stroke-width="2" d="M588.91,-288.05C593.79,-279.92 599.74,-270 605.18,-260.94"/>
<polygon fill="red" stroke="red" stroke-width="2" points="608.23,-262.65 610.38,-252.28 602.23,-259.05 608.23,-262.65"/>
</g>
<!-- :core:domain&#45;&gt;:core:data -->
<g id="edge21" class="edge">
<title>:core:domain&#45;&gt;:core:data</title>
<path fill="none" stroke="red" stroke-width="2" d="M502.7,-360.76C516.26,-351.18 533.6,-338.92 548.29,-328.53"/>
<polygon fill="red" stroke="red" stroke-width="2" points="550.44,-331.3 556.59,-322.67 546.4,-325.58 550.44,-331.3"/>
</g>
<!-- :core:domain&#45;&gt;:core:model -->
<g id="edge22" class="edge">
<title>:core:domain&#45;&gt;:core:model</title>
<path fill="none" stroke="black" d="M480.99,-359.97C484.49,-312.29 494.41,-177.18 498.71,-118.63"/>
<polygon fill="black" stroke="black" points="502.23,-118.54 499.47,-108.31 495.25,-118.02 502.23,-118.54"/>
</g>
<!-- :core:domain&#45;&gt;:core:common -->
<g id="edge20" class="edge">
<title>:core:domain&#45;&gt;:core:common</title>
<path fill="none" stroke="black" d="M537.15,-367.27C641.07,-348.02 849.74,-301.14 849.74,-235 849.74,-235 849.74,-235 849.74,-161 849.74,-91.36 768.39,-52.92 708.94,-34.13"/>
<polygon fill="black" stroke="black" points="709.82,-30.74 699.24,-31.17 707.78,-37.43 709.82,-30.74"/>
</g>
<!-- :core:model&#45;&gt;:core:common -->
<g id="edge9" class="edge">
<title>:core:model&#45;&gt;:core:common</title>
<path fill="none" stroke="red" stroke-width="2" d="M531.92,-74.15C553.64,-63.81 582.85,-49.9 606.5,-38.64"/>
<polygon fill="red" stroke="red" stroke-width="2" points="608.07,-41.77 615.59,-34.31 605.06,-35.45 608.07,-41.77"/>
</g>
<!-- :core:datastore&#45;&gt;:core:model -->
<g id="edge15" class="edge">
<title>:core:datastore&#45;&gt;:core:model</title>
<path fill="none" stroke="red" stroke-width="2" d="M660.89,-146.5C628.49,-135.27 583.56,-119.7 549.54,-107.91"/>
<polygon fill="red" stroke="red" stroke-width="2" points="550.4,-104.5 539.8,-104.54 548.1,-111.12 550.4,-104.5"/>
</g>
<!-- :core:datastore&#45;&gt;:core:common -->
<g id="edge16" class="edge">
<title>:core:datastore&#45;&gt;:core:common</title>
<path fill="none" stroke="black" d="M696.11,-143.87C686.65,-119.46 669.21,-74.43 658.06,-45.64"/>
<polygon fill="black" stroke="black" points="661.27,-44.25 654.4,-36.19 654.75,-46.78 661.27,-44.25"/>
</g>
<!-- :core:network&#45;&gt;:core:model -->
<g id="edge18" class="edge">
<title>:core:network&#45;&gt;:core:model</title>
<path fill="none" stroke="black" d="M606.5,-216.15C585.48,-191.28 546.01,-144.57 521.69,-115.79"/>
<polygon fill="black" stroke="black" points="524.09,-113.2 514.96,-107.82 518.74,-117.72 524.09,-113.2"/>
</g>
<!-- :core:network&#45;&gt;:core:common -->
<g id="edge17" class="edge">
<title>:core:network&#45;&gt;:core:common</title>
<path fill="none" stroke="black" d="M617.49,-215.89C615.7,-205.54 613.65,-192.06 612.74,-180 611.54,-164.04 610.56,-159.85 612.74,-144 617.51,-109.27 629.41,-70.59 638.01,-45.58"/>
<polygon fill="black" stroke="black" points="641.34,-46.67 641.35,-36.07 634.73,-44.35 641.34,-46.67"/>
</g>
<!-- :core:network&#45;&gt;:core:datastore -->
<g id="edge19" class="edge">
<title>:core:network&#45;&gt;:core:datastore</title>
<path fill="none" stroke="red" stroke-width="2" d="M640.17,-216.41C650.72,-207.41 663.92,-196.14 675.48,-186.27"/>
<polygon fill="red" stroke="red" stroke-width="2" points="677.83,-188.87 683.16,-179.71 673.29,-183.54 677.83,-188.87"/>
</g>
</g>
</svg>
