<?xml version="1.0" encoding="UTF-8" standalone="no"?>
<!DOCTYPE svg PUBLIC "-//W3C//DTD SVG 1.1//EN"
 "http://www.w3.org/Graphics/SVG/1.1/DTD/svg11.dtd">
<!-- Generated by graphviz version 2.43.0 (0)
 -->
<!-- Title: G Pages: 1 -->
<svg width="758pt" height="476pt"
 viewBox="0.00 0.00 757.62 476.00" xmlns="http://www.w3.org/2000/svg" xmlns:xlink="http://www.w3.org/1999/xlink">
<g id="graph0" class="graph" transform="scale(1 1) rotate(0) translate(4 472)">
<title>G</title>
<polygon fill="white" stroke="transparent" points="-4,4 -4,-472 753.62,-472 753.62,4 -4,4"/>
<!-- :feature:auth -->
<g id="node1" class="node">
<title>:feature:auth</title>
<ellipse fill="none" stroke="black" cx="304.62" cy="-450" rx="71.49" ry="18"/>
<text text-anchor="middle" x="304.62" y="-446.3" font-family="Times,serif" font-size="14.00">:feature:auth</text>
</g>
<!-- :core:ui -->
<g id="node2" class="node">
<title>:core:ui</title>
<ellipse fill="none" stroke="black" cx="126.62" cy="-306" rx="45.49" ry="18"/>
<text text-anchor="middle" x="126.62" y="-302.3" font-family="Times,serif" font-size="14.00">:core:ui</text>
</g>
<!-- :feature:auth&#45;&gt;:core:ui -->
<g id="edge1" class="edge">
<title>:feature:auth&#45;&gt;:core:ui</title>
<path fill="none" stroke="black" d="M270.2,-433.99C250.57,-424.57 226.07,-411.32 206.62,-396 182.73,-377.19 160.01,-350.8 144.93,-331.64"/>
<polygon fill="black" stroke="black" points="147.64,-329.43 138.76,-323.66 142.11,-333.71 147.64,-329.43"/>
</g>
<!-- :core:designsystem -->
<g id="node3" class="node">
<title>:core:designsystem</title>
<ellipse fill="none" stroke="black" cx="126.62" cy="-234" rx="100.98" ry="18"/>
<text text-anchor="middle" x="126.62" y="-230.3" font-family="Times,serif" font-size="14.00">:core:designsystem</text>
</g>
<!-- :feature:auth&#45;&gt;:core:designsystem -->
<g id="edge2" class="edge">
<title>:feature:auth&#45;&gt;:core:designsystem</title>
<path fill="none" stroke="black" d="M292.67,-431.94C271.36,-401.87 224.86,-337.89 180.62,-288 171.9,-278.17 161.75,-267.94 152.62,-259.11"/>
<polygon fill="black" stroke="black" points="154.9,-256.44 145.25,-252.07 150.06,-261.5 154.9,-256.44"/>
</g>
<!-- :core:data -->
<g id="node4" class="node">
<title>:core:data</title>
<ellipse fill="none" stroke="black" cx="467.62" cy="-306" rx="57.39" ry="18"/>
<text text-anchor="middle" x="467.62" y="-302.3" font-family="Times,serif" font-size="14.00">:core:data</text>
</g>
<!-- :feature:auth&#45;&gt;:core:data -->
<g id="edge3" class="edge">
<title>:feature:auth&#45;&gt;:core:data</title>
<path fill="none" stroke="black" d="M323.63,-432.43C352.66,-407.14 408.13,-358.82 441.1,-330.1"/>
<polygon fill="black" stroke="black" points="443.73,-332.45 448.97,-323.24 439.13,-327.17 443.73,-332.45"/>
</g>
<!-- :core:domain -->
<g id="node5" class="node">
<title>:core:domain</title>
<ellipse fill="none" stroke="black" cx="537.62" cy="-378" rx="70.69" ry="18"/>
<text text-anchor="middle" x="537.62" y="-374.3" font-family="Times,serif" font-size="14.00">:core:domain</text>
</g>
<!-- :feature:auth&#45;&gt;:core:domain -->
<g id="edge4" class="edge">
<title>:feature:auth&#45;&gt;:core:domain</title>
<path fill="none" stroke="red" stroke-width="2" d="M348.72,-435.75C387.11,-424.22 442.88,-407.46 483.88,-395.15"/>
<polygon fill="red" stroke="red" stroke-width="2" points="485.13,-398.42 493.7,-392.19 483.11,-391.72 485.13,-398.42"/>
</g>
<!-- :core:ui&#45;&gt;:core:designsystem -->
<g id="edge6" class="edge">
<title>:core:ui&#45;&gt;:core:designsystem</title>
<path fill="none" stroke="black" d="M126.62,-287.7C126.62,-279.98 126.62,-270.71 126.62,-262.11"/>
<polygon fill="black" stroke="black" points="130.12,-262.1 126.62,-252.1 123.12,-262.1 130.12,-262.1"/>
</g>
<!-- :core:analytics -->
<g id="node6" class="node">
<title>:core:analytics</title>
<ellipse fill="none" stroke="black" cx="323.62" cy="-234" rx="77.99" ry="18"/>
<text text-anchor="middle" x="323.62" y="-230.3" font-family="Times,serif" font-size="14.00">:core:analytics</text>
</g>
<!-- :core:ui&#45;&gt;:core:analytics -->
<g id="edge5" class="edge">
<title>:core:ui&#45;&gt;:core:analytics</title>
<path fill="none" stroke="black" d="M159.59,-293.28C190.63,-282.26 237.55,-265.58 273.27,-252.89"/>
<polygon fill="black" stroke="black" points="274.77,-256.07 283.02,-249.42 272.43,-249.47 274.77,-256.07"/>
</g>
<!-- :core:model -->
<g id="node7" class="node">
<title>:core:model</title>
<ellipse fill="none" stroke="black" cx="433.62" cy="-90" rx="64.99" ry="18"/>
<text text-anchor="middle" x="433.62" y="-86.3" font-family="Times,serif" font-size="14.00">:core:model</text>
</g>
<!-- :core:ui&#45;&gt;:core:model -->
<g id="edge7" class="edge">
<title>:core:ui&#45;&gt;:core:model</title>
<path fill="none" stroke="black" d="M86.87,-297.07C62.04,-289.84 31.95,-276.41 16.62,-252 8.1,-238.45 7.06,-228.84 16.62,-216 58.74,-159.39 261.27,-118.86 367.79,-101.07"/>
<polygon fill="black" stroke="black" points="368.5,-104.5 377.79,-99.42 367.36,-97.6 368.5,-104.5"/>
</g>
<!-- :core:common -->
<g id="node8" class="node">
<title>:core:common</title>
<ellipse fill="none" stroke="black" cx="479.62" cy="-18" rx="75.29" ry="18"/>
<text text-anchor="middle" x="479.62" y="-14.3" font-family="Times,serif" font-size="14.00">:core:common</text>
</g>
<!-- :core:ui&#45;&gt;:core:common -->
<g id="edge8" class="edge">
<title>:core:ui&#45;&gt;:core:common</title>
<path fill="none" stroke="black" d="M85.16,-298.53C57.79,-291.87 23.9,-278.52 6.62,-252 -2.12,-238.59 -2.25,-229.32 6.62,-216 94.43,-84.04 289.16,-40.34 399.42,-25.96"/>
<polygon fill="black" stroke="black" points="400.01,-29.42 409.49,-24.7 399.14,-22.47 400.01,-29.42"/>
</g>
<!-- :core:designsystem&#45;&gt;:core:model -->
<g id="edge9" class="edge">
<title>:core:designsystem&#45;&gt;:core:model</title>
<path fill="none" stroke="black" d="M198.38,-221.35C255.25,-211.21 329.35,-195.72 355.62,-180 381.88,-164.28 403.98,-136.72 417.88,-116.43"/>
<polygon fill="black" stroke="black" points="420.89,-118.22 423.5,-107.95 415.06,-114.35 420.89,-118.22"/>
</g>
<!-- :core:data&#45;&gt;:core:analytics -->
<g id="edge15" class="edge">
<title>:core:data&#45;&gt;:core:analytics</title>
<path fill="none" stroke="black" d="M437.78,-290.5C416.64,-280.22 388.01,-266.3 364.71,-254.97"/>
<polygon fill="black" stroke="black" points="365.94,-251.68 355.41,-250.46 362.88,-257.98 365.94,-251.68"/>
</g>
<!-- :core:data&#45;&gt;:core:model -->
<g id="edge13" class="edge">
<title>:core:data&#45;&gt;:core:model</title>
<path fill="none" stroke="black" d="M462.83,-287.63C454.87,-258.47 439.52,-200.82 436.62,-180 433.75,-159.46 433.07,-136 433.06,-118.33"/>
<polygon fill="black" stroke="black" points="436.56,-118.18 433.13,-108.15 429.56,-118.13 436.56,-118.18"/>
</g>
<!-- :core:data&#45;&gt;:core:common -->
<g id="edge11" class="edge">
<title>:core:data&#45;&gt;:core:common</title>
<path fill="none" stroke="black" d="M456.91,-288.1C431.59,-247.75 369.44,-146.35 359.62,-108 355.65,-92.5 350.88,-85.41 359.62,-72 371.85,-53.22 392.42,-41.04 413.1,-33.17"/>
<polygon fill="black" stroke="black" points="414.3,-36.46 422.58,-29.85 411.99,-29.85 414.3,-36.46"/>
</g>
<!-- :core:datastore -->
<g id="node9" class="node">
<title>:core:datastore</title>
<ellipse fill="none" stroke="black" cx="526.62" cy="-162" rx="81.49" ry="18"/>
<text text-anchor="middle" x="526.62" y="-158.3" font-family="Times,serif" font-size="14.00">:core:datastore</text>
</g>
<!-- :core:data&#45;&gt;:core:datastore -->
<g id="edge12" class="edge">
<title>:core:data&#45;&gt;:core:datastore</title>
<path fill="none" stroke="black" d="M474.73,-287.87C484.88,-263.46 503.59,-218.43 515.55,-189.64"/>
<polygon fill="black" stroke="black" points="518.87,-190.77 519.47,-180.19 512.4,-188.08 518.87,-190.77"/>
</g>
<!-- :core:network -->
<g id="node10" class="node">
<title>:core:network</title>
<ellipse fill="none" stroke="black" cx="608.62" cy="-234" rx="74.99" ry="18"/>
<text text-anchor="middle" x="608.62" y="-230.3" font-family="Times,serif" font-size="14.00">:core:network</text>
</g>
<!-- :core:data&#45;&gt;:core:network -->
<g id="edge14" class="edge">
<title>:core:data&#45;&gt;:core:network</title>
<path fill="none" stroke="red" stroke-width="2" d="M496.83,-290.5C517.53,-280.22 545.57,-266.3 568.38,-254.97"/>
<polygon fill="red" stroke="red" stroke-width="2" points="570.08,-258.04 577.48,-250.46 566.97,-251.77 570.08,-258.04"/>
</g>
<!-- :core:domain&#45;&gt;:core:data -->
<g id="edge22" class="edge">
<title>:core:domain&#45;&gt;:core:data</title>
<path fill="none" stroke="red" stroke-width="2" d="M521.03,-360.41C512.13,-351.52 501.03,-340.41 491.25,-330.63"/>
<polygon fill="red" stroke="red" stroke-width="2" points="493.63,-328.07 484.09,-323.47 488.68,-333.02 493.63,-328.07"/>
</g>
<!-- :core:domain&#45;&gt;:core:model -->
<g id="edge23" class="edge">
<title>:core:domain&#45;&gt;:core:model</title>
<path fill="none" stroke="black" d="M572.71,-362.14C625.41,-337.34 716.42,-283.51 692.62,-216 678.95,-177.25 669.09,-166.36 634.62,-144 595.53,-118.66 544.77,-105.4 504.04,-98.48"/>
<polygon fill="black" stroke="black" points="504.34,-94.98 493.91,-96.85 503.23,-101.89 504.34,-94.98"/>
</g>
<!-- :core:domain&#45;&gt;:core:common -->
<g id="edge21" class="edge">
<title>:core:domain&#45;&gt;:core:common</title>
<path fill="none" stroke="black" d="M590.57,-365.92C653.36,-349.32 749.62,-311.42 749.62,-235 749.62,-235 749.62,-235 749.62,-161 749.62,-73.89 638.18,-40.1 558.49,-27.07"/>
<polygon fill="black" stroke="black" points="558.87,-23.59 548.45,-25.51 557.79,-30.51 558.87,-23.59"/>
</g>
<!-- :core:model&#45;&gt;:core:common -->
<g id="edge10" class="edge">
<title>:core:model&#45;&gt;:core:common</title>
<path fill="none" stroke="red" stroke-width="2" d="M444.75,-72.05C450.15,-63.84 456.75,-53.79 462.75,-44.66"/>
<polygon fill="red" stroke="red" stroke-width="2" points="465.7,-46.55 468.26,-36.28 459.85,-42.71 465.7,-46.55"/>
</g>
<!-- :core:datastore&#45;&gt;:core:model -->
<g id="edge16" class="edge">
<title>:core:datastore&#45;&gt;:core:model</title>
<path fill="none" stroke="red" stroke-width="2" d="M504.58,-144.41C492.21,-135.1 476.62,-123.37 463.2,-113.27"/>
<polygon fill="red" stroke="red" stroke-width="2" points="465.27,-110.45 455.18,-107.23 461.06,-116.04 465.27,-110.45"/>
</g>
<!-- :core:datastore&#45;&gt;:core:common -->
<g id="edge17" class="edge">
<title>:core:datastore&#45;&gt;:core:common</title>
<path fill="none" stroke="black" d="M524.39,-143.88C521.7,-125.67 516.4,-96.21 507.62,-72 504.31,-62.9 499.72,-53.42 495.2,-45.03"/>
<polygon fill="black" stroke="black" points="498.14,-43.13 490.21,-36.11 492.03,-46.55 498.14,-43.13"/>
</g>
<!-- :core:network&#45;&gt;:core:model -->
<g id="edge19" class="edge">
<title>:core:network&#45;&gt;:core:model</title>
<path fill="none" stroke="black" d="M616.35,-216.07C623.93,-196.65 632.27,-164.84 616.62,-144 602.22,-124.85 545.52,-110.4 498.99,-101.46"/>
<polygon fill="black" stroke="black" points="499.41,-97.98 488.94,-99.59 498.13,-104.86 499.41,-97.98"/>
</g>
<!-- :core:network&#45;&gt;:core:common -->
<g id="edge18" class="edge">
<title>:core:network&#45;&gt;:core:common</title>
<path fill="none" stroke="black" d="M620.69,-216.01C632.13,-197.64 646,-167.82 634.62,-144 611.38,-95.41 559.02,-59.67 521.59,-39.13"/>
<polygon fill="black" stroke="black" points="522.89,-35.86 512.42,-34.24 519.59,-42.03 522.89,-35.86"/>
</g>
<!-- :core:network&#45;&gt;:core:datastore -->
<g id="edge20" class="edge">
<title>:core:network&#45;&gt;:core:datastore</title>
<path fill="none" stroke="red" stroke-width="2" d="M589.18,-216.41C578.64,-207.41 565.44,-196.14 553.88,-186.27"/>
<polygon fill="red" stroke="red" stroke-width="2" points="556.07,-183.54 546.19,-179.71 551.53,-188.87 556.07,-183.54"/>
</g>
</g>
</svg>
