<?xml version="1.0" encoding="UTF-8" standalone="no"?>
<!DOCTYPE svg PUBLIC "-//W3C//DTD SVG 1.1//EN"
 "http://www.w3.org/Graphics/SVG/1.1/DTD/svg11.dtd">
<!-- Generated by graphviz version 2.43.0 (0)
 -->
<!-- Title: G Pages: 1 -->
<svg width="534pt" height="404pt"
 viewBox="0.00 0.00 534.04 404.00" xmlns="http://www.w3.org/2000/svg" xmlns:xlink="http://www.w3.org/1999/xlink">
<g id="graph0" class="graph" transform="scale(1 1) rotate(0) translate(4 400)">
<title>G</title>
<polygon fill="white" stroke="transparent" points="-4,4 -4,-400 530.04,-400 530.04,4 -4,4"/>
<!-- :core:domain -->
<g id="node1" class="node">
<title>:core:domain</title>
<ellipse fill="none" stroke="black" cx="70.84" cy="-378" rx="70.69" ry="18"/>
<text text-anchor="middle" x="70.84" y="-374.3" font-family="Times,serif" font-size="14.00">:core:domain</text>
</g>
<!-- :core:common -->
<g id="node2" class="node">
<title>:core:common</title>
<ellipse fill="none" stroke="black" cx="225.84" cy="-18" rx="75.29" ry="18"/>
<text text-anchor="middle" x="225.84" y="-14.3" font-family="Times,serif" font-size="14.00">:core:common</text>
</g>
<!-- :core:domain&#45;&gt;:core:common -->
<g id="edge1" class="edge">
<title>:core:domain&#45;&gt;:core:common</title>
<path fill="none" stroke="black" d="M63.15,-359.91C52.05,-333.62 32.84,-281.45 32.84,-235 32.84,-235 32.84,-235 32.84,-161 32.84,-119.79 30.04,-101.47 58.84,-72 82.15,-48.15 116.12,-35.01 147.35,-27.77"/>
<polygon fill="black" stroke="black" points="148.33,-31.14 157.38,-25.63 146.87,-24.3 148.33,-31.14"/>
</g>
<!-- :core:data -->
<g id="node3" class="node">
<title>:core:data</title>
<ellipse fill="none" stroke="black" cx="203.84" cy="-306" rx="57.39" ry="18"/>
<text text-anchor="middle" x="203.84" y="-302.3" font-family="Times,serif" font-size="14.00">:core:data</text>
</g>
<!-- :core:domain&#45;&gt;:core:data -->
<g id="edge2" class="edge">
<title>:core:domain&#45;&gt;:core:data</title>
<path fill="none" stroke="red" stroke-width="2" d="M100.36,-361.46C119.96,-351.15 145.84,-337.53 166.82,-326.49"/>
<polygon fill="red" stroke="red" stroke-width="2" points="168.56,-329.53 175.77,-321.77 165.3,-323.33 168.56,-329.53"/>
</g>
<!-- :core:model -->
<g id="node4" class="node">
<title>:core:model</title>
<ellipse fill="none" stroke="black" cx="132.84" cy="-90" rx="64.99" ry="18"/>
<text text-anchor="middle" x="132.84" y="-86.3" font-family="Times,serif" font-size="14.00">:core:model</text>
</g>
<!-- :core:domain&#45;&gt;:core:model -->
<g id="edge3" class="edge">
<title>:core:domain&#45;&gt;:core:model</title>
<path fill="none" stroke="black" d="M74.54,-359.97C84.89,-312.19 114.28,-176.62 126.93,-118.27"/>
<polygon fill="black" stroke="black" points="130.39,-118.82 129.09,-108.31 123.55,-117.34 130.39,-118.82"/>
</g>
<!-- :core:data&#45;&gt;:core:common -->
<g id="edge4" class="edge">
<title>:core:data&#45;&gt;:core:common</title>
<path fill="none" stroke="black" d="M260.77,-303.49C339.89,-300.05 476.9,-288.8 507.84,-252 587.72,-156.99 381.26,-71.25 279.12,-36"/>
<polygon fill="black" stroke="black" points="280.17,-32.66 269.58,-32.74 277.91,-39.28 280.17,-32.66"/>
</g>
<!-- :core:data&#45;&gt;:core:model -->
<g id="edge6" class="edge">
<title>:core:data&#45;&gt;:core:model</title>
<path fill="none" stroke="black" d="M186.05,-288.83C176.2,-279.03 164.45,-265.78 156.84,-252 133.42,-209.59 130.61,-151.77 131.3,-118.21"/>
<polygon fill="black" stroke="black" points="134.8,-118.32 131.63,-108.21 127.8,-118.09 134.8,-118.32"/>
</g>
<!-- :core:datastore -->
<g id="node5" class="node">
<title>:core:datastore</title>
<ellipse fill="none" stroke="black" cx="225.84" cy="-162" rx="81.49" ry="18"/>
<text text-anchor="middle" x="225.84" y="-158.3" font-family="Times,serif" font-size="14.00">:core:datastore</text>
</g>
<!-- :core:data&#45;&gt;:core:datastore -->
<g id="edge5" class="edge">
<title>:core:data&#45;&gt;:core:datastore</title>
<path fill="none" stroke="black" d="M187.78,-288.39C179.48,-278.63 170.21,-265.58 165.84,-252 160.95,-236.77 159.27,-230.59 165.84,-216 171.25,-204 180.87,-193.63 190.84,-185.32"/>
<polygon fill="black" stroke="black" points="193.09,-188.01 198.84,-179.11 188.8,-182.48 193.09,-188.01"/>
</g>
<!-- :core:network -->
<g id="node6" class="node">
<title>:core:network</title>
<ellipse fill="none" stroke="black" cx="423.84" cy="-234" rx="74.99" ry="18"/>
<text text-anchor="middle" x="423.84" y="-230.3" font-family="Times,serif" font-size="14.00">:core:network</text>
</g>
<!-- :core:data&#45;&gt;:core:network -->
<g id="edge7" class="edge">
<title>:core:data&#45;&gt;:core:network</title>
<path fill="none" stroke="red" stroke-width="2" d="M242.67,-292.65C278.26,-281.32 331.28,-264.45 370.78,-251.88"/>
<polygon fill="red" stroke="red" stroke-width="2" points="372.04,-255.16 380.51,-248.79 369.92,-248.49 372.04,-255.16"/>
</g>
<!-- :core:analytics -->
<g id="node7" class="node">
<title>:core:analytics</title>
<ellipse fill="none" stroke="black" cx="252.84" cy="-234" rx="77.99" ry="18"/>
<text text-anchor="middle" x="252.84" y="-230.3" font-family="Times,serif" font-size="14.00">:core:analytics</text>
</g>
<!-- :core:data&#45;&gt;:core:analytics -->
<g id="edge8" class="edge">
<title>:core:data&#45;&gt;:core:analytics</title>
<path fill="none" stroke="black" d="M215.71,-288.05C221.46,-279.84 228.49,-269.79 234.88,-260.66"/>
<polygon fill="black" stroke="black" points="237.88,-262.47 240.75,-252.28 232.15,-258.46 237.88,-262.47"/>
</g>
<!-- :core:model&#45;&gt;:core:common -->
<g id="edge11" class="edge">
<title>:core:model&#45;&gt;:core:common</title>
<path fill="none" stroke="red" stroke-width="2" d="M154.41,-72.76C166.77,-63.47 182.45,-51.66 195.98,-41.48"/>
<polygon fill="red" stroke="red" stroke-width="2" points="198.18,-44.2 204.07,-35.39 193.97,-38.61 198.18,-44.2"/>
</g>
<!-- :core:datastore&#45;&gt;:core:common -->
<g id="edge10" class="edge">
<title>:core:datastore&#45;&gt;:core:common</title>
<path fill="none" stroke="black" d="M225.84,-143.87C225.84,-119.67 225.84,-75.21 225.84,-46.39"/>
<polygon fill="black" stroke="black" points="229.34,-46.19 225.84,-36.19 222.34,-46.19 229.34,-46.19"/>
</g>
<!-- :core:datastore&#45;&gt;:core:model -->
<g id="edge9" class="edge">
<title>:core:datastore&#45;&gt;:core:model</title>
<path fill="none" stroke="red" stroke-width="2" d="M203.8,-144.41C191.44,-135.1 175.85,-123.37 162.43,-113.27"/>
<polygon fill="red" stroke="red" stroke-width="2" points="164.5,-110.45 154.4,-107.23 160.29,-116.04 164.5,-110.45"/>
</g>
<!-- :core:network&#45;&gt;:core:common -->
<g id="edge12" class="edge">
<title>:core:network&#45;&gt;:core:common</title>
<path fill="none" stroke="black" d="M411.8,-216.03C398.54,-197.69 376.23,-167.89 354.84,-144 321.33,-106.57 278.91,-66.75 252.07,-42.37"/>
<polygon fill="black" stroke="black" points="254.36,-39.73 244.6,-35.62 249.67,-44.92 254.36,-39.73"/>
</g>
<!-- :core:network&#45;&gt;:core:model -->
<g id="edge13" class="edge">
<title>:core:network&#45;&gt;:core:model</title>
<path fill="none" stroke="black" d="M407.84,-216.14C388.01,-196.2 352.37,-163.28 315.84,-144 278.41,-124.24 232.67,-111 196.29,-102.69"/>
<polygon fill="black" stroke="black" points="196.81,-99.22 186.29,-100.47 195.29,-106.05 196.81,-99.22"/>
</g>
<!-- :core:network&#45;&gt;:core:datastore -->
<g id="edge14" class="edge">
<title>:core:network&#45;&gt;:core:datastore</title>
<path fill="none" stroke="red" stroke-width="2" d="M383.3,-218.67C352.41,-207.74 309.68,-192.64 276.53,-180.92"/>
<polygon fill="red" stroke="red" stroke-width="2" points="277.61,-177.59 267.02,-177.56 275.28,-184.19 277.61,-177.59"/>
</g>
</g>
</svg>
