<?xml version="1.0" encoding="UTF-8" standalone="no"?>
<!DOCTYPE svg PUBLIC "-//W3C//DTD SVG 1.1//EN"
 "http://www.w3.org/Graphics/SVG/1.1/DTD/svg11.dtd">
<!-- Generated by graphviz version 2.43.0 (0)
 -->
<!-- Title: G Pages: 1 -->
<svg width="200pt" height="188pt"
 viewBox="0.00 0.00 200.24 188.00" xmlns="http://www.w3.org/2000/svg" xmlns:xlink="http://www.w3.org/1999/xlink">
<g id="graph0" class="graph" transform="scale(1 1) rotate(0) translate(4 184)">
<title>G</title>
<polygon fill="white" stroke="transparent" points="-4,4 -4,-184 196.24,-184 196.24,4 -4,4"/>
<!-- :core:datastore -->
<g id="node1" class="node">
<title>:core:datastore</title>
<ellipse fill="none" stroke="black" cx="110.99" cy="-162" rx="81.49" ry="18"/>
<text text-anchor="middle" x="110.99" y="-158.3" font-family="Times,serif" font-size="14.00">:core:datastore</text>
</g>
<!-- :core:model -->
<g id="node2" class="node">
<title>:core:model</title>
<ellipse fill="none" stroke="black" cx="64.99" cy="-90" rx="64.99" ry="18"/>
<text text-anchor="middle" x="64.99" y="-86.3" font-family="Times,serif" font-size="14.00">:core:model</text>
</g>
<!-- :core:datastore&#45;&gt;:core:model -->
<g id="edge1" class="edge">
<title>:core:datastore&#45;&gt;:core:model</title>
<path fill="none" stroke="red" stroke-width="2" d="M99.86,-144.05C94.38,-135.71 87.66,-125.49 81.59,-116.25"/>
<polygon fill="red" stroke="red" stroke-width="2" points="84.44,-114.22 76.03,-107.79 78.59,-118.07 84.44,-114.22"/>
</g>
<!-- :core:common -->
<g id="node3" class="node">
<title>:core:common</title>
<ellipse fill="none" stroke="black" cx="110.99" cy="-18" rx="75.29" ry="18"/>
<text text-anchor="middle" x="110.99" y="-14.3" font-family="Times,serif" font-size="14.00">:core:common</text>
</g>
<!-- :core:datastore&#45;&gt;:core:common -->
<g id="edge2" class="edge">
<title>:core:datastore&#45;&gt;:core:common</title>
<path fill="none" stroke="black" d="M122.88,-143.72C129.01,-133.76 135.84,-120.73 138.99,-108 142.84,-92.47 142.84,-87.53 138.99,-72 136.67,-62.61 132.33,-53.04 127.76,-44.67"/>
<polygon fill="black" stroke="black" points="130.65,-42.68 122.59,-35.8 124.6,-46.21 130.65,-42.68"/>
</g>
<!-- :core:model&#45;&gt;:core:common -->
<g id="edge3" class="edge">
<title>:core:model&#45;&gt;:core:common</title>
<path fill="none" stroke="red" stroke-width="2" d="M76.13,-72.05C81.53,-63.84 88.13,-53.79 94.13,-44.66"/>
<polygon fill="red" stroke="red" stroke-width="2" points="97.08,-46.55 99.64,-36.28 91.23,-42.71 97.08,-46.55"/>
</g>
</g>
</svg>
