<?xml version="1.0" encoding="UTF-8" standalone="no"?>
<!DOCTYPE svg PUBLIC "-//W3C//DTD SVG 1.1//EN"
 "http://www.w3.org/Graphics/SVG/1.1/DTD/svg11.dtd">
<!-- Generated by graphviz version 2.43.0 (0)
 -->
<!-- Title: G Pages: 1 -->
<svg width="798pt" height="404pt"
 viewBox="0.00 0.00 798.48 404.00" xmlns="http://www.w3.org/2000/svg" xmlns:xlink="http://www.w3.org/1999/xlink">
<g id="graph0" class="graph" transform="scale(1 1) rotate(0) translate(4 400)">
<title>G</title>
<polygon fill="white" stroke="transparent" points="-4,4 -4,-400 794.48,-400 794.48,4 -4,4"/>
<!-- :feature:send&#45;money -->
<g id="node1" class="node">
<title>:feature:send&#45;money</title>
<ellipse fill="none" stroke="black" cx="248.74" cy="-378" rx="105.88" ry="18"/>
<text text-anchor="middle" x="248.74" y="-374.3" font-family="Times,serif" font-size="14.00">:feature:send&#45;money</text>
</g>
<!-- :core:ui -->
<g id="node2" class="node">
<title>:core:ui</title>
<ellipse fill="none" stroke="black" cx="248.74" cy="-306" rx="45.49" ry="18"/>
<text text-anchor="middle" x="248.74" y="-302.3" font-family="Times,serif" font-size="14.00">:core:ui</text>
</g>
<!-- :feature:send&#45;money&#45;&gt;:core:ui -->
<g id="edge1" class="edge">
<title>:feature:send&#45;money&#45;&gt;:core:ui</title>
<path fill="none" stroke="black" d="M248.74,-359.7C248.74,-351.98 248.74,-342.71 248.74,-334.11"/>
<polygon fill="black" stroke="black" points="252.24,-334.1 248.74,-324.1 245.24,-334.1 252.24,-334.1"/>
</g>
<!-- :core:designsystem -->
<g id="node3" class="node">
<title>:core:designsystem</title>
<ellipse fill="none" stroke="black" cx="100.74" cy="-234" rx="100.98" ry="18"/>
<text text-anchor="middle" x="100.74" y="-230.3" font-family="Times,serif" font-size="14.00">:core:designsystem</text>
</g>
<!-- :feature:send&#45;money&#45;&gt;:core:designsystem -->
<g id="edge2" class="edge">
<title>:feature:send&#45;money&#45;&gt;:core:designsystem</title>
<path fill="none" stroke="black" d="M231.18,-360.15C205.03,-335.07 155.74,-287.77 125.81,-259.05"/>
<polygon fill="black" stroke="black" points="127.92,-256.22 118.28,-251.82 123.07,-261.27 127.92,-256.22"/>
</g>
<!-- :core:data -->
<g id="node4" class="node">
<title>:core:data</title>
<ellipse fill="none" stroke="black" cx="498.74" cy="-306" rx="57.39" ry="18"/>
<text text-anchor="middle" x="498.74" y="-302.3" font-family="Times,serif" font-size="14.00">:core:data</text>
</g>
<!-- :feature:send&#45;money&#45;&gt;:core:data -->
<g id="edge3" class="edge">
<title>:feature:send&#45;money&#45;&gt;:core:data</title>
<path fill="none" stroke="red" stroke-width="2" d="M301.15,-362.33C344.32,-350.24 405.17,-333.2 447.9,-321.23"/>
<polygon fill="red" stroke="red" stroke-width="2" points="448.86,-324.6 457.54,-318.54 446.97,-317.86 448.86,-324.6"/>
</g>
<!-- :core:ui&#45;&gt;:core:designsystem -->
<g id="edge5" class="edge">
<title>:core:ui&#45;&gt;:core:designsystem</title>
<path fill="none" stroke="black" d="M220.56,-291.67C198.84,-281.4 168.45,-267.02 143.71,-255.32"/>
<polygon fill="black" stroke="black" points="145.07,-252.09 134.53,-250.98 142.07,-258.42 145.07,-252.09"/>
</g>
<!-- :core:analytics -->
<g id="node5" class="node">
<title>:core:analytics</title>
<ellipse fill="none" stroke="black" cx="373.74" cy="-234" rx="77.99" ry="18"/>
<text text-anchor="middle" x="373.74" y="-230.3" font-family="Times,serif" font-size="14.00">:core:analytics</text>
</g>
<!-- :core:ui&#45;&gt;:core:analytics -->
<g id="edge4" class="edge">
<title>:core:ui&#45;&gt;:core:analytics</title>
<path fill="none" stroke="black" d="M274.04,-290.83C291.98,-280.79 316.35,-267.14 336.5,-255.85"/>
<polygon fill="black" stroke="black" points="338.42,-258.79 345.43,-250.85 335,-252.69 338.42,-258.79"/>
</g>
<!-- :core:model -->
<g id="node6" class="node">
<title>:core:model</title>
<ellipse fill="none" stroke="black" cx="572.74" cy="-90" rx="64.99" ry="18"/>
<text text-anchor="middle" x="572.74" y="-86.3" font-family="Times,serif" font-size="14.00">:core:model</text>
</g>
<!-- :core:ui&#45;&gt;:core:model -->
<g id="edge6" class="edge">
<title>:core:ui&#45;&gt;:core:model</title>
<path fill="none" stroke="black" d="M252.08,-287.79C256.71,-268.11 266.87,-236.04 286.74,-216 348.94,-153.27 447.91,-119.74 511.59,-103.66"/>
<polygon fill="black" stroke="black" points="512.62,-107.01 521.49,-101.23 510.95,-100.22 512.62,-107.01"/>
</g>
<!-- :core:common -->
<g id="node7" class="node">
<title>:core:common</title>
<ellipse fill="none" stroke="black" cx="572.74" cy="-18" rx="75.29" ry="18"/>
<text text-anchor="middle" x="572.74" y="-14.3" font-family="Times,serif" font-size="14.00">:core:common</text>
</g>
<!-- :core:ui&#45;&gt;:core:common -->
<g id="edge7" class="edge">
<title>:core:ui&#45;&gt;:core:common</title>
<path fill="none" stroke="black" d="M247.74,-287.71C247.35,-269.1 248.78,-239.06 259.74,-216 278.76,-175.97 293.19,-170.47 328.74,-144 391.5,-97.27 474.28,-59 525.49,-37.61"/>
<polygon fill="black" stroke="black" points="527.08,-40.74 534.98,-33.68 524.4,-34.27 527.08,-40.74"/>
</g>
<!-- :core:designsystem&#45;&gt;:core:model -->
<g id="edge8" class="edge">
<title>:core:designsystem&#45;&gt;:core:model</title>
<path fill="none" stroke="black" d="M123.29,-216.33C152.04,-195.93 204.01,-161.91 253.74,-144 334.96,-114.74 433.71,-101.51 499.62,-95.61"/>
<polygon fill="black" stroke="black" points="500.24,-99.07 509.91,-94.72 499.64,-92.09 500.24,-99.07"/>
</g>
<!-- :core:data&#45;&gt;:core:analytics -->
<g id="edge14" class="edge">
<title>:core:data&#45;&gt;:core:analytics</title>
<path fill="none" stroke="black" d="M471.93,-289.98C454.21,-280.06 430.75,-266.93 411.21,-255.98"/>
<polygon fill="black" stroke="black" points="412.69,-252.8 402.25,-250.97 409.27,-258.91 412.69,-252.8"/>
</g>
<!-- :core:data&#45;&gt;:core:model -->
<g id="edge12" class="edge">
<title>:core:data&#45;&gt;:core:model</title>
<path fill="none" stroke="black" d="M500.7,-287.9C504.59,-257.76 514.89,-193.69 536.74,-144 540.99,-134.33 547.05,-124.53 552.98,-116.04"/>
<polygon fill="black" stroke="black" points="555.98,-117.87 559.04,-107.72 550.32,-113.75 555.98,-117.87"/>
</g>
<!-- :core:data&#45;&gt;:core:common -->
<g id="edge10" class="edge">
<title>:core:data&#45;&gt;:core:common</title>
<path fill="none" stroke="black" d="M493.76,-287.97C482.99,-247.73 461.4,-144.68 498.74,-72 505.67,-58.52 517.78,-47.71 530.23,-39.45"/>
<polygon fill="black" stroke="black" points="532.17,-42.37 538.84,-34.14 528.49,-36.41 532.17,-42.37"/>
</g>
<!-- :core:datastore -->
<g id="node8" class="node">
<title>:core:datastore</title>
<ellipse fill="none" stroke="black" cx="626.74" cy="-162" rx="81.49" ry="18"/>
<text text-anchor="middle" x="626.74" y="-158.3" font-family="Times,serif" font-size="14.00">:core:datastore</text>
</g>
<!-- :core:data&#45;&gt;:core:datastore -->
<g id="edge11" class="edge">
<title>:core:data&#45;&gt;:core:datastore</title>
<path fill="none" stroke="black" d="M513.67,-288.43C536.1,-263.56 578.61,-216.4 604.63,-187.53"/>
<polygon fill="black" stroke="black" points="607.41,-189.67 611.51,-179.9 602.21,-184.99 607.41,-189.67"/>
</g>
<!-- :core:network -->
<g id="node9" class="node">
<title>:core:network</title>
<ellipse fill="none" stroke="black" cx="715.74" cy="-234" rx="74.99" ry="18"/>
<text text-anchor="middle" x="715.74" y="-230.3" font-family="Times,serif" font-size="14.00">:core:network</text>
</g>
<!-- :core:data&#45;&gt;:core:network -->
<g id="edge13" class="edge">
<title>:core:data&#45;&gt;:core:network</title>
<path fill="none" stroke="red" stroke-width="2" d="M537.54,-292.49C572.6,-281.17 624.51,-264.43 663.27,-251.93"/>
<polygon fill="red" stroke="red" stroke-width="2" points="664.38,-255.25 672.82,-248.85 662.23,-248.58 664.38,-255.25"/>
</g>
<!-- :core:model&#45;&gt;:core:common -->
<g id="edge9" class="edge">
<title>:core:model&#45;&gt;:core:common</title>
<path fill="none" stroke="red" stroke-width="2" d="M572.74,-71.7C572.74,-63.98 572.74,-54.71 572.74,-46.11"/>
<polygon fill="red" stroke="red" stroke-width="2" points="576.24,-46.1 572.74,-36.1 569.24,-46.1 576.24,-46.1"/>
</g>
<!-- :core:datastore&#45;&gt;:core:model -->
<g id="edge15" class="edge">
<title>:core:datastore&#45;&gt;:core:model</title>
<path fill="none" stroke="red" stroke-width="2" d="M613.67,-144.05C607.17,-135.63 599.19,-125.28 592,-115.97"/>
<polygon fill="red" stroke="red" stroke-width="2" points="594.57,-113.57 585.69,-107.79 589.03,-117.84 594.57,-113.57"/>
</g>
<!-- :core:datastore&#45;&gt;:core:common -->
<g id="edge16" class="edge">
<title>:core:datastore&#45;&gt;:core:common</title>
<path fill="none" stroke="black" d="M637.05,-144.07C646.92,-125.5 658.68,-95.24 646.74,-72 639.82,-58.52 627.7,-47.71 615.25,-39.45"/>
<polygon fill="black" stroke="black" points="616.99,-36.41 606.64,-34.14 613.31,-42.37 616.99,-36.41"/>
</g>
<!-- :core:network&#45;&gt;:core:model -->
<g id="edge18" class="edge">
<title>:core:network&#45;&gt;:core:model</title>
<path fill="none" stroke="black" d="M721.37,-215.88C726.58,-196.59 731.5,-165.17 716.74,-144 699.77,-119.67 670.31,-106.47 642.44,-99.34"/>
<polygon fill="black" stroke="black" points="643.21,-95.92 632.67,-97.05 641.62,-102.74 643.21,-95.92"/>
</g>
<!-- :core:network&#45;&gt;:core:common -->
<g id="edge17" class="edge">
<title>:core:network&#45;&gt;:core:common</title>
<path fill="none" stroke="black" d="M725.18,-216.05C734.07,-197.73 744.66,-167.94 734.74,-144 713.62,-93 658.45,-57.86 618.35,-38.11"/>
<polygon fill="black" stroke="black" points="619.81,-34.93 609.27,-33.78 616.79,-41.25 619.81,-34.93"/>
</g>
<!-- :core:network&#45;&gt;:core:datastore -->
<g id="edge19" class="edge">
<title>:core:network&#45;&gt;:core:datastore</title>
<path fill="none" stroke="red" stroke-width="2" d="M694.65,-216.41C683.01,-207.26 668.39,-195.76 655.69,-185.77"/>
<polygon fill="red" stroke="red" stroke-width="2" points="657.71,-182.9 647.68,-179.47 653.38,-188.4 657.71,-182.9"/>
</g>
</g>
</svg>
