<?xml version="1.0" encoding="UTF-8" standalone="no"?>
<!DOCTYPE svg PUBLIC "-//W3C//DTD SVG 1.1//EN"
 "http://www.w3.org/Graphics/SVG/1.1/DTD/svg11.dtd">
<!-- Generated by graphviz version 2.43.0 (0)
 -->
<!-- Title: G Pages: 1 -->
<svg width="768pt" height="404pt"
 viewBox="0.00 0.00 768.44 404.00" xmlns="http://www.w3.org/2000/svg" xmlns:xlink="http://www.w3.org/1999/xlink">
<g id="graph0" class="graph" transform="scale(1 1) rotate(0) translate(4 400)">
<title>G</title>
<polygon fill="white" stroke="transparent" points="-4,4 -4,-400 764.44,-400 764.44,4 -4,4"/>
<!-- :feature:merchants -->
<g id="node1" class="node">
<title>:feature:merchants</title>
<ellipse fill="none" stroke="black" cx="248.74" cy="-378" rx="99.38" ry="18"/>
<text text-anchor="middle" x="248.74" y="-374.3" font-family="Times,serif" font-size="14.00">:feature:merchants</text>
</g>
<!-- :core:ui -->
<g id="node2" class="node">
<title>:core:ui</title>
<ellipse fill="none" stroke="black" cx="248.74" cy="-306" rx="45.49" ry="18"/>
<text text-anchor="middle" x="248.74" y="-302.3" font-family="Times,serif" font-size="14.00">:core:ui</text>
</g>
<!-- :feature:merchants&#45;&gt;:core:ui -->
<g id="edge1" class="edge">
<title>:feature:merchants&#45;&gt;:core:ui</title>
<path fill="none" stroke="black" d="M248.74,-359.7C248.74,-351.98 248.74,-342.71 248.74,-334.11"/>
<polygon fill="black" stroke="black" points="252.24,-334.1 248.74,-324.1 245.24,-334.1 252.24,-334.1"/>
</g>
<!-- :core:designsystem -->
<g id="node3" class="node">
<title>:core:designsystem</title>
<ellipse fill="none" stroke="black" cx="100.74" cy="-234" rx="100.98" ry="18"/>
<text text-anchor="middle" x="100.74" y="-230.3" font-family="Times,serif" font-size="14.00">:core:designsystem</text>
</g>
<!-- :feature:merchants&#45;&gt;:core:designsystem -->
<g id="edge2" class="edge">
<title>:feature:merchants&#45;&gt;:core:designsystem</title>
<path fill="none" stroke="black" d="M231.18,-360.15C205.03,-335.07 155.74,-287.77 125.81,-259.05"/>
<polygon fill="black" stroke="black" points="127.92,-256.22 118.28,-251.82 123.07,-261.27 127.92,-256.22"/>
</g>
<!-- :core:data -->
<g id="node4" class="node">
<title>:core:data</title>
<ellipse fill="none" stroke="black" cx="498.74" cy="-306" rx="57.39" ry="18"/>
<text text-anchor="middle" x="498.74" y="-302.3" font-family="Times,serif" font-size="14.00">:core:data</text>
</g>
<!-- :feature:merchants&#45;&gt;:core:data -->
<g id="edge3" class="edge">
<title>:feature:merchants&#45;&gt;:core:data</title>
<path fill="none" stroke="red" stroke-width="2" d="M300.24,-362.58C343.34,-350.51 404.51,-333.38 447.53,-321.34"/>
<polygon fill="red" stroke="red" stroke-width="2" points="448.55,-324.69 457.24,-318.62 446.66,-317.95 448.55,-324.69"/>
</g>
<!-- :core:ui&#45;&gt;:core:designsystem -->
<g id="edge5" class="edge">
<title>:core:ui&#45;&gt;:core:designsystem</title>
<path fill="none" stroke="black" d="M220.56,-291.67C198.84,-281.4 168.45,-267.02 143.71,-255.32"/>
<polygon fill="black" stroke="black" points="145.07,-252.09 134.53,-250.98 142.07,-258.42 145.07,-252.09"/>
</g>
<!-- :core:analytics -->
<g id="node5" class="node">
<title>:core:analytics</title>
<ellipse fill="none" stroke="black" cx="373.74" cy="-234" rx="77.99" ry="18"/>
<text text-anchor="middle" x="373.74" y="-230.3" font-family="Times,serif" font-size="14.00">:core:analytics</text>
</g>
<!-- :core:ui&#45;&gt;:core:analytics -->
<g id="edge4" class="edge">
<title>:core:ui&#45;&gt;:core:analytics</title>
<path fill="none" stroke="black" d="M274.04,-290.83C291.98,-280.79 316.35,-267.14 336.5,-255.85"/>
<polygon fill="black" stroke="black" points="338.42,-258.79 345.43,-250.85 335,-252.69 338.42,-258.79"/>
</g>
<!-- :core:model -->
<g id="node6" class="node">
<title>:core:model</title>
<ellipse fill="none" stroke="black" cx="572.74" cy="-90" rx="64.99" ry="18"/>
<text text-anchor="middle" x="572.74" y="-86.3" font-family="Times,serif" font-size="14.00">:core:model</text>
</g>
<!-- :core:ui&#45;&gt;:core:model -->
<g id="edge6" class="edge">
<title>:core:ui&#45;&gt;:core:model</title>
<path fill="none" stroke="black" d="M252.08,-287.79C256.71,-268.11 266.87,-236.04 286.74,-216 348.94,-153.27 447.91,-119.74 511.59,-103.66"/>
<polygon fill="black" stroke="black" points="512.62,-107.01 521.49,-101.23 510.95,-100.22 512.62,-107.01"/>
</g>
<!-- :core:common -->
<g id="node7" class="node">
<title>:core:common</title>
<ellipse fill="none" stroke="black" cx="572.74" cy="-18" rx="75.29" ry="18"/>
<text text-anchor="middle" x="572.74" y="-14.3" font-family="Times,serif" font-size="14.00">:core:common</text>
</g>
<!-- :core:ui&#45;&gt;:core:common -->
<g id="edge7" class="edge">
<title>:core:ui&#45;&gt;:core:common</title>
<path fill="none" stroke="black" d="M248.01,-287.72C247.9,-269.11 249.72,-239.07 260.74,-216 279.71,-176.28 293.53,-170.42 328.74,-144 391.33,-97.04 474.16,-58.84 525.42,-37.52"/>
<polygon fill="black" stroke="black" points="527.01,-40.65 534.93,-33.61 524.35,-34.18 527.01,-40.65"/>
</g>
<!-- :core:data&#45;&gt;:core:analytics -->
<g id="edge13" class="edge">
<title>:core:data&#45;&gt;:core:analytics</title>
<path fill="none" stroke="black" d="M471.93,-289.98C454.21,-280.06 430.75,-266.93 411.21,-255.98"/>
<polygon fill="black" stroke="black" points="412.69,-252.8 402.25,-250.97 409.27,-258.91 412.69,-252.8"/>
</g>
<!-- :core:data&#45;&gt;:core:model -->
<g id="edge11" class="edge">
<title>:core:data&#45;&gt;:core:model</title>
<path fill="none" stroke="black" d="M504.67,-287.85C517.56,-250.58 548.19,-162 563.58,-117.49"/>
<polygon fill="black" stroke="black" points="566.92,-118.53 566.88,-107.94 560.31,-116.24 566.92,-118.53"/>
</g>
<!-- :core:data&#45;&gt;:core:common -->
<g id="edge9" class="edge">
<title>:core:data&#45;&gt;:core:common</title>
<path fill="none" stroke="black" d="M493.76,-287.97C482.99,-247.73 461.4,-144.68 498.74,-72 505.67,-58.52 517.78,-47.71 530.23,-39.45"/>
<polygon fill="black" stroke="black" points="532.17,-42.37 538.84,-34.14 528.49,-36.41 532.17,-42.37"/>
</g>
<!-- :core:datastore -->
<g id="node8" class="node">
<title>:core:datastore</title>
<ellipse fill="none" stroke="black" cx="664.74" cy="-162" rx="81.49" ry="18"/>
<text text-anchor="middle" x="664.74" y="-158.3" font-family="Times,serif" font-size="14.00">:core:datastore</text>
</g>
<!-- :core:data&#45;&gt;:core:datastore -->
<g id="edge10" class="edge">
<title>:core:data&#45;&gt;:core:datastore</title>
<path fill="none" stroke="black" d="M511.59,-288.31C526.64,-269.41 552.94,-238.34 579.74,-216 594.03,-204.08 611.23,-192.87 626.4,-183.85"/>
<polygon fill="black" stroke="black" points="628.18,-186.87 635.06,-178.81 624.66,-180.82 628.18,-186.87"/>
</g>
<!-- :core:network -->
<g id="node9" class="node">
<title>:core:network</title>
<ellipse fill="none" stroke="black" cx="663.74" cy="-234" rx="74.99" ry="18"/>
<text text-anchor="middle" x="663.74" y="-230.3" font-family="Times,serif" font-size="14.00">:core:network</text>
</g>
<!-- :core:data&#45;&gt;:core:network -->
<g id="edge12" class="edge">
<title>:core:data&#45;&gt;:core:network</title>
<path fill="none" stroke="red" stroke-width="2" d="M531.34,-291.17C556.38,-280.55 591.23,-265.76 618.9,-254.02"/>
<polygon fill="red" stroke="red" stroke-width="2" points="620.52,-257.14 628.35,-250.01 617.78,-250.7 620.52,-257.14"/>
</g>
<!-- :core:model&#45;&gt;:core:common -->
<g id="edge8" class="edge">
<title>:core:model&#45;&gt;:core:common</title>
<path fill="none" stroke="red" stroke-width="2" d="M572.74,-71.7C572.74,-63.98 572.74,-54.71 572.74,-46.11"/>
<polygon fill="red" stroke="red" stroke-width="2" points="576.24,-46.1 572.74,-36.1 569.24,-46.1 576.24,-46.1"/>
</g>
<!-- :core:datastore&#45;&gt;:core:model -->
<g id="edge14" class="edge">
<title>:core:datastore&#45;&gt;:core:model</title>
<path fill="none" stroke="red" stroke-width="2" d="M642.94,-144.41C630.82,-135.19 615.57,-123.59 602.38,-113.55"/>
<polygon fill="red" stroke="red" stroke-width="2" points="604.15,-110.5 594.07,-107.23 599.91,-116.07 604.15,-110.5"/>
</g>
<!-- :core:datastore&#45;&gt;:core:common -->
<g id="edge15" class="edge">
<title>:core:datastore&#45;&gt;:core:common</title>
<path fill="none" stroke="black" d="M664.9,-143.88C664.31,-124.87 660.96,-93.97 646.74,-72 638.37,-59.07 625.64,-48.3 613.09,-39.92"/>
<polygon fill="black" stroke="black" points="614.81,-36.87 604.48,-34.5 611.08,-42.79 614.81,-36.87"/>
</g>
<!-- :core:network&#45;&gt;:core:model -->
<g id="edge17" class="edge">
<title>:core:network&#45;&gt;:core:model</title>
<path fill="none" stroke="black" d="M622.43,-218.95C604.51,-210.59 585.25,-198.02 574.74,-180 563.88,-161.39 564.26,-136.65 566.85,-117.98"/>
<polygon fill="black" stroke="black" points="570.32,-118.49 568.52,-108.05 563.41,-117.33 570.32,-118.49"/>
</g>
<!-- :core:network&#45;&gt;:core:common -->
<g id="edge16" class="edge">
<title>:core:network&#45;&gt;:core:common</title>
<path fill="none" stroke="black" d="M706.61,-219.07C724.84,-210.77 744.26,-198.23 754.74,-180 762.71,-166.13 761.59,-158.46 754.74,-144 729.36,-90.43 668.22,-55.97 623.79,-37.07"/>
<polygon fill="black" stroke="black" points="624.88,-33.74 614.3,-33.16 622.22,-40.21 624.88,-33.74"/>
</g>
<!-- :core:network&#45;&gt;:core:datastore -->
<g id="edge18" class="edge">
<title>:core:network&#45;&gt;:core:datastore</title>
<path fill="none" stroke="red" stroke-width="2" d="M663.99,-215.7C664.1,-207.98 664.23,-198.71 664.35,-190.11"/>
<polygon fill="red" stroke="red" stroke-width="2" points="667.85,-190.15 664.5,-180.1 660.85,-190.05 667.85,-190.15"/>
</g>
</g>
</svg>
