<?xml version="1.0" encoding="UTF-8" standalone="no"?>
<!DOCTYPE svg PUBLIC "-//W3C//DTD SVG 1.1//EN"
 "http://www.w3.org/Graphics/SVG/1.1/DTD/svg11.dtd">
<!-- Generated by graphviz version 2.43.0 (0)
 -->
<!-- Title: G Pages: 1 -->
<svg width="588pt" height="188pt"
 viewBox="0.00 0.00 588.39 188.00" xmlns="http://www.w3.org/2000/svg" xmlns:xlink="http://www.w3.org/1999/xlink">
<g id="graph0" class="graph" transform="scale(1 1) rotate(0) translate(4 184)">
<title>G</title>
<polygon fill="white" stroke="transparent" points="-4,4 -4,-184 584.39,-184 584.39,4 -4,4"/>
<!-- :core:ui -->
<g id="node1" class="node">
<title>:core:ui</title>
<ellipse fill="none" stroke="black" cx="366.99" cy="-162" rx="45.49" ry="18"/>
<text text-anchor="middle" x="366.99" y="-158.3" font-family="Times,serif" font-size="14.00">:core:ui</text>
</g>
<!-- :core:analytics -->
<g id="node2" class="node">
<title>:core:analytics</title>
<ellipse fill="none" stroke="black" cx="77.99" cy="-90" rx="77.99" ry="18"/>
<text text-anchor="middle" x="77.99" y="-86.3" font-family="Times,serif" font-size="14.00">:core:analytics</text>
</g>
<!-- :core:ui&#45;&gt;:core:analytics -->
<g id="edge1" class="edge">
<title>:core:ui&#45;&gt;:core:analytics</title>
<path fill="none" stroke="black" d="M329.21,-151.85C281.08,-140.19 197.24,-119.88 139.76,-105.96"/>
<polygon fill="black" stroke="black" points="140.24,-102.48 129.7,-103.52 138.59,-109.28 140.24,-102.48"/>
</g>
<!-- :core:designsystem -->
<g id="node3" class="node">
<title>:core:designsystem</title>
<ellipse fill="none" stroke="black" cx="274.99" cy="-90" rx="100.98" ry="18"/>
<text text-anchor="middle" x="274.99" y="-86.3" font-family="Times,serif" font-size="14.00">:core:designsystem</text>
</g>
<!-- :core:ui&#45;&gt;:core:designsystem -->
<g id="edge2" class="edge">
<title>:core:ui&#45;&gt;:core:designsystem</title>
<path fill="none" stroke="black" d="M347.03,-145.81C334.78,-136.49 318.85,-124.37 305.08,-113.9"/>
<polygon fill="black" stroke="black" points="306.92,-110.9 296.85,-107.63 302.69,-116.47 306.92,-110.9"/>
</g>
<!-- :core:model -->
<g id="node4" class="node">
<title>:core:model</title>
<ellipse fill="none" stroke="black" cx="458.99" cy="-90" rx="64.99" ry="18"/>
<text text-anchor="middle" x="458.99" y="-86.3" font-family="Times,serif" font-size="14.00">:core:model</text>
</g>
<!-- :core:ui&#45;&gt;:core:model -->
<g id="edge3" class="edge">
<title>:core:ui&#45;&gt;:core:model</title>
<path fill="none" stroke="red" stroke-width="2" d="M386.96,-145.81C399.38,-136.35 415.6,-124.02 429.49,-113.45"/>
<polygon fill="red" stroke="red" stroke-width="2" points="431.95,-115.97 437.79,-107.13 427.71,-110.4 431.95,-115.97"/>
</g>
<!-- :core:common -->
<g id="node5" class="node">
<title>:core:common</title>
<ellipse fill="none" stroke="black" cx="504.99" cy="-18" rx="75.29" ry="18"/>
<text text-anchor="middle" x="504.99" y="-14.3" font-family="Times,serif" font-size="14.00">:core:common</text>
</g>
<!-- :core:ui&#45;&gt;:core:common -->
<g id="edge4" class="edge">
<title>:core:ui&#45;&gt;:core:common</title>
<path fill="none" stroke="black" d="M412.34,-160.35C451.38,-157.08 505.6,-145.5 532.99,-108 546.77,-89.14 536.15,-63.3 524.24,-44.32"/>
<polygon fill="black" stroke="black" points="527.05,-42.23 518.58,-35.87 521.24,-46.13 527.05,-42.23"/>
</g>
<!-- :core:model&#45;&gt;:core:common -->
<g id="edge5" class="edge">
<title>:core:model&#45;&gt;:core:common</title>
<path fill="none" stroke="red" stroke-width="2" d="M470.13,-72.05C475.53,-63.84 482.13,-53.79 488.13,-44.66"/>
<polygon fill="red" stroke="red" stroke-width="2" points="491.07,-46.55 493.64,-36.28 485.22,-42.71 491.07,-46.55"/>
</g>
</g>
</svg>
