<?xml version="1.0" encoding="UTF-8" standalone="no"?>
<!DOCTYPE svg PUBLIC "-//W3C//DTD SVG 1.1//EN"
 "http://www.w3.org/Graphics/SVG/1.1/DTD/svg11.dtd">
<!-- Generated by graphviz version 2.43.0 (0)
 -->
<!-- Title: G Pages: 1 -->
<svg width="4935pt" height="620pt"
 viewBox="0.00 0.00 4935.03 620.00" xmlns="http://www.w3.org/2000/svg" xmlns:xlink="http://www.w3.org/1999/xlink">
<g id="graph0" class="graph" transform="scale(1 1) rotate(0) translate(4 616)">
<title>G</title>
<polygon fill="white" stroke="transparent" points="-4,4 -4,-616 4931.03,-616 4931.03,4 -4,4"/>
<!-- :mifospay&#45;android -->
<g id="node1" class="node">
<title>:mifospay&#45;android</title>
<ellipse fill="none" stroke="black" cx="2879.36" cy="-594" rx="94.48" ry="18"/>
<text text-anchor="middle" x="2879.36" y="-590.3" font-family="Times,serif" font-size="14.00">:mifospay&#45;android</text>
</g>
<!-- :mifospay&#45;shared -->
<g id="node2" class="node">
<title>:mifospay&#45;shared</title>
<ellipse fill="none" stroke="black" cx="2707.36" cy="-522" rx="90.18" ry="18"/>
<text text-anchor="middle" x="2707.36" y="-518.3" font-family="Times,serif" font-size="14.00">:mifospay&#45;shared</text>
</g>
<!-- :mifospay&#45;android&#45;&gt;:mifospay&#45;shared -->
<g id="edge1" class="edge">
<title>:mifospay&#45;android&#45;&gt;:mifospay&#45;shared</title>
<path fill="none" stroke="red" stroke-width="2" d="M2841.19,-577.46C2815.6,-567.05 2781.73,-553.27 2754.47,-542.17"/>
<polygon fill="red" stroke="red" stroke-width="2" points="2755.71,-538.9 2745.13,-538.37 2753.07,-545.38 2755.71,-538.9"/>
</g>
<!-- :core:data -->
<g id="node3" class="node">
<title>:core:data</title>
<ellipse fill="none" stroke="black" cx="3106.36" cy="-306" rx="57.39" ry="18"/>
<text text-anchor="middle" x="3106.36" y="-302.3" font-family="Times,serif" font-size="14.00">:core:data</text>
</g>
<!-- :mifospay&#45;android&#45;&gt;:core:data -->
<g id="edge2" class="edge">
<title>:mifospay&#45;android&#45;&gt;:core:data</title>
<path fill="none" stroke="black" d="M2972.15,-590.81C3362.07,-581.18 4850.82,-539.81 4918.36,-468 4936.07,-449.17 4921.18,-373.62 4905.36,-360 4838.6,-302.52 3492.98,-305.19 3173.82,-306.63"/>
<polygon fill="black" stroke="black" points="3173.78,-303.13 3163.79,-306.68 3173.81,-310.13 3173.78,-303.13"/>
</g>
<!-- :core:ui -->
<g id="node4" class="node">
<title>:core:ui</title>
<ellipse fill="none" stroke="black" cx="2653.36" cy="-378" rx="45.49" ry="18"/>
<text text-anchor="middle" x="2653.36" y="-374.3" font-family="Times,serif" font-size="14.00">:core:ui</text>
</g>
<!-- :mifospay&#45;android&#45;&gt;:core:ui -->
<g id="edge3" class="edge">
<title>:mifospay&#45;android&#45;&gt;:core:ui</title>
<path fill="none" stroke="black" d="M2883.07,-575.89C2889.02,-543.41 2896.64,-472.43 2860.36,-432 2812.54,-378.72 2772.23,-415.55 2703.36,-396 2700.89,-395.3 2698.36,-394.55 2695.82,-393.77"/>
<polygon fill="black" stroke="black" points="2696.61,-390.35 2686.02,-390.64 2694.48,-397.01 2696.61,-390.35"/>
</g>
<!-- :mifospay&#45;shared&#45;&gt;:core:data -->
<g id="edge4" class="edge">
<title>:mifospay&#45;shared&#45;&gt;:core:data</title>
<path fill="none" stroke="black" d="M2797.44,-520.49C3201.72,-518 4830.65,-505.62 4867.36,-468 4878.53,-456.55 4876.94,-444.82 4867.36,-432 4833.51,-386.72 4799.12,-413.5 4745.36,-396 4700.04,-381.25 4691.21,-368.69 4644.36,-360 4323.73,-300.51 3500.72,-366.2 3177.36,-324 3171.01,-323.17 3164.4,-322.01 3157.88,-320.67"/>
<polygon fill="black" stroke="black" points="3158.28,-317.18 3147.76,-318.46 3156.78,-324.02 3158.28,-317.18"/>
</g>
<!-- :mifospay&#45;shared&#45;&gt;:core:ui -->
<g id="edge6" class="edge">
<title>:mifospay&#45;shared&#45;&gt;:core:ui</title>
<path fill="none" stroke="black" d="M2629.53,-512.84C2601.12,-505.66 2571.72,-492.39 2554.36,-468 2545.08,-454.97 2546.14,-445.73 2554.36,-432 2565.81,-412.88 2586.77,-400.27 2606.46,-392.17"/>
<polygon fill="black" stroke="black" points="2607.89,-395.37 2615.98,-388.54 2605.39,-388.83 2607.89,-395.37"/>
</g>
<!-- :core:network -->
<g id="node5" class="node">
<title>:core:network</title>
<ellipse fill="none" stroke="black" cx="3384.36" cy="-234" rx="74.99" ry="18"/>
<text text-anchor="middle" x="3384.36" y="-230.3" font-family="Times,serif" font-size="14.00">:core:network</text>
</g>
<!-- :mifospay&#45;shared&#45;&gt;:core:network -->
<g id="edge5" class="edge">
<title>:mifospay&#45;shared&#45;&gt;:core:network</title>
<path fill="none" stroke="black" d="M2797.5,-520.54C3207.8,-518.25 4880.71,-506.56 4918.36,-468 4936.24,-449.69 4921.52,-374.67 4905.36,-360 4798.55,-263.04 3772.76,-240.59 3468.82,-236.04"/>
<polygon fill="black" stroke="black" points="3468.79,-232.54 3458.74,-235.9 3468.69,-239.54 3468.79,-232.54"/>
</g>
<!-- :core:designsystem -->
<g id="node6" class="node">
<title>:core:designsystem</title>
<ellipse fill="none" stroke="black" cx="2542.36" cy="-306" rx="100.98" ry="18"/>
<text text-anchor="middle" x="2542.36" y="-302.3" font-family="Times,serif" font-size="14.00">:core:designsystem</text>
</g>
<!-- :mifospay&#45;shared&#45;&gt;:core:designsystem -->
<g id="edge7" class="edge">
<title>:mifospay&#45;shared&#45;&gt;:core:designsystem</title>
<path fill="none" stroke="black" d="M2616.97,-520.87C2164.34,-519.99 163.98,-513.54 119.36,-468 26.71,-373.44 -222.74,-438.21 485.36,-360 867.48,-317.8 2061.1,-309.09 2431.56,-307.39"/>
<polygon fill="black" stroke="black" points="2431.76,-310.89 2441.75,-307.35 2431.73,-303.89 2431.76,-310.89"/>
</g>
<!-- :core:domain -->
<g id="node7" class="node">
<title>:core:domain</title>
<ellipse fill="none" stroke="black" cx="4825.36" cy="-378" rx="70.69" ry="18"/>
<text text-anchor="middle" x="4825.36" y="-374.3" font-family="Times,serif" font-size="14.00">:core:domain</text>
</g>
<!-- :mifospay&#45;shared&#45;&gt;:core:domain -->
<g id="edge8" class="edge">
<title>:mifospay&#45;shared&#45;&gt;:core:domain</title>
<path fill="none" stroke="black" d="M2797.44,-520.53C3205.58,-518.16 4863.04,-506.23 4900.36,-468 4911.54,-456.55 4907.72,-446.21 4900.36,-432 4893.27,-418.31 4880.84,-407.4 4868.11,-399.13"/>
<polygon fill="black" stroke="black" points="4869.68,-395.99 4859.31,-393.81 4866.06,-401.98 4869.68,-395.99"/>
</g>
<!-- :feature:auth -->
<g id="node8" class="node">
<title>:feature:auth</title>
<ellipse fill="none" stroke="black" cx="4787.36" cy="-450" rx="71.49" ry="18"/>
<text text-anchor="middle" x="4787.36" y="-446.3" font-family="Times,serif" font-size="14.00">:feature:auth</text>
</g>
<!-- :mifospay&#45;shared&#45;&gt;:feature:auth -->
<g id="edge9" class="edge">
<title>:mifospay&#45;shared&#45;&gt;:feature:auth</title>
<path fill="none" stroke="red" stroke-width="2" d="M2797.53,-520.8C3135.89,-519.72 4329.88,-512.73 4707.36,-468 4713.99,-467.21 4720.89,-466.14 4727.72,-464.92"/>
<polygon fill="red" stroke="red" stroke-width="2" points="4728.49,-468.34 4737.66,-463.03 4727.19,-461.46 4728.49,-468.34"/>
</g>
<!-- :libs:mifos&#45;passcode -->
<g id="node9" class="node">
<title>:libs:mifos&#45;passcode</title>
<ellipse fill="none" stroke="black" cx="2219.36" cy="-450" rx="103.98" ry="18"/>
<text text-anchor="middle" x="2219.36" y="-446.3" font-family="Times,serif" font-size="14.00">:libs:mifos&#45;passcode</text>
</g>
<!-- :mifospay&#45;shared&#45;&gt;:libs:mifos&#45;passcode -->
<g id="edge10" class="edge">
<title>:mifospay&#45;shared&#45;&gt;:libs:mifos&#45;passcode</title>
<path fill="none" stroke="black" d="M2635.44,-511.03C2559.93,-500.52 2437.76,-483.38 2332.36,-468 2323.42,-466.7 2314.09,-465.32 2304.78,-463.93"/>
<polygon fill="black" stroke="black" points="2305.12,-460.45 2294.72,-462.43 2304.09,-467.37 2305.12,-460.45"/>
</g>
<!-- :feature:home -->
<g id="node10" class="node">
<title>:feature:home</title>
<ellipse fill="none" stroke="black" cx="3720.36" cy="-450" rx="75.29" ry="18"/>
<text text-anchor="middle" x="3720.36" y="-446.3" font-family="Times,serif" font-size="14.00">:feature:home</text>
</g>
<!-- :mifospay&#45;shared&#45;&gt;:feature:home -->
<g id="edge11" class="edge">
<title>:mifospay&#45;shared&#45;&gt;:feature:home</title>
<path fill="none" stroke="black" d="M2797.43,-520.12C2963.83,-517.56 3330.34,-507.49 3636.36,-468 3643.1,-467.13 3650.11,-466.03 3657.08,-464.81"/>
<polygon fill="black" stroke="black" points="3658.02,-468.19 3667.23,-462.94 3656.76,-461.31 3658.02,-468.19"/>
</g>
<!-- :feature:settings -->
<g id="node11" class="node">
<title>:feature:settings</title>
<ellipse fill="none" stroke="black" cx="4462.36" cy="-450" rx="87.99" ry="18"/>
<text text-anchor="middle" x="4462.36" y="-446.3" font-family="Times,serif" font-size="14.00">:feature:settings</text>
</g>
<!-- :mifospay&#45;shared&#45;&gt;:feature:settings -->
<g id="edge12" class="edge">
<title>:mifospay&#45;shared&#45;&gt;:feature:settings</title>
<path fill="none" stroke="black" d="M2797.16,-519.83C3096.39,-515.66 4058.06,-500.05 4366.36,-468 4374.65,-467.14 4383.3,-465.98 4391.87,-464.67"/>
<polygon fill="black" stroke="black" points="4392.54,-468.11 4401.86,-463.07 4391.43,-461.19 4392.54,-468.11"/>
</g>
<!-- :feature:faq -->
<g id="node12" class="node">
<title>:feature:faq</title>
<ellipse fill="none" stroke="black" cx="4633.36" cy="-450" rx="64.99" ry="18"/>
<text text-anchor="middle" x="4633.36" y="-446.3" font-family="Times,serif" font-size="14.00">:feature:faq</text>
</g>
<!-- :mifospay&#45;shared&#45;&gt;:feature:faq -->
<g id="edge13" class="edge">
<title>:mifospay&#45;shared&#45;&gt;:feature:faq</title>
<path fill="none" stroke="black" d="M2797.71,-520.77C3120.04,-519.59 4212.68,-512.34 4559.36,-468 4565.31,-467.24 4571.48,-466.21 4577.6,-465.04"/>
<polygon fill="black" stroke="black" points="4578.73,-468.38 4587.82,-462.94 4577.32,-461.52 4578.73,-468.38"/>
</g>
<!-- :feature:editpassword -->
<g id="node13" class="node">
<title>:feature:editpassword</title>
<ellipse fill="none" stroke="black" cx="240.36" cy="-450" rx="112.38" ry="18"/>
<text text-anchor="middle" x="240.36" y="-446.3" font-family="Times,serif" font-size="14.00">:feature:editpassword</text>
</g>
<!-- :mifospay&#45;shared&#45;&gt;:feature:editpassword -->
<g id="edge14" class="edge">
<title>:mifospay&#45;shared&#45;&gt;:feature:editpassword</title>
<path fill="none" stroke="black" d="M2617.11,-520.37C2242.89,-517.56 811.7,-504.6 361.36,-468 350.32,-467.1 338.75,-465.86 327.33,-464.46"/>
<polygon fill="black" stroke="black" points="327.71,-460.98 317.34,-463.19 326.82,-467.93 327.71,-460.98"/>
</g>
<!-- :feature:profile -->
<g id="node14" class="node">
<title>:feature:profile</title>
<ellipse fill="none" stroke="black" cx="450.36" cy="-450" rx="79.89" ry="18"/>
<text text-anchor="middle" x="450.36" y="-446.3" font-family="Times,serif" font-size="14.00">:feature:profile</text>
</g>
<!-- :mifospay&#45;shared&#45;&gt;:feature:profile -->
<g id="edge15" class="edge">
<title>:mifospay&#45;shared&#45;&gt;:feature:profile</title>
<path fill="none" stroke="black" d="M2617.06,-520.77C2260.75,-519.56 951.86,-512.14 539.36,-468 531.66,-467.18 523.63,-466.04 515.69,-464.74"/>
<polygon fill="black" stroke="black" points="516.14,-461.27 505.7,-463.03 514.96,-468.17 516.14,-461.27"/>
</g>
<!-- :feature:history -->
<g id="node15" class="node">
<title>:feature:history</title>
<ellipse fill="none" stroke="black" cx="631.36" cy="-450" rx="83.39" ry="18"/>
<text text-anchor="middle" x="631.36" y="-446.3" font-family="Times,serif" font-size="14.00">:feature:history</text>
</g>
<!-- :mifospay&#45;shared&#45;&gt;:feature:history -->
<g id="edge16" class="edge">
<title>:mifospay&#45;shared&#45;&gt;:feature:history</title>
<path fill="none" stroke="black" d="M2617.08,-520.46C2280.39,-518.16 1098.06,-507.38 723.36,-468 715.44,-467.17 707.17,-466.03 698.98,-464.73"/>
<polygon fill="black" stroke="black" points="699.51,-461.27 689.07,-463.09 698.36,-468.18 699.51,-461.27"/>
</g>
<!-- :feature:payments -->
<g id="node16" class="node">
<title>:feature:payments</title>
<ellipse fill="none" stroke="black" cx="828.36" cy="-450" rx="95.58" ry="18"/>
<text text-anchor="middle" x="828.36" y="-446.3" font-family="Times,serif" font-size="14.00">:feature:payments</text>
</g>
<!-- :mifospay&#45;shared&#45;&gt;:feature:payments -->
<g id="edge17" class="edge">
<title>:mifospay&#45;shared&#45;&gt;:feature:payments</title>
<path fill="none" stroke="black" d="M2617.4,-519.87C2304.61,-515.69 1265.39,-499.7 933.36,-468 924.01,-467.11 914.24,-465.9 904.57,-464.54"/>
<polygon fill="black" stroke="black" points="904.97,-461.06 894.56,-463.06 903.95,-467.98 904.97,-461.06"/>
</g>
<!-- :feature:finance -->
<g id="node17" class="node">
<title>:feature:finance</title>
<ellipse fill="none" stroke="black" cx="1025.36" cy="-450" rx="83.39" ry="18"/>
<text text-anchor="middle" x="1025.36" y="-446.3" font-family="Times,serif" font-size="14.00">:feature:finance</text>
</g>
<!-- :mifospay&#45;shared&#45;&gt;:feature:finance -->
<g id="edge18" class="edge">
<title>:mifospay&#45;shared&#45;&gt;:feature:finance</title>
<path fill="none" stroke="black" d="M2617.5,-519.77C2326.44,-515.52 1411.42,-499.89 1117.36,-468 1109.44,-467.14 1101.17,-465.99 1092.99,-464.68"/>
<polygon fill="black" stroke="black" points="1093.52,-461.22 1083.08,-463.03 1092.36,-468.13 1093.52,-461.22"/>
</g>
<!-- :feature:accounts -->
<g id="node18" class="node">
<title>:feature:accounts</title>
<ellipse fill="none" stroke="black" cx="1217.36" cy="-450" rx="90.98" ry="18"/>
<text text-anchor="middle" x="1217.36" y="-446.3" font-family="Times,serif" font-size="14.00">:feature:accounts</text>
</g>
<!-- :mifospay&#45;shared&#45;&gt;:feature:accounts -->
<g id="edge19" class="edge">
<title>:mifospay&#45;shared&#45;&gt;:feature:accounts</title>
<path fill="none" stroke="black" d="M2616.82,-521.62C2394.75,-522.26 1805.58,-518.59 1317.36,-468 1308.64,-467.1 1299.53,-465.9 1290.52,-464.56"/>
<polygon fill="black" stroke="black" points="1290.82,-461.07 1280.4,-463 1289.75,-467.99 1290.82,-461.07"/>
</g>
<!-- :feature:invoices -->
<g id="node19" class="node">
<title>:feature:invoices</title>
<ellipse fill="none" stroke="black" cx="1414.36" cy="-450" rx="87.99" ry="18"/>
<text text-anchor="middle" x="1414.36" y="-446.3" font-family="Times,serif" font-size="14.00">:feature:invoices</text>
</g>
<!-- :mifospay&#45;shared&#45;&gt;:feature:invoices -->
<g id="edge20" class="edge">
<title>:mifospay&#45;shared&#45;&gt;:feature:invoices</title>
<path fill="none" stroke="black" d="M2616.95,-521.03C2416.89,-520.22 1921.82,-513.34 1510.36,-468 1502.14,-467.09 1493.55,-465.91 1485.05,-464.6"/>
<polygon fill="black" stroke="black" points="1485.56,-461.13 1475.13,-463 1484.44,-468.05 1485.56,-461.13"/>
</g>
<!-- :feature:kyc -->
<g id="node20" class="node">
<title>:feature:kyc</title>
<ellipse fill="none" stroke="black" cx="1585.36" cy="-450" rx="65.79" ry="18"/>
<text text-anchor="middle" x="1585.36" y="-446.3" font-family="Times,serif" font-size="14.00">:feature:kyc</text>
</g>
<!-- :mifospay&#45;shared&#45;&gt;:feature:kyc -->
<g id="edge21" class="edge">
<title>:mifospay&#45;shared&#45;&gt;:feature:kyc</title>
<path fill="none" stroke="black" d="M2616.79,-521.74C2434.56,-522.06 2010.99,-516.9 1659.36,-468 1653.5,-467.19 1647.43,-466.14 1641.39,-464.96"/>
<polygon fill="black" stroke="black" points="1641.81,-461.47 1631.31,-462.87 1640.4,-468.32 1641.81,-461.47"/>
</g>
<!-- :feature:notification -->
<g id="node21" class="node">
<title>:feature:notification</title>
<ellipse fill="none" stroke="black" cx="1771.36" cy="-450" rx="102.88" ry="18"/>
<text text-anchor="middle" x="1771.36" y="-446.3" font-family="Times,serif" font-size="14.00">:feature:notification</text>
</g>
<!-- :mifospay&#45;shared&#45;&gt;:feature:notification -->
<g id="edge22" class="edge">
<title>:mifospay&#45;shared&#45;&gt;:feature:notification</title>
<path fill="none" stroke="black" d="M2619.23,-517.88C2468.1,-511.96 2149.9,-497.02 1882.36,-468 1872.94,-466.98 1863.09,-465.73 1853.32,-464.38"/>
<polygon fill="black" stroke="black" points="1853.58,-460.88 1843.19,-462.94 1852.6,-467.81 1853.58,-460.88"/>
</g>
<!-- :feature:savedcards -->
<g id="node22" class="node">
<title>:feature:savedcards</title>
<ellipse fill="none" stroke="black" cx="1994.36" cy="-450" rx="102.88" ry="18"/>
<text text-anchor="middle" x="1994.36" y="-446.3" font-family="Times,serif" font-size="14.00">:feature:savedcards</text>
</g>
<!-- :mifospay&#45;shared&#45;&gt;:feature:savedcards -->
<g id="edge23" class="edge">
<title>:mifospay&#45;shared&#45;&gt;:feature:savedcards</title>
<path fill="none" stroke="black" d="M2623.08,-515.24C2506.66,-506.91 2290.18,-490.03 2106.36,-468 2096.94,-466.87 2087.09,-465.56 2077.31,-464.19"/>
<polygon fill="black" stroke="black" points="2077.56,-460.69 2067.17,-462.73 2076.57,-467.61 2077.56,-460.69"/>
</g>
<!-- :feature:receipt -->
<g id="node23" class="node">
<title>:feature:receipt</title>
<ellipse fill="none" stroke="black" cx="2424.36" cy="-450" rx="83.39" ry="18"/>
<text text-anchor="middle" x="2424.36" y="-446.3" font-family="Times,serif" font-size="14.00">:feature:receipt</text>
</g>
<!-- :mifospay&#45;shared&#45;&gt;:feature:receipt -->
<g id="edge24" class="edge">
<title>:mifospay&#45;shared&#45;&gt;:feature:receipt</title>
<path fill="none" stroke="black" d="M2653.13,-507.59C2605.68,-495.85 2536.75,-478.8 2486.97,-466.49"/>
<polygon fill="black" stroke="black" points="2487.52,-463.02 2476.97,-464.01 2485.84,-469.81 2487.52,-463.02"/>
</g>
<!-- :feature:standing&#45;instruction -->
<g id="node24" class="node">
<title>:feature:standing&#45;instruction</title>
<ellipse fill="none" stroke="black" cx="2707.36" cy="-450" rx="144.07" ry="18"/>
<text text-anchor="middle" x="2707.36" y="-446.3" font-family="Times,serif" font-size="14.00">:feature:standing&#45;instruction</text>
</g>
<!-- :mifospay&#45;shared&#45;&gt;:feature:standing&#45;instruction -->
<g id="edge25" class="edge">
<title>:mifospay&#45;shared&#45;&gt;:feature:standing&#45;instruction</title>
<path fill="none" stroke="black" d="M2707.36,-503.7C2707.36,-495.98 2707.36,-486.71 2707.36,-478.11"/>
<polygon fill="black" stroke="black" points="2710.86,-478.1 2707.36,-468.1 2703.86,-478.1 2710.86,-478.1"/>
</g>
<!-- :feature:request&#45;money -->
<g id="node25" class="node">
<title>:feature:request&#45;money</title>
<ellipse fill="none" stroke="black" cx="3027.36" cy="-450" rx="119.68" ry="18"/>
<text text-anchor="middle" x="3027.36" y="-446.3" font-family="Times,serif" font-size="14.00">:feature:request&#45;money</text>
</g>
<!-- :mifospay&#45;shared&#45;&gt;:feature:request&#45;money -->
<g id="edge26" class="edge">
<title>:mifospay&#45;shared&#45;&gt;:feature:request&#45;money</title>
<path fill="none" stroke="black" d="M2765.68,-508.24C2818.14,-496.77 2895.51,-479.84 2952.52,-467.37"/>
<polygon fill="black" stroke="black" points="2953.54,-470.73 2962.56,-465.17 2952.04,-463.89 2953.54,-470.73"/>
</g>
<!-- :feature:send&#45;money -->
<g id="node26" class="node">
<title>:feature:send&#45;money</title>
<ellipse fill="none" stroke="black" cx="3271.36" cy="-450" rx="105.88" ry="18"/>
<text text-anchor="middle" x="3271.36" y="-446.3" font-family="Times,serif" font-size="14.00">:feature:send&#45;money</text>
</g>
<!-- :mifospay&#45;shared&#45;&gt;:feature:send&#45;money -->
<g id="edge27" class="edge">
<title>:mifospay&#45;shared&#45;&gt;:feature:send&#45;money</title>
<path fill="none" stroke="black" d="M2784.51,-512.59C2874.03,-502.67 3026.03,-485.32 3156.36,-468 3165.71,-466.76 3175.49,-465.4 3185.22,-464.01"/>
<polygon fill="black" stroke="black" points="3185.92,-467.45 3195.32,-462.56 3184.92,-460.52 3185.92,-467.45"/>
</g>
<!-- :feature:make&#45;transfer -->
<g id="node27" class="node">
<title>:feature:make&#45;transfer</title>
<ellipse fill="none" stroke="black" cx="3511.36" cy="-450" rx="115.88" ry="18"/>
<text text-anchor="middle" x="3511.36" y="-446.3" font-family="Times,serif" font-size="14.00">:feature:make&#45;transfer</text>
</g>
<!-- :mifospay&#45;shared&#45;&gt;:feature:make&#45;transfer -->
<g id="edge28" class="edge">
<title>:mifospay&#45;shared&#45;&gt;:feature:make&#45;transfer</title>
<path fill="none" stroke="black" d="M2792.45,-515.93C2921.2,-507.9 3173.12,-490.8 3386.36,-468 3397.11,-466.85 3408.37,-465.51 3419.53,-464.1"/>
<polygon fill="black" stroke="black" points="3420.27,-467.53 3429.75,-462.78 3419.38,-460.59 3420.27,-467.53"/>
</g>
<!-- :feature:qr -->
<g id="node28" class="node">
<title>:feature:qr</title>
<ellipse fill="none" stroke="black" cx="3874.36" cy="-450" rx="60.39" ry="18"/>
<text text-anchor="middle" x="3874.36" y="-446.3" font-family="Times,serif" font-size="14.00">:feature:qr</text>
</g>
<!-- :mifospay&#45;shared&#45;&gt;:feature:qr -->
<g id="edge29" class="edge">
<title>:mifospay&#45;shared&#45;&gt;:feature:qr</title>
<path fill="none" stroke="black" d="M2796.36,-518.88C3021.69,-513.17 3610.57,-495.95 3804.36,-468 3809.85,-467.21 3815.54,-466.18 3821.2,-465.02"/>
<polygon fill="black" stroke="black" points="3822.27,-468.37 3831.29,-462.82 3820.78,-461.53 3822.27,-468.37"/>
</g>
<!-- :feature:merchants -->
<g id="node29" class="node">
<title>:feature:merchants</title>
<ellipse fill="none" stroke="black" cx="4052.36" cy="-450" rx="99.38" ry="18"/>
<text text-anchor="middle" x="4052.36" y="-446.3" font-family="Times,serif" font-size="14.00">:feature:merchants</text>
</g>
<!-- :mifospay&#45;shared&#45;&gt;:feature:merchants -->
<g id="edge30" class="edge">
<title>:mifospay&#45;shared&#45;&gt;:feature:merchants</title>
<path fill="none" stroke="black" d="M2797.55,-520.58C3001.95,-518.88 3515.89,-510.37 3943.36,-468 3953.08,-467.04 3963.25,-465.78 3973.31,-464.39"/>
<polygon fill="black" stroke="black" points="3973.91,-467.84 3983.31,-462.96 3972.92,-460.91 3973.91,-467.84"/>
</g>
<!-- :feature:upi&#45;setup -->
<g id="node30" class="node">
<title>:feature:upi&#45;setup</title>
<ellipse fill="none" stroke="black" cx="4263.36" cy="-450" rx="93.68" ry="18"/>
<text text-anchor="middle" x="4263.36" y="-446.3" font-family="Times,serif" font-size="14.00">:feature:upi&#45;setup</text>
</g>
<!-- :mifospay&#45;shared&#45;&gt;:feature:upi&#45;setup -->
<g id="edge31" class="edge">
<title>:mifospay&#45;shared&#45;&gt;:feature:upi&#45;setup</title>
<path fill="none" stroke="black" d="M2797.75,-521.69C3026.51,-522.56 3646.73,-519.54 4160.36,-468 4169.43,-467.09 4178.91,-465.88 4188.3,-464.53"/>
<polygon fill="black" stroke="black" points="4189.05,-467.95 4198.42,-463 4188.01,-461.03 4189.05,-467.95"/>
</g>
<!-- :core:data&#45;&gt;:core:network -->
<g id="edge35" class="edge">
<title>:core:data&#45;&gt;:core:network</title>
<path fill="none" stroke="red" stroke-width="2" d="M3149.49,-294.14C3196.49,-282.31 3271.99,-263.3 3324.66,-250.03"/>
<polygon fill="red" stroke="red" stroke-width="2" points="3325.7,-253.38 3334.54,-247.54 3323.99,-246.59 3325.7,-253.38"/>
</g>
<!-- :core:common -->
<g id="node31" class="node">
<title>:core:common</title>
<ellipse fill="none" stroke="black" cx="3220.36" cy="-18" rx="75.29" ry="18"/>
<text text-anchor="middle" x="3220.36" y="-14.3" font-family="Times,serif" font-size="14.00">:core:common</text>
</g>
<!-- :core:data&#45;&gt;:core:common -->
<g id="edge32" class="edge">
<title>:core:data&#45;&gt;:core:common</title>
<path fill="none" stroke="black" d="M3099.43,-288C3083.9,-246.91 3051.08,-140.6 3096.36,-72 3109.11,-52.68 3130.51,-40.38 3151.97,-32.56"/>
<polygon fill="black" stroke="black" points="3153.11,-35.87 3161.48,-29.37 3150.88,-29.23 3153.11,-35.87"/>
</g>
<!-- :core:datastore -->
<g id="node32" class="node">
<title>:core:datastore</title>
<ellipse fill="none" stroke="black" cx="3275.36" cy="-162" rx="81.49" ry="18"/>
<text text-anchor="middle" x="3275.36" y="-158.3" font-family="Times,serif" font-size="14.00">:core:datastore</text>
</g>
<!-- :core:data&#45;&gt;:core:datastore -->
<g id="edge33" class="edge">
<title>:core:data&#45;&gt;:core:datastore</title>
<path fill="none" stroke="black" d="M3125.42,-288.99C3155.31,-263.87 3213.34,-215.11 3247.79,-186.17"/>
<polygon fill="black" stroke="black" points="3250.18,-188.72 3255.59,-179.61 3245.68,-183.37 3250.18,-188.72"/>
</g>
<!-- :core:model -->
<g id="node33" class="node">
<title>:core:model</title>
<ellipse fill="none" stroke="black" cx="3170.36" cy="-90" rx="64.99" ry="18"/>
<text text-anchor="middle" x="3170.36" y="-86.3" font-family="Times,serif" font-size="14.00">:core:model</text>
</g>
<!-- :core:data&#45;&gt;:core:model -->
<g id="edge34" class="edge">
<title>:core:data&#45;&gt;:core:model</title>
<path fill="none" stroke="black" d="M3110.92,-288C3118.89,-258.54 3136.06,-196.16 3152.36,-144 3155.04,-135.43 3158.13,-126.14 3160.98,-117.76"/>
<polygon fill="black" stroke="black" points="3164.36,-118.71 3164.31,-108.12 3157.74,-116.43 3164.36,-118.71"/>
</g>
<!-- :core:analytics -->
<g id="node34" class="node">
<title>:core:analytics</title>
<ellipse fill="none" stroke="black" cx="2956.36" cy="-234" rx="77.99" ry="18"/>
<text text-anchor="middle" x="2956.36" y="-230.3" font-family="Times,serif" font-size="14.00">:core:analytics</text>
</g>
<!-- :core:data&#45;&gt;:core:analytics -->
<g id="edge36" class="edge">
<title>:core:data&#45;&gt;:core:analytics</title>
<path fill="none" stroke="black" d="M3075.64,-290.67C3053.37,-280.27 3022.99,-266.09 2998.46,-254.65"/>
<polygon fill="black" stroke="black" points="2999.92,-251.47 2989.38,-250.41 2996.96,-257.81 2999.92,-251.47"/>
</g>
<!-- :core:ui&#45;&gt;:core:designsystem -->
<g id="edge44" class="edge">
<title>:core:ui&#45;&gt;:core:designsystem</title>
<path fill="none" stroke="black" d="M2630.09,-362.33C2614.82,-352.7 2594.58,-339.93 2577.38,-329.09"/>
<polygon fill="black" stroke="black" points="2579.04,-325.99 2568.71,-323.62 2575.3,-331.91 2579.04,-325.99"/>
</g>
<!-- :core:ui&#45;&gt;:core:common -->
<g id="edge46" class="edge">
<title>:core:ui&#45;&gt;:core:common</title>
<path fill="none" stroke="black" d="M2658.62,-359.7C2666.22,-333.14 2679.36,-280.61 2679.36,-235 2679.36,-235 2679.36,-235 2679.36,-161 2679.36,-67.44 2985.89,-34.27 3137.48,-23.59"/>
<polygon fill="black" stroke="black" points="3137.94,-27.07 3147.68,-22.89 3137.46,-20.08 3137.94,-27.07"/>
</g>
<!-- :core:ui&#45;&gt;:core:model -->
<g id="edge45" class="edge">
<title>:core:ui&#45;&gt;:core:model</title>
<path fill="none" stroke="black" d="M2671.08,-361.38C2706.68,-330.54 2790.28,-260.97 2869.36,-216 2953.23,-168.31 3058.9,-128.69 3120.13,-107.55"/>
<polygon fill="black" stroke="black" points="3121.61,-110.75 3129.93,-104.2 3119.34,-104.13 3121.61,-110.75"/>
</g>
<!-- :core:ui&#45;&gt;:core:analytics -->
<g id="edge43" class="edge">
<title>:core:ui&#45;&gt;:core:analytics</title>
<path fill="none" stroke="black" d="M2693.54,-369.54C2731.45,-361.54 2789.18,-346.81 2835.36,-324 2870.91,-306.44 2906.93,-278.34 2930.3,-258.41"/>
<polygon fill="black" stroke="black" points="2932.75,-260.92 2938.02,-251.74 2928.17,-255.63 2932.75,-260.92"/>
</g>
<!-- :core:network&#45;&gt;:core:common -->
<g id="edge40" class="edge">
<title>:core:network&#45;&gt;:core:common</title>
<path fill="none" stroke="black" d="M3389.86,-215.9C3394.84,-197.18 3399.82,-166.8 3388.36,-144 3362.92,-93.37 3306.19,-58.06 3265.69,-38.17"/>
<polygon fill="black" stroke="black" points="3267.08,-34.96 3256.55,-33.81 3264.06,-41.28 3267.08,-34.96"/>
</g>
<!-- :core:network&#45;&gt;:core:datastore -->
<g id="edge42" class="edge">
<title>:core:network&#45;&gt;:core:datastore</title>
<path fill="none" stroke="red" stroke-width="2" d="M3359.35,-216.94C3344.5,-207.4 3325.47,-195.18 3309.28,-184.79"/>
<polygon fill="red" stroke="red" stroke-width="2" points="3310.93,-181.69 3300.63,-179.23 3307.15,-187.58 3310.93,-181.69"/>
</g>
<!-- :core:network&#45;&gt;:core:model -->
<g id="edge41" class="edge">
<title>:core:network&#45;&gt;:core:model</title>
<path fill="none" stroke="black" d="M3385.63,-215.87C3386.11,-195.97 3383.71,-163.39 3365.36,-144 3334.62,-111.52 3286.13,-98.24 3245.2,-93.1"/>
<polygon fill="black" stroke="black" points="3245.57,-89.62 3235.25,-91.99 3244.8,-96.58 3245.57,-89.62"/>
</g>
<!-- :core:designsystem&#45;&gt;:core:model -->
<g id="edge47" class="edge">
<title>:core:designsystem&#45;&gt;:core:model</title>
<path fill="none" stroke="black" d="M2563.17,-288.25C2606.01,-254.74 2708.33,-179.64 2807.36,-144 2903.08,-109.55 3020.68,-97.46 3095.58,-93.23"/>
<polygon fill="black" stroke="black" points="3096.06,-96.71 3105.86,-92.69 3095.69,-89.72 3096.06,-96.71"/>
</g>
<!-- :core:domain&#45;&gt;:core:data -->
<g id="edge49" class="edge">
<title>:core:domain&#45;&gt;:core:data</title>
<path fill="none" stroke="red" stroke-width="2" d="M4774.8,-365.38C4763.52,-363.21 4751.58,-361.24 4740.36,-360 4049.72,-283.57 3866.43,-413.4 3177.36,-324 3171.01,-323.18 3164.4,-322.01 3157.88,-320.68"/>
<polygon fill="red" stroke="red" stroke-width="2" points="3158.27,-317.19 3147.76,-318.47 3156.78,-324.02 3158.27,-317.19"/>
</g>
<!-- :core:domain&#45;&gt;:core:common -->
<g id="edge48" class="edge">
<title>:core:domain&#45;&gt;:core:common</title>
<path fill="none" stroke="black" d="M4766.62,-367.88C4601.19,-341.78 4143.36,-266.71 4143.36,-235 4143.36,-235 4143.36,-235 4143.36,-161 4143.36,-76.47 3530.84,-35.43 3303.75,-23.12"/>
<polygon fill="black" stroke="black" points="3303.73,-19.61 3293.56,-22.57 3303.35,-26.6 3303.73,-19.61"/>
</g>
<!-- :core:domain&#45;&gt;:core:model -->
<g id="edge50" class="edge">
<title>:core:domain&#45;&gt;:core:model</title>
<path fill="none" stroke="black" d="M4767.36,-367.53C4748.86,-364.77 4728.29,-361.97 4709.36,-360 4084.68,-294.95 3895.94,-451.36 3300.36,-252 3243.18,-232.86 3218.87,-230.13 3185.36,-180 3173.22,-161.84 3169.85,-137.06 3169.31,-118.26"/>
<polygon fill="black" stroke="black" points="3172.81,-118.23 3169.26,-108.25 3165.81,-118.26 3172.81,-118.23"/>
</g>
<!-- :feature:auth&#45;&gt;:core:data -->
<g id="edge53" class="edge">
<title>:feature:auth&#45;&gt;:core:data</title>
<path fill="none" stroke="black" d="M4759.61,-433.22C4720.44,-411.91 4646.05,-374.88 4577.36,-360 4273.2,-294.12 3485.93,-364.46 3177.36,-324 3171.01,-323.17 3164.4,-322 3157.88,-320.67"/>
<polygon fill="black" stroke="black" points="3158.28,-317.17 3147.76,-318.45 3156.78,-324.01 3158.28,-317.17"/>
</g>
<!-- :feature:auth&#45;&gt;:core:ui -->
<g id="edge51" class="edge">
<title>:feature:auth&#45;&gt;:core:ui</title>
<path fill="none" stroke="black" d="M4737.66,-436.96C4727.68,-434.97 4717.23,-433.17 4707.36,-432 4304.5,-384.41 2996.21,-379.55 2709.31,-379.05"/>
<polygon fill="black" stroke="black" points="2709.15,-375.55 2699.14,-379.04 2709.14,-382.55 2709.15,-375.55"/>
</g>
<!-- :feature:auth&#45;&gt;:core:designsystem -->
<g id="edge52" class="edge">
<title>:feature:auth&#45;&gt;:core:designsystem</title>
<path fill="none" stroke="black" d="M4736.76,-437.15C4727.04,-435.19 4716.92,-433.35 4707.36,-432 4303.09,-374.73 3029.73,-324.77 2650.16,-310.85"/>
<polygon fill="black" stroke="black" points="2650.13,-307.35 2640.01,-310.48 2649.87,-314.34 2650.13,-307.35"/>
</g>
<!-- :feature:auth&#45;&gt;:core:domain -->
<g id="edge54" class="edge">
<title>:feature:auth&#45;&gt;:core:domain</title>
<path fill="none" stroke="red" stroke-width="2" d="M4796.56,-432.05C4800.93,-424.01 4806.25,-414.2 4811.12,-405.23"/>
<polygon fill="red" stroke="red" stroke-width="2" points="4814.29,-406.73 4815.98,-396.28 4808.13,-403.39 4814.29,-406.73"/>
</g>
<!-- :libs:mifos&#45;passcode&#45;&gt;:core:data -->
<g id="edge57" class="edge">
<title>:libs:mifos&#45;passcode&#45;&gt;:core:data</title>
<path fill="none" stroke="black" d="M2289.27,-436.64C2342.06,-426.86 2416.14,-412.2 2480.36,-396 2533.94,-382.49 2545.19,-370.92 2599.36,-360 2755.42,-328.53 2942.49,-315.12 3039.94,-309.92"/>
<polygon fill="black" stroke="black" points="3040.14,-313.42 3049.94,-309.4 3039.77,-306.43 3040.14,-313.42"/>
</g>
<!-- :libs:mifos&#45;passcode&#45;&gt;:core:ui -->
<g id="edge55" class="edge">
<title>:libs:mifos&#45;passcode&#45;&gt;:core:ui</title>
<path fill="none" stroke="black" d="M2294.71,-437.54C2363.05,-427.05 2466.53,-410.93 2556.36,-396 2571.43,-393.49 2587.8,-390.67 2602.73,-388.05"/>
<polygon fill="black" stroke="black" points="2603.56,-391.45 2612.8,-386.27 2602.34,-384.56 2603.56,-391.45"/>
</g>
<!-- :libs:mifos&#45;passcode&#45;&gt;:core:designsystem -->
<g id="edge56" class="edge">
<title>:libs:mifos&#45;passcode&#45;&gt;:core:designsystem</title>
<path fill="none" stroke="black" d="M2255.78,-432.99C2314.95,-406.98 2431.81,-355.6 2496.53,-327.15"/>
<polygon fill="black" stroke="black" points="2498.32,-330.18 2506.07,-322.95 2495.5,-323.78 2498.32,-330.18"/>
</g>
<!-- :feature:home&#45;&gt;:core:data -->
<g id="edge60" class="edge">
<title>:feature:home&#45;&gt;:core:data</title>
<path fill="none" stroke="black" d="M3667.52,-437C3570.41,-414.9 3357,-366.18 3177.36,-324 3171.75,-322.68 3165.89,-321.3 3160.05,-319.91"/>
<polygon fill="black" stroke="black" points="3160.82,-316.49 3150.28,-317.58 3159.2,-323.3 3160.82,-316.49"/>
</g>
<!-- :feature:home&#45;&gt;:core:ui -->
<g id="edge58" class="edge">
<title>:feature:home&#45;&gt;:core:ui</title>
<path fill="none" stroke="black" d="M3667.69,-437.04C3657.35,-435.06 3646.55,-433.25 3636.36,-432 3278.68,-388.13 3185.8,-421.63 2826.36,-396 2786.26,-393.14 2741.04,-388.65 2706.9,-385.01"/>
<polygon fill="black" stroke="black" points="2706.99,-381.5 2696.67,-383.91 2706.24,-388.46 2706.99,-381.5"/>
</g>
<!-- :feature:home&#45;&gt;:core:designsystem -->
<g id="edge59" class="edge">
<title>:feature:home&#45;&gt;:core:designsystem</title>
<path fill="none" stroke="black" d="M3667.69,-437.06C3657.35,-435.08 3646.55,-433.26 3636.36,-432 3465.92,-410.9 3025.68,-454.91 2864.36,-396 2839.64,-386.97 2841.36,-370.78 2817.36,-360 2762.67,-335.44 2696.86,-322.25 2643.34,-315.16"/>
<polygon fill="black" stroke="black" points="2643.51,-311.66 2633.15,-313.87 2642.63,-318.6 2643.51,-311.66"/>
</g>
<!-- :feature:settings&#45;&gt;:core:data -->
<g id="edge63" class="edge">
<title>:feature:settings&#45;&gt;:core:data</title>
<path fill="none" stroke="black" d="M4399.43,-437.43C4388.42,-435.53 4377.07,-433.65 4366.36,-432 4122.26,-394.46 4061.26,-382.97 3815.36,-360 3532.58,-333.58 3458.36,-365.23 3177.36,-324 3171.1,-323.08 3164.59,-321.88 3158.16,-320.53"/>
<polygon fill="black" stroke="black" points="3158.69,-317.06 3148.17,-318.32 3157.17,-323.9 3158.69,-317.06"/>
</g>
<!-- :feature:settings&#45;&gt;:core:ui -->
<g id="edge61" class="edge">
<title>:feature:settings&#45;&gt;:core:ui</title>
<path fill="none" stroke="black" d="M4401.87,-436.87C4390.13,-434.92 4377.89,-433.16 4366.36,-432 3752.38,-370.03 3594.98,-420.12 2978.36,-396 2883.43,-392.29 2773,-386.12 2708.38,-382.32"/>
<polygon fill="black" stroke="black" points="2708.22,-378.8 2698.03,-381.71 2707.8,-385.79 2708.22,-378.8"/>
</g>
<!-- :feature:settings&#45;&gt;:core:designsystem -->
<g id="edge62" class="edge">
<title>:feature:settings&#45;&gt;:core:designsystem</title>
<path fill="none" stroke="black" d="M4401.87,-436.88C4390.13,-434.93 4377.89,-433.17 4366.36,-432 4217.07,-416.88 3157.82,-446.06 3016.36,-396 2991.55,-387.22 2993.71,-369.97 2969.36,-360 2912.6,-336.76 2752.98,-321.53 2645.8,-313.59"/>
<polygon fill="black" stroke="black" points="2645.83,-310.09 2635.6,-312.85 2645.32,-317.07 2645.83,-310.09"/>
</g>
<!-- :feature:faq&#45;&gt;:core:data -->
<g id="edge66" class="edge">
<title>:feature:faq&#45;&gt;:core:data</title>
<path fill="none" stroke="black" d="M4586.53,-437.49C4577.54,-435.5 4568.19,-433.56 4559.36,-432 4306.63,-387.21 4242.11,-381.72 3986.36,-360 3627.74,-329.54 3533.76,-374.13 3177.36,-324 3171.1,-323.12 3164.58,-321.94 3158.15,-320.6"/>
<polygon fill="black" stroke="black" points="3158.67,-317.13 3148.15,-318.4 3157.17,-323.97 3158.67,-317.13"/>
</g>
<!-- :feature:faq&#45;&gt;:core:ui -->
<g id="edge64" class="edge">
<title>:feature:faq&#45;&gt;:core:ui</title>
<path fill="none" stroke="black" d="M4587.83,-437.02C4578.47,-434.99 4568.65,-433.16 4559.36,-432 4219.03,-389.39 3359.13,-408.02 3016.36,-396 2906.99,-392.16 2779.16,-385.72 2708.11,-381.97"/>
<polygon fill="black" stroke="black" points="2708.22,-378.47 2698.05,-381.43 2707.85,-385.46 2708.22,-378.47"/>
</g>
<!-- :feature:faq&#45;&gt;:core:designsystem -->
<g id="edge65" class="edge">
<title>:feature:faq&#45;&gt;:core:designsystem</title>
<path fill="none" stroke="black" d="M4587.39,-437.21C4578.16,-435.19 4568.49,-433.32 4559.36,-432 4556.36,-431.57 3057.55,-338.86 2645.89,-313.4"/>
<polygon fill="black" stroke="black" points="2645.98,-309.9 2635.78,-312.78 2645.54,-316.89 2645.98,-309.9"/>
</g>
<!-- :feature:editpassword&#45;&gt;:core:data -->
<g id="edge69" class="edge">
<title>:feature:editpassword&#45;&gt;:core:data</title>
<path fill="none" stroke="black" d="M318.34,-436.95C332.62,-435.05 347.42,-433.29 361.36,-432 635.48,-406.56 2646.99,-325.37 3039.91,-309.65"/>
<polygon fill="black" stroke="black" points="3040.13,-313.14 3049.98,-309.25 3039.85,-306.15 3040.13,-313.14"/>
</g>
<!-- :feature:editpassword&#45;&gt;:core:ui -->
<g id="edge67" class="edge">
<title>:feature:editpassword&#45;&gt;:core:ui</title>
<path fill="none" stroke="black" d="M317.02,-436.82C331.7,-434.89 346.98,-433.15 361.36,-432 1148.78,-368.94 1348.7,-417.03 2138.36,-396 2305.79,-391.54 2503.79,-384.51 2598.08,-381.06"/>
<polygon fill="black" stroke="black" points="2598.38,-384.55 2608.24,-380.68 2598.12,-377.55 2598.38,-384.55"/>
</g>
<!-- :feature:editpassword&#45;&gt;:core:designsystem -->
<g id="edge68" class="edge">
<title>:feature:editpassword&#45;&gt;:core:designsystem</title>
<path fill="none" stroke="black" d="M299.25,-434.64C387.37,-413.87 559.05,-376.17 707.36,-360 1044.35,-323.26 2088.33,-310.98 2431.66,-307.88"/>
<polygon fill="black" stroke="black" points="2431.89,-311.38 2441.86,-307.79 2431.83,-304.38 2431.89,-311.38"/>
</g>
<!-- :feature:profile&#45;&gt;:core:data -->
<g id="edge72" class="edge">
<title>:feature:profile&#45;&gt;:core:data</title>
<path fill="none" stroke="black" d="M505.69,-436.96C516.79,-434.96 528.41,-433.16 539.36,-432 627.72,-422.63 2056.19,-429.82 2138.36,-396 2159.87,-387.15 2155,-369.22 2176.36,-360 2215.89,-342.93 2833.62,-317.57 3039.89,-309.54"/>
<polygon fill="black" stroke="black" points="3040.12,-313.03 3049.98,-309.14 3039.85,-306.03 3040.12,-313.03"/>
</g>
<!-- :feature:profile&#45;&gt;:core:ui -->
<g id="edge70" class="edge">
<title>:feature:profile&#45;&gt;:core:ui</title>
<path fill="none" stroke="black" d="M505.69,-436.95C516.79,-434.95 528.41,-433.16 539.36,-432 901.21,-393.73 1812.64,-406.48 2176.36,-396 2329.14,-391.6 2509.38,-384.71 2598.2,-381.21"/>
<polygon fill="black" stroke="black" points="2598.46,-384.7 2608.32,-380.81 2598.19,-377.71 2598.46,-384.7"/>
</g>
<!-- :feature:profile&#45;&gt;:core:designsystem -->
<g id="edge71" class="edge">
<title>:feature:profile&#45;&gt;:core:designsystem</title>
<path fill="none" stroke="black" d="M504,-436.55C593.73,-416.34 780.22,-376.94 940.36,-360 1230.32,-329.34 2119.03,-313.36 2431.94,-308.57"/>
<polygon fill="black" stroke="black" points="2432.44,-312.07 2442.38,-308.41 2432.33,-305.07 2432.44,-312.07"/>
</g>
<!-- :feature:history&#45;&gt;:core:data -->
<g id="edge75" class="edge">
<title>:feature:history&#45;&gt;:core:data</title>
<path fill="none" stroke="black" d="M689.07,-436.9C700.39,-434.93 712.21,-433.16 723.36,-432 883.98,-415.28 2027.09,-457.63 2176.36,-396 2197.86,-387.12 2193.01,-369.25 2214.36,-360 2252.09,-343.65 2839.4,-318.02 3039.89,-309.7"/>
<polygon fill="black" stroke="black" points="3040.14,-313.2 3049.99,-309.28 3039.85,-306.2 3040.14,-313.2"/>
</g>
<!-- :feature:history&#45;&gt;:core:ui -->
<g id="edge73" class="edge">
<title>:feature:history&#45;&gt;:core:ui</title>
<path fill="none" stroke="black" d="M689.07,-436.89C700.39,-434.93 712.21,-433.16 723.36,-432 1053.02,-397.78 1883.09,-406.41 2214.36,-396 2352.35,-391.66 2514.68,-384.96 2597.94,-381.41"/>
<polygon fill="black" stroke="black" points="2598.34,-384.89 2608.18,-380.97 2598.04,-377.9 2598.34,-384.89"/>
</g>
<!-- :feature:history&#45;&gt;:core:designsystem -->
<g id="edge74" class="edge">
<title>:feature:history&#45;&gt;:core:designsystem</title>
<path fill="none" stroke="black" d="M692.2,-437.57C702.59,-435.67 713.28,-433.75 723.36,-432 772.38,-423.48 1115.85,-364.97 1165.36,-360 1634.18,-312.97 2196.64,-306.94 2431.19,-306.65"/>
<polygon fill="black" stroke="black" points="2431.43,-310.15 2441.43,-306.64 2431.43,-303.15 2431.43,-310.15"/>
</g>
<!-- :feature:payments&#45;&gt;:core:data -->
<g id="edge78" class="edge">
<title>:feature:payments&#45;&gt;:core:data</title>
<path fill="none" stroke="black" d="M894.28,-436.96C907.2,-434.99 920.67,-433.2 933.36,-432 1075.12,-418.59 2082.84,-450.56 2214.36,-396 2235.85,-387.09 2231.02,-369.28 2252.36,-360 2288.31,-344.37 2845.66,-318.48 3040.07,-309.88"/>
<polygon fill="black" stroke="black" points="3040.32,-313.37 3050.16,-309.43 3040.01,-306.38 3040.32,-313.37"/>
</g>
<!-- :feature:payments&#45;&gt;:core:ui -->
<g id="edge76" class="edge">
<title>:feature:payments&#45;&gt;:core:ui</title>
<path fill="none" stroke="black" d="M894.28,-436.95C907.2,-434.98 920.67,-433.19 933.36,-432 1517.22,-377.01 1666.27,-416.42 2252.36,-396 2375.99,-391.69 2520.99,-385.18 2598.27,-381.6"/>
<polygon fill="black" stroke="black" points="2598.44,-385.09 2608.26,-381.13 2598.11,-378.1 2598.44,-385.09"/>
</g>
<!-- :feature:payments&#45;&gt;:core:designsystem -->
<g id="edge77" class="edge">
<title>:feature:payments&#45;&gt;:core:designsystem</title>
<path fill="none" stroke="black" d="M898.1,-437.64C909.87,-435.75 921.96,-433.81 933.36,-432 1036.42,-415.66 1063.23,-417.38 1165.36,-396 1226.56,-383.19 1239.54,-369.39 1301.36,-360 1517.67,-327.15 2170.75,-313.08 2432.3,-308.65"/>
<polygon fill="black" stroke="black" points="2432.63,-312.15 2442.57,-308.48 2432.52,-305.15 2432.63,-312.15"/>
</g>
<!-- :feature:finance&#45;&gt;:core:data -->
<g id="edge81" class="edge">
<title>:feature:finance&#45;&gt;:core:data</title>
<path fill="none" stroke="black" d="M1083.07,-436.96C1094.4,-434.99 1106.22,-433.2 1117.36,-432 1242.81,-418.5 2135.9,-444.56 2252.36,-396 2273.83,-387.05 2269.04,-369.31 2290.36,-360 2324.51,-345.09 2851.79,-318.97 3040.13,-310.07"/>
<polygon fill="black" stroke="black" points="3040.35,-313.57 3050.17,-309.6 3040.02,-306.57 3040.35,-313.57"/>
</g>
<!-- :feature:finance&#45;&gt;:core:ui -->
<g id="edge79" class="edge">
<title>:feature:finance&#45;&gt;:core:ui</title>
<path fill="none" stroke="black" d="M1083.07,-436.95C1094.4,-434.98 1106.22,-433.19 1117.36,-432 1635.97,-376.45 1769.17,-416.2 2290.36,-396 2399.57,-391.77 2527.19,-385.48 2598.31,-381.85"/>
<polygon fill="black" stroke="black" points="2598.57,-385.35 2608.38,-381.34 2598.21,-378.35 2598.57,-385.35"/>
</g>
<!-- :feature:finance&#45;&gt;:core:designsystem -->
<g id="edge80" class="edge">
<title>:feature:finance&#45;&gt;:core:designsystem</title>
<path fill="none" stroke="black" d="M1086.13,-437.59C1160.96,-423.51 1280.72,-400.81 1301.36,-396 1360.16,-382.3 1372.73,-369.5 1432.36,-360 1622.65,-329.69 2191.81,-314.41 2432.72,-309.16"/>
<polygon fill="black" stroke="black" points="2432.97,-312.66 2442.9,-308.94 2432.82,-305.66 2432.97,-312.66"/>
</g>
<!-- :feature:accounts&#45;&gt;:core:data -->
<g id="edge84" class="edge">
<title>:feature:accounts&#45;&gt;:core:data</title>
<path fill="none" stroke="black" d="M1280.4,-436.99C1292.62,-435.03 1305.36,-433.24 1317.36,-432 1424.97,-420.91 2190.62,-437.9 2290.36,-396 2311.81,-386.99 2307.05,-369.34 2328.36,-360 2392.6,-331.83 2862.72,-314.54 3039.45,-308.97"/>
<polygon fill="black" stroke="black" points="3039.77,-312.46 3049.65,-308.65 3039.55,-305.47 3039.77,-312.46"/>
</g>
<!-- :feature:accounts&#45;&gt;:core:ui -->
<g id="edge82" class="edge">
<title>:feature:accounts&#45;&gt;:core:ui</title>
<path fill="none" stroke="black" d="M1280.4,-436.98C1292.62,-435.02 1305.36,-433.23 1317.36,-432 1764.64,-386.22 1879.17,-415.74 2328.36,-396 2423.27,-391.83 2533.7,-385.8 2598.33,-382.16"/>
<polygon fill="black" stroke="black" points="2598.9,-385.63 2608.69,-381.57 2598.5,-378.64 2598.9,-385.63"/>
</g>
<!-- :feature:accounts&#45;&gt;:core:designsystem -->
<g id="edge83" class="edge">
<title>:feature:accounts&#45;&gt;:core:designsystem</title>
<path fill="none" stroke="black" d="M1269.13,-435.07C1346.6,-414.85 1497.61,-377.84 1628.36,-360 1916.34,-320.71 2259.25,-310.51 2431.68,-307.89"/>
<polygon fill="black" stroke="black" points="2431.84,-311.38 2441.78,-307.74 2431.73,-304.38 2431.84,-311.38"/>
</g>
<!-- :feature:invoices&#45;&gt;:core:data -->
<g id="edge87" class="edge">
<title>:feature:invoices&#45;&gt;:core:data</title>
<path fill="none" stroke="black" d="M1475.13,-437C1486.78,-435.05 1498.92,-433.26 1510.36,-432 1600.79,-422.05 2244.61,-431.53 2328.36,-396 2349.78,-386.92 2345.07,-369.38 2366.36,-360 2427.07,-333.25 2869.41,-315.23 3039.75,-309.21"/>
<polygon fill="black" stroke="black" points="3039.97,-312.71 3049.84,-308.86 3039.72,-305.71 3039.97,-312.71"/>
</g>
<!-- :feature:invoices&#45;&gt;:core:ui -->
<g id="edge85" class="edge">
<title>:feature:invoices&#45;&gt;:core:ui</title>
<path fill="none" stroke="black" d="M1475.13,-436.98C1486.78,-435.03 1498.92,-433.25 1510.36,-432 1888.89,-390.71 1986.07,-415.26 2366.36,-396 2447.24,-391.9 2540.89,-386.17 2598.63,-382.52"/>
<polygon fill="black" stroke="black" points="2598.87,-386.01 2608.63,-381.89 2598.43,-379.03 2598.87,-386.01"/>
</g>
<!-- :feature:invoices&#45;&gt;:core:designsystem -->
<g id="edge86" class="edge">
<title>:feature:invoices&#45;&gt;:core:designsystem</title>
<path fill="none" stroke="black" d="M1465.91,-435.33C1543.05,-415.44 1693.37,-378.84 1823.36,-360 2038.32,-328.85 2292.23,-315.58 2433.51,-310.26"/>
<polygon fill="black" stroke="black" points="2434.04,-313.74 2443.9,-309.87 2433.78,-306.75 2434.04,-313.74"/>
</g>
<!-- :feature:kyc&#45;&gt;:core:data -->
<g id="edge90" class="edge">
<title>:feature:kyc&#45;&gt;:core:data</title>
<path fill="none" stroke="black" d="M1631.31,-437.13C1640.55,-435.12 1650.22,-433.27 1659.36,-432 1815.17,-410.31 2221.75,-457.93 2366.36,-396 2387.75,-386.84 2383.09,-369.42 2404.36,-360 2461.5,-334.7 2875.35,-316 3039.52,-309.5"/>
<polygon fill="black" stroke="black" points="3040.11,-312.98 3049.97,-309.09 3039.84,-305.98 3040.11,-312.98"/>
</g>
<!-- :feature:kyc&#45;&gt;:core:ui -->
<g id="edge88" class="edge">
<title>:feature:kyc&#45;&gt;:core:ui</title>
<path fill="none" stroke="black" d="M1631.31,-437.11C1640.54,-435.1 1650.22,-433.26 1659.36,-432 1987.75,-386.71 2073.42,-415.29 2404.36,-396 2471.33,-392.1 2548.38,-386.7 2598.81,-383.04"/>
<polygon fill="black" stroke="black" points="2599.13,-386.52 2608.85,-382.31 2598.62,-379.54 2599.13,-386.52"/>
</g>
<!-- :feature:kyc&#45;&gt;:core:designsystem -->
<g id="edge89" class="edge">
<title>:feature:kyc&#45;&gt;:core:designsystem</title>
<path fill="none" stroke="black" d="M1633.48,-437.74C1642.09,-435.78 1650.98,-433.8 1659.36,-432 1818.89,-397.73 1858,-384.25 2019.36,-360 2165.15,-338.09 2335.19,-322.72 2440.83,-314.37"/>
<polygon fill="black" stroke="black" points="2441.16,-317.86 2450.85,-313.59 2440.61,-310.88 2441.16,-317.86"/>
</g>
<!-- :feature:notification&#45;&gt;:core:data -->
<g id="edge93" class="edge">
<title>:feature:notification&#45;&gt;:core:data</title>
<path fill="none" stroke="black" d="M1843.19,-437.11C1856.2,-435.21 1869.67,-433.41 1882.36,-432 1997.93,-419.19 2297.89,-442.73 2404.36,-396 2425.66,-386.65 2421.11,-369.47 2442.36,-360 2496.01,-336.1 2882.71,-316.76 3040.04,-309.79"/>
<polygon fill="black" stroke="black" points="3040.23,-313.28 3050.06,-309.35 3039.92,-306.29 3040.23,-313.28"/>
</g>
<!-- :feature:notification&#45;&gt;:core:ui -->
<g id="edge91" class="edge">
<title>:feature:notification&#45;&gt;:core:ui</title>
<path fill="none" stroke="black" d="M1843.19,-437.06C1856.2,-435.16 1869.66,-433.38 1882.36,-432 2130.31,-405.1 2193.61,-414.02 2442.36,-396 2495.69,-392.14 2556.56,-387.17 2599.17,-383.61"/>
<polygon fill="black" stroke="black" points="2599.65,-387.08 2609.33,-382.76 2599.07,-380.11 2599.65,-387.08"/>
</g>
<!-- :feature:notification&#45;&gt;:core:designsystem -->
<g id="edge92" class="edge">
<title>:feature:notification&#45;&gt;:core:designsystem</title>
<path fill="none" stroke="black" d="M1831.77,-435.41C1914.48,-417.04 2067.74,-383.84 2199.36,-360 2286.25,-344.26 2386.05,-329.18 2455.52,-319.15"/>
<polygon fill="black" stroke="black" points="2456.14,-322.6 2465.54,-317.71 2455.14,-315.67 2456.14,-322.6"/>
</g>
<!-- :feature:savedcards&#45;&gt;:core:data -->
<g id="edge96" class="edge">
<title>:feature:savedcards&#45;&gt;:core:data</title>
<path fill="none" stroke="black" d="M2067.79,-437.38C2080.63,-435.49 2093.88,-433.62 2106.36,-432 2255.31,-412.73 2306,-458.96 2442.36,-396 2463.48,-386.25 2459.13,-369.52 2480.36,-360 2578.67,-315.93 2898.05,-308.31 3038.75,-307.13"/>
<polygon fill="black" stroke="black" points="3039,-310.63 3048.97,-307.06 3038.94,-303.63 3039,-310.63"/>
</g>
<!-- :feature:savedcards&#45;&gt;:core:ui -->
<g id="edge94" class="edge">
<title>:feature:savedcards&#45;&gt;:core:ui</title>
<path fill="none" stroke="black" d="M2067.48,-437.31C2080.42,-435.41 2093.77,-433.56 2106.36,-432 2272.08,-411.46 2314.15,-412.17 2480.36,-396 2520.24,-392.12 2565.28,-387.69 2599.41,-384.33"/>
<polygon fill="black" stroke="black" points="2600.03,-387.79 2609.63,-383.32 2599.34,-380.82 2600.03,-387.79"/>
</g>
<!-- :feature:savedcards&#45;&gt;:core:designsystem -->
<g id="edge95" class="edge">
<title>:feature:savedcards&#45;&gt;:core:designsystem</title>
<path fill="none" stroke="black" d="M2049.41,-434.73C2151.4,-408.31 2369.21,-351.87 2477.9,-323.7"/>
<polygon fill="black" stroke="black" points="2478.95,-327.05 2487.75,-321.15 2477.19,-320.27 2478.95,-327.05"/>
</g>
<!-- :feature:receipt&#45;&gt;:core:data -->
<g id="edge99" class="edge">
<title>:feature:receipt&#45;&gt;:core:data</title>
<path fill="none" stroke="black" d="M2486.59,-437.98C2544.01,-427.66 2631.58,-411.54 2707.36,-396 2830.95,-370.65 2975.3,-337.59 3051.98,-319.75"/>
<polygon fill="black" stroke="black" points="3052.94,-323.12 3061.89,-317.44 3051.35,-316.3 3052.94,-323.12"/>
</g>
<!-- :feature:receipt&#45;&gt;:core:ui -->
<g id="edge97" class="edge">
<title>:feature:receipt&#45;&gt;:core:ui</title>
<path fill="none" stroke="black" d="M2470.43,-434.92C2510.76,-422.59 2568.99,-404.79 2608.86,-392.6"/>
<polygon fill="black" stroke="black" points="2610.03,-395.9 2618.57,-389.63 2607.99,-389.21 2610.03,-395.9"/>
</g>
<!-- :feature:receipt&#45;&gt;:core:designsystem -->
<g id="edge98" class="edge">
<title>:feature:receipt&#45;&gt;:core:designsystem</title>
<path fill="none" stroke="black" d="M2438.36,-432.15C2458.92,-407.41 2497.42,-361.08 2521.37,-332.25"/>
<polygon fill="black" stroke="black" points="2524.31,-334.2 2528.01,-324.27 2518.93,-329.72 2524.31,-334.2"/>
</g>
<!-- :feature:standing&#45;instruction&#45;&gt;:core:data -->
<g id="edge102" class="edge">
<title>:feature:standing&#45;instruction&#45;&gt;:core:data</title>
<path fill="none" stroke="black" d="M2822.57,-439.11C2925.49,-429.26 3062.96,-413.15 3082.36,-396 3099.64,-380.73 3105.07,-354.45 3106.51,-334.39"/>
<polygon fill="black" stroke="black" points="3110.02,-334.43 3106.95,-324.28 3103.02,-334.12 3110.02,-334.43"/>
</g>
<!-- :feature:standing&#45;instruction&#45;&gt;:core:ui -->
<g id="edge100" class="edge">
<title>:feature:standing&#45;instruction&#45;&gt;:core:ui</title>
<path fill="none" stroke="black" d="M2694.29,-432.05C2687.62,-423.42 2679.4,-412.76 2672.08,-403.27"/>
<polygon fill="black" stroke="black" points="2674.82,-401.09 2665.94,-395.31 2669.28,-405.36 2674.82,-401.09"/>
</g>
<!-- :feature:standing&#45;instruction&#45;&gt;:core:designsystem -->
<g id="edge101" class="edge">
<title>:feature:standing&#45;instruction&#45;&gt;:core:designsystem</title>
<path fill="none" stroke="black" d="M2661.2,-432.92C2640.69,-424.21 2617.2,-411.92 2599.36,-396 2579.69,-378.44 2564.14,-352.55 2554.28,-333.21"/>
<polygon fill="black" stroke="black" points="2557.33,-331.48 2549.78,-324.04 2551.05,-334.56 2557.33,-331.48"/>
</g>
<!-- :feature:request&#45;money&#45;&gt;:core:data -->
<g id="edge105" class="edge">
<title>:feature:request&#45;money&#45;&gt;:core:data</title>
<path fill="none" stroke="black" d="M3075.54,-433.28C3092.82,-425.05 3110.46,-413.03 3120.36,-396 3131.42,-376.97 3126.09,-351.97 3119.05,-333.31"/>
<polygon fill="black" stroke="black" points="3122.23,-331.84 3115.17,-323.94 3115.76,-334.52 3122.23,-331.84"/>
</g>
<!-- :feature:request&#45;money&#45;&gt;:core:ui -->
<g id="edge103" class="edge">
<title>:feature:request&#45;money&#45;&gt;:core:ui</title>
<path fill="none" stroke="black" d="M2941.95,-437.32C2878.29,-427.96 2789.42,-413.52 2712.36,-396 2707.67,-394.93 2702.8,-393.71 2697.96,-392.43"/>
<polygon fill="black" stroke="black" points="2698.7,-389 2688.13,-389.73 2696.85,-395.75 2698.7,-389"/>
</g>
<!-- :feature:request&#45;money&#45;&gt;:core:designsystem -->
<g id="edge104" class="edge">
<title>:feature:request&#45;money&#45;&gt;:core:designsystem</title>
<path fill="none" stroke="black" d="M2941.62,-437.41C2873.23,-427.28 2783.59,-411.77 2750.36,-396 2727.84,-385.32 2729.19,-372.03 2707.36,-360 2678.12,-343.88 2643.24,-331.78 2613.09,-323.24"/>
<polygon fill="black" stroke="black" points="2613.63,-319.76 2603.06,-320.48 2611.77,-326.51 2613.63,-319.76"/>
</g>
<!-- :feature:send&#45;money&#45;&gt;:core:data -->
<g id="edge108" class="edge">
<title>:feature:send&#45;money&#45;&gt;:core:data</title>
<path fill="none" stroke="black" d="M3251.78,-432.15C3222.27,-406.76 3166.31,-358.6 3133.08,-329.99"/>
<polygon fill="black" stroke="black" points="3135.01,-327.04 3125.15,-323.17 3130.44,-332.35 3135.01,-327.04"/>
</g>
<!-- :feature:send&#45;money&#45;&gt;:core:ui -->
<g id="edge106" class="edge">
<title>:feature:send&#45;money&#45;&gt;:core:ui</title>
<path fill="none" stroke="black" d="M3196.28,-437.26C3183,-435.36 3169.29,-433.53 3156.36,-432 2976.46,-410.75 2929.96,-419.66 2750.36,-396 2735.07,-393.99 2718.52,-391.28 2703.49,-388.62"/>
<polygon fill="black" stroke="black" points="2703.82,-385.13 2693.36,-386.8 2702.58,-392.02 2703.82,-385.13"/>
</g>
<!-- :feature:send&#45;money&#45;&gt;:core:designsystem -->
<g id="edge107" class="edge">
<title>:feature:send&#45;money&#45;&gt;:core:designsystem</title>
<path fill="none" stroke="black" d="M3195.96,-437.31C3182.78,-435.42 3169.18,-433.57 3156.36,-432 2993.25,-411.98 2940.6,-457.89 2788.36,-396 2764.63,-386.35 2766.24,-371.51 2743.36,-360 2706.52,-341.46 2662.51,-328.91 2625.08,-320.7"/>
<polygon fill="black" stroke="black" points="2625.72,-317.25 2615.21,-318.6 2624.26,-324.1 2625.72,-317.25"/>
</g>
<!-- :feature:make&#45;transfer&#45;&gt;:core:data -->
<g id="edge111" class="edge">
<title>:feature:make&#45;transfer&#45;&gt;:core:data</title>
<path fill="none" stroke="black" d="M3466.47,-433.26C3389.05,-406.12 3231.19,-350.77 3152.74,-323.26"/>
<polygon fill="black" stroke="black" points="3153.72,-319.9 3143.13,-319.89 3151.41,-326.5 3153.72,-319.9"/>
</g>
<!-- :feature:make&#45;transfer&#45;&gt;:core:ui -->
<g id="edge109" class="edge">
<title>:feature:make&#45;transfer&#45;&gt;:core:ui</title>
<path fill="none" stroke="black" d="M3430.44,-437.09C3415.79,-435.19 3400.64,-433.4 3386.36,-432 3121.37,-406.04 3053.47,-420.65 2788.36,-396 2760.97,-393.45 2730.56,-389.71 2705.55,-386.38"/>
<polygon fill="black" stroke="black" points="2705.92,-382.9 2695.54,-385.03 2704.98,-389.83 2705.92,-382.9"/>
</g>
<!-- :feature:make&#45;transfer&#45;&gt;:core:designsystem -->
<g id="edge110" class="edge">
<title>:feature:make&#45;transfer&#45;&gt;:core:designsystem</title>
<path fill="none" stroke="black" d="M3430.1,-437.1C3415.55,-435.21 3400.52,-433.42 3386.36,-432 3262.28,-419.59 2942.88,-440.41 2826.36,-396 2802.1,-386.75 2803.83,-371.09 2780.36,-360 2735.08,-338.6 2680.83,-325.66 2635.56,-317.93"/>
<polygon fill="black" stroke="black" points="2635.89,-314.44 2625.45,-316.26 2634.75,-321.34 2635.89,-314.44"/>
</g>
<!-- :feature:qr&#45;&gt;:core:data -->
<g id="edge114" class="edge">
<title>:feature:qr&#45;&gt;:core:data</title>
<path fill="none" stroke="black" d="M3829.62,-437.79C3821.24,-435.79 3812.55,-433.78 3804.36,-432 3638.08,-395.91 3596.17,-388.09 3428.36,-360 3317.21,-341.4 3288.06,-345.14 3177.36,-324 3171.54,-322.89 3165.47,-321.61 3159.45,-320.28"/>
<polygon fill="black" stroke="black" points="3159.93,-316.8 3149.4,-317.98 3158.37,-323.62 3159.93,-316.8"/>
</g>
<!-- :feature:qr&#45;&gt;:core:ui -->
<g id="edge112" class="edge">
<title>:feature:qr&#45;&gt;:core:ui</title>
<path fill="none" stroke="black" d="M3831.68,-437.2C3822.72,-435.13 3813.28,-433.24 3804.36,-432 3390.26,-374.38 3281.71,-420.79 2864.36,-396 2810.98,-392.83 2750.12,-387.77 2707.52,-384"/>
<polygon fill="black" stroke="black" points="2707.64,-380.49 2697.37,-383.09 2707.02,-387.46 2707.64,-380.49"/>
</g>
<!-- :feature:qr&#45;&gt;:core:designsystem -->
<g id="edge113" class="edge">
<title>:feature:qr&#45;&gt;:core:designsystem</title>
<path fill="none" stroke="black" d="M3831.68,-437.21C3822.72,-435.14 3813.28,-433.25 3804.36,-432 3605.69,-404.19 3091.02,-464.18 2902.36,-396 2877.61,-387.06 2879.48,-370.5 2855.36,-360 2790.26,-331.65 2711.42,-318.41 2649.15,-312.26"/>
<polygon fill="black" stroke="black" points="2649.19,-308.75 2638.91,-311.29 2648.53,-315.71 2649.19,-308.75"/>
</g>
<!-- :feature:merchants&#45;&gt;:core:data -->
<g id="edge117" class="edge">
<title>:feature:merchants&#45;&gt;:core:data</title>
<path fill="none" stroke="black" d="M3988.32,-436.21C3892.07,-417.35 3704.24,-381.95 3543.36,-360 3381.41,-337.91 3338.55,-351.09 3177.36,-324 3171.43,-323 3165.27,-321.79 3159.15,-320.48"/>
<polygon fill="black" stroke="black" points="3159.49,-316.97 3148.97,-318.2 3157.96,-323.8 3159.49,-316.97"/>
</g>
<!-- :feature:merchants&#45;&gt;:core:ui -->
<g id="edge115" class="edge">
<title>:feature:merchants&#45;&gt;:core:ui</title>
<path fill="none" stroke="black" d="M3983.32,-436.95C3970.09,-435.01 3956.32,-433.23 3943.36,-432 3482.49,-388.25 3364.69,-419.77 2902.36,-396 2835.36,-392.56 2758.32,-387.06 2707.89,-383.25"/>
<polygon fill="black" stroke="black" points="2708.1,-379.76 2697.86,-382.49 2707.57,-386.74 2708.1,-379.76"/>
</g>
<!-- :feature:merchants&#45;&gt;:core:designsystem -->
<g id="edge116" class="edge">
<title>:feature:merchants&#45;&gt;:core:designsystem</title>
<path fill="none" stroke="black" d="M3983.32,-436.97C3970.09,-435.02 3956.32,-433.24 3943.36,-432 3832.35,-421.39 3045.31,-433.69 2940.36,-396 2915.6,-387.11 2917.58,-370.29 2893.36,-360 2816.86,-327.5 2723.55,-314.53 2652.37,-309.54"/>
<polygon fill="black" stroke="black" points="2652.24,-306.02 2642.03,-308.86 2651.78,-313.01 2652.24,-306.02"/>
</g>
<!-- :feature:upi&#45;setup&#45;&gt;:core:data -->
<g id="edge120" class="edge">
<title>:feature:upi&#45;setup&#45;&gt;:core:data</title>
<path fill="none" stroke="black" d="M4195.24,-437.58C4183.61,-435.68 4171.64,-433.76 4160.36,-432 3942.87,-398.08 3889.16,-384.03 3670.36,-360 3451.98,-336.01 3394.46,-357.69 3177.36,-324 3171.19,-323.04 3164.78,-321.83 3158.43,-320.48"/>
<polygon fill="black" stroke="black" points="3159.08,-317.04 3148.56,-318.29 3157.56,-323.88 3159.08,-317.04"/>
</g>
<!-- :feature:upi&#45;setup&#45;&gt;:core:ui -->
<g id="edge118" class="edge">
<title>:feature:upi&#45;setup&#45;&gt;:core:ui</title>
<path fill="none" stroke="black" d="M4198.7,-436.97C4186.03,-435 4172.81,-433.21 4160.36,-432 3620.43,-379.71 3482.28,-420.04 2940.36,-396 2859.45,-392.41 2765.81,-386.54 2708.08,-382.73"/>
<polygon fill="black" stroke="black" points="2708.29,-379.23 2698.08,-382.06 2707.82,-386.22 2708.29,-379.23"/>
</g>
<!-- :feature:upi&#45;setup&#45;&gt;:core:designsystem -->
<g id="edge119" class="edge">
<title>:feature:upi&#45;setup&#45;&gt;:core:designsystem</title>
<path fill="none" stroke="black" d="M4198.7,-436.98C4186.03,-435 4172.81,-433.21 4160.36,-432 4029.58,-419.27 3102.14,-440.07 2978.36,-396 2953.57,-387.17 2955.65,-370.11 2931.36,-360 2880.84,-338.97 2740.66,-323.47 2643.17,-314.84"/>
<polygon fill="black" stroke="black" points="2643.25,-311.33 2632.98,-313.95 2642.64,-318.3 2643.25,-311.33"/>
</g>
<!-- :core:datastore&#45;&gt;:core:common -->
<g id="edge38" class="edge">
<title>:core:datastore&#45;&gt;:core:common</title>
<path fill="none" stroke="black" d="M3269.87,-143.77C3264,-125.72 3254.2,-96.61 3244.36,-72 3240.82,-63.14 3236.62,-53.6 3232.74,-45.1"/>
<polygon fill="black" stroke="black" points="3235.91,-43.62 3228.54,-36.02 3229.56,-46.56 3235.91,-43.62"/>
</g>
<!-- :core:datastore&#45;&gt;:core:model -->
<g id="edge37" class="edge">
<title>:core:datastore&#45;&gt;:core:model</title>
<path fill="none" stroke="red" stroke-width="2" d="M3251.01,-144.76C3236.59,-135.15 3218.16,-122.87 3202.55,-112.46"/>
<polygon fill="red" stroke="red" stroke-width="2" points="3204.48,-109.54 3194.22,-106.91 3200.6,-115.37 3204.48,-109.54"/>
</g>
<!-- :core:model&#45;&gt;:core:common -->
<g id="edge39" class="edge">
<title>:core:model&#45;&gt;:core:common</title>
<path fill="none" stroke="red" stroke-width="2" d="M3182.46,-72.05C3188.48,-63.63 3195.87,-53.28 3202.53,-43.97"/>
<polygon fill="red" stroke="red" stroke-width="2" points="3205.4,-45.96 3208.37,-35.79 3199.71,-41.89 3205.4,-45.96"/>
</g>
</g>
</svg>
