<?xml version="1.0" encoding="UTF-8" standalone="no"?>
<!DOCTYPE svg PUBLIC "-//W3C//DTD SVG 1.1//EN"
 "http://www.w3.org/Graphics/SVG/1.1/DTD/svg11.dtd">
<!-- Generated by graphviz version 2.43.0 (0)
 -->
<!-- Title: G Pages: 1 -->
<svg width="478pt" height="260pt"
 viewBox="0.00 0.00 478.39 260.00" xmlns="http://www.w3.org/2000/svg" xmlns:xlink="http://www.w3.org/1999/xlink">
<g id="graph0" class="graph" transform="scale(1 1) rotate(0) translate(4 256)">
<title>G</title>
<polygon fill="white" stroke="transparent" points="-4,4 -4,-256 474.39,-256 474.39,4 -4,4"/>
<!-- :core:ui -->
<g id="node1" class="node">
<title>:core:ui</title>
<ellipse fill="none" stroke="black" cx="338.99" cy="-234" rx="45.49" ry="18"/>
<text text-anchor="middle" x="338.99" y="-230.3" font-family="Times,serif" font-size="14.00">:core:ui</text>
</g>
<!-- :core:analytics -->
<g id="node2" class="node">
<title>:core:analytics</title>
<ellipse fill="none" stroke="black" cx="77.99" cy="-162" rx="77.99" ry="18"/>
<text text-anchor="middle" x="77.99" y="-158.3" font-family="Times,serif" font-size="14.00">:core:analytics</text>
</g>
<!-- :core:ui&#45;&gt;:core:analytics -->
<g id="edge1" class="edge">
<title>:core:ui&#45;&gt;:core:analytics</title>
<path fill="none" stroke="black" d="M302.43,-223.19C259.42,-211.66 187.45,-192.36 136.62,-178.72"/>
<polygon fill="black" stroke="black" points="137.32,-175.29 126.75,-176.08 135.51,-182.05 137.32,-175.29"/>
</g>
<!-- :core:designsystem -->
<g id="node3" class="node">
<title>:core:designsystem</title>
<ellipse fill="none" stroke="black" cx="274.99" cy="-162" rx="100.98" ry="18"/>
<text text-anchor="middle" x="274.99" y="-158.3" font-family="Times,serif" font-size="14.00">:core:designsystem</text>
</g>
<!-- :core:ui&#45;&gt;:core:designsystem -->
<g id="edge2" class="edge">
<title>:core:ui&#45;&gt;:core:designsystem</title>
<path fill="none" stroke="red" stroke-width="2" d="M324.15,-216.76C316.22,-208.1 306.31,-197.25 297.46,-187.57"/>
<polygon fill="red" stroke="red" stroke-width="2" points="299.98,-185.14 290.65,-180.12 294.81,-189.87 299.98,-185.14"/>
</g>
<!-- :core:model -->
<g id="node4" class="node">
<title>:core:model</title>
<ellipse fill="none" stroke="black" cx="348.99" cy="-90" rx="64.99" ry="18"/>
<text text-anchor="middle" x="348.99" y="-86.3" font-family="Times,serif" font-size="14.00">:core:model</text>
</g>
<!-- :core:ui&#45;&gt;:core:model -->
<g id="edge3" class="edge">
<title>:core:ui&#45;&gt;:core:model</title>
<path fill="none" stroke="black" d="M357.9,-217.46C368.04,-207.86 379.54,-194.61 384.99,-180 390.59,-165.01 389.7,-159.29 384.99,-144 381.94,-134.06 376.31,-124.31 370.4,-115.93"/>
<polygon fill="black" stroke="black" points="373.04,-113.63 364.23,-107.76 367.46,-117.85 373.04,-113.63"/>
</g>
<!-- :core:common -->
<g id="node5" class="node">
<title>:core:common</title>
<ellipse fill="none" stroke="black" cx="394.99" cy="-18" rx="75.29" ry="18"/>
<text text-anchor="middle" x="394.99" y="-14.3" font-family="Times,serif" font-size="14.00">:core:common</text>
</g>
<!-- :core:ui&#45;&gt;:core:common -->
<g id="edge4" class="edge">
<title>:core:ui&#45;&gt;:core:common</title>
<path fill="none" stroke="black" d="M361.93,-218.31C375.07,-208.82 390.9,-195.4 400.99,-180 419.33,-152.01 418.05,-141.09 422.99,-108 425.36,-92.18 426.84,-87.53 422.99,-72 420.66,-62.61 416.33,-53.04 411.76,-44.67"/>
<polygon fill="black" stroke="black" points="414.65,-42.68 406.59,-35.8 408.6,-46.21 414.65,-42.68"/>
</g>
<!-- :core:designsystem&#45;&gt;:core:model -->
<g id="edge5" class="edge">
<title>:core:designsystem&#45;&gt;:core:model</title>
<path fill="none" stroke="red" stroke-width="2" d="M292.91,-144.05C302.25,-135.22 313.82,-124.27 324.02,-114.62"/>
<polygon fill="red" stroke="red" stroke-width="2" points="326.64,-116.96 331.5,-107.55 321.83,-111.88 326.64,-116.96"/>
</g>
<!-- :core:model&#45;&gt;:core:common -->
<g id="edge6" class="edge">
<title>:core:model&#45;&gt;:core:common</title>
<path fill="none" stroke="red" stroke-width="2" d="M360.13,-72.05C365.53,-63.84 372.13,-53.79 378.13,-44.66"/>
<polygon fill="red" stroke="red" stroke-width="2" points="381.07,-46.55 383.64,-36.28 375.22,-42.71 381.07,-46.55"/>
</g>
</g>
</svg>
