<?xml version="1.0" encoding="UTF-8" standalone="no"?>
<!DOCTYPE svg PUBLIC "-//W3C//DTD SVG 1.1//EN"
 "http://www.w3.org/Graphics/SVG/1.1/DTD/svg11.dtd">
<!-- Generated by graphviz version 2.43.0 (0)
 -->
<!-- Title: G Pages: 1 -->
<svg width="209pt" height="188pt"
 viewBox="0.00 0.00 209.48 188.00" xmlns="http://www.w3.org/2000/svg" xmlns:xlink="http://www.w3.org/1999/xlink">
<g id="graph0" class="graph" transform="scale(1 1) rotate(0) translate(4 184)">
<title>G</title>
<polygon fill="white" stroke="transparent" points="-4,4 -4,-184 205.48,-184 205.48,4 -4,4"/>
<!-- :core:designsystem -->
<g id="node1" class="node">
<title>:core:designsystem</title>
<ellipse fill="none" stroke="black" cx="100.74" cy="-162" rx="100.98" ry="18"/>
<text text-anchor="middle" x="100.74" y="-158.3" font-family="Times,serif" font-size="14.00">:core:designsystem</text>
</g>
<!-- :core:model -->
<g id="node2" class="node">
<title>:core:model</title>
<ellipse fill="none" stroke="black" cx="100.74" cy="-90" rx="64.99" ry="18"/>
<text text-anchor="middle" x="100.74" y="-86.3" font-family="Times,serif" font-size="14.00">:core:model</text>
</g>
<!-- :core:designsystem&#45;&gt;:core:model -->
<g id="edge1" class="edge">
<title>:core:designsystem&#45;&gt;:core:model</title>
<path fill="none" stroke="red" stroke-width="2" d="M100.74,-143.7C100.74,-135.98 100.74,-126.71 100.74,-118.11"/>
<polygon fill="red" stroke="red" stroke-width="2" points="104.24,-118.1 100.74,-108.1 97.24,-118.1 104.24,-118.1"/>
</g>
<!-- :core:common -->
<g id="node3" class="node">
<title>:core:common</title>
<ellipse fill="none" stroke="black" cx="100.74" cy="-18" rx="75.29" ry="18"/>
<text text-anchor="middle" x="100.74" y="-14.3" font-family="Times,serif" font-size="14.00">:core:common</text>
</g>
<!-- :core:model&#45;&gt;:core:common -->
<g id="edge2" class="edge">
<title>:core:model&#45;&gt;:core:common</title>
<path fill="none" stroke="red" stroke-width="2" d="M100.74,-71.7C100.74,-63.98 100.74,-54.71 100.74,-46.11"/>
<polygon fill="red" stroke="red" stroke-width="2" points="104.24,-46.1 100.74,-36.1 97.24,-46.1 104.24,-46.1"/>
</g>
</g>
</svg>
